<?xml version="1.0" encoding="UTF-8"?>
<!-- Generator: visioncortex VTracer 0.6.3 -->
<svg version="1.1" xmlns="http://www.w3.org/2000/svg" width="740" height="740">
<path d="M0 0 C1.32 -0 1.32 -0 2.67 -0 C25.27 0.03 46.93 2.39 68.81 8.25 C69.76 8.5 70.7 8.76 71.68 9.02 C96.15 15.71 120.02 25.68 139.08 42.8 C141.23 44.73 143.4 46.49 145.69 48.25 C151.98 53.68 156.17 61.39 157.82 69.47 C159.39 72.28 161.81 72.35 164.81 73.25 C167.22 74.53 169.55 75.83 171.88 77.25 C172.53 77.64 173.18 78.04 173.85 78.45 C180.55 82.59 186.73 87.26 192.81 92.25 C193.71 92.97 194.6 93.69 195.53 94.43 C205.39 102.74 213.3 113.39 215.81 126.25 C216.09 129.95 216.05 133.55 215.81 137.25 C215.81 137.91 215.81 138.57 215.81 139.25 C217.45 140.54 219.15 141.76 220.88 142.94 C232.96 151.56 242.02 163.28 244.81 178.25 C245.44 188.08 245.43 196.32 240.81 205.25 C240.48 206.24 240.15 207.23 239.81 208.25 C240.45 208.82 240.45 208.82 241.1 209.39 C248.68 216.51 255.09 225.27 256.18 235.84 C256.52 255.89 247.03 271.3 233.56 285.53 C225.53 293.45 207.44 309.25 195.81 309.25 C195.81 309.91 195.81 310.57 195.81 311.25 C171.18 323.38 171.18 323.38 158.99 327.51 C157.48 328.02 155.97 328.55 154.48 329.09 C123.69 340.19 90.81 346.26 58.67 352.06 C57.96 352.19 57.26 352.31 56.53 352.45 C54.66 352.78 52.79 353.11 50.92 353.44 C47.59 354.06 44.3 354.85 41 355.65 C33.28 357.45 25.49 358.7 17.65 359.94 C15.02 360.36 12.39 360.78 9.76 361.21 C4.2 362.1 -1.37 362.99 -6.94 363.88 C-13.43 364.91 -19.93 365.95 -26.42 366.99 C-29.02 367.41 -31.61 367.82 -34.21 368.23 C-35.79 368.48 -37.36 368.74 -38.94 368.99 C-39.66 369.1 -40.38 369.22 -41.13 369.33 C-44.45 369.64 -44.45 369.64 -47.19 371.25 C-27.91 375.26 -8.83 378.54 10.81 380.25 C11.56 380.32 12.32 380.39 13.09 380.46 C64.66 385.18 116.6 377.26 166.12 363.19 C166.86 362.98 167.59 362.77 168.34 362.56 C186.09 357.57 186.09 357.57 202.92 350.19 C206.68 348.32 210.68 347 214.62 345.56 C222.93 342.49 230.93 338.99 238.86 335.04 C239.6 334.68 240.34 334.31 241.1 333.94 C241.75 333.61 242.39 333.29 243.06 332.95 C244.81 332.25 244.81 332.25 247.81 332.25 C247.55 333.65 247.28 335.04 247 336.44 C246.85 337.21 246.7 337.99 246.54 338.79 C245 343.99 242.84 346.61 238.06 349.24 C237.46 349.55 236.87 349.87 236.25 350.19 C235.09 350.82 233.94 351.44 232.75 352.09 C232.12 352.43 231.49 352.76 230.84 353.11 C229.42 353.91 228.03 354.75 226.66 355.62 C219.32 360.27 211.56 363.44 203.5 366.56 C202.78 366.84 202.06 367.12 201.32 367.41 C186.7 373.1 171.91 377.98 156.81 382.25 C155.61 382.59 154.4 382.94 153.15 383.29 C137.5 387.69 121.8 391.19 105.81 394.12 C105.02 394.27 104.23 394.42 103.41 394.57 C91.47 396.74 79.52 398.57 67.44 399.81 C64.01 399.85 64.01 399.85 62.81 401.25 C52.76 402.84 42.34 402.4 32.19 402.38 C29.32 402.38 26.44 402.38 23.57 402.39 C-1.89 402.4 -1.89 402.4 -6.19 400.25 C-7.57 400.07 -8.96 399.94 -10.36 399.82 C-38.03 397.26 -66.56 392.32 -93.05 383.99 C-103.41 380.89 -111.33 383.69 -121.25 387.31 C-122.31 387.69 -123.36 388.07 -124.45 388.46 C-127.03 389.38 -129.61 390.31 -132.19 391.25 C-129.49 393.34 -127.17 394.81 -123.94 395.94 C-122.7 396.37 -121.46 396.8 -120.19 397.25 C-120.19 397.91 -120.19 398.57 -120.19 399.25 C-119.52 399.36 -118.84 399.48 -118.15 399.59 C-114.58 400.38 -111.18 401.55 -107.74 402.76 C-106.25 403.28 -104.76 403.79 -103.27 404.3 C-102.49 404.57 -101.71 404.84 -100.91 405.11 C-12.15 435.49 82.42 431.2 221.81 392.25 C222.47 392.91 223.13 393.57 223.81 394.25 C222.76 395.84 221.69 397.42 220.62 399 C219.74 400.32 219.74 400.32 218.83 401.67 C195.42 431.56 114.79 440.22 79.47 444.81 C76.9 444.97 76.9 444.97 75.81 446.25 C67.46 447.55 58.95 447.4 50.52 447.38 C49.16 447.38 47.8 447.38 46.44 447.39 C43.61 447.39 40.78 447.39 37.95 447.38 C34.36 447.37 30.78 447.38 27.2 447.38 C-11.81 447.44 -11.81 447.44 -16.19 445.25 C-18.57 444.94 -20.95 444.68 -23.34 444.45 C-24.84 444.3 -26.34 444.15 -27.84 444 C-29.02 443.88 -29.02 443.88 -30.23 443.75 C-74.39 439.2 -115.17 427.11 -156.04 410.06 C-158.13 409.14 -158.13 409.14 -160.25 409.19 C-163.41 410.92 -164.9 413.95 -166.19 417.25 C-166.19 418.57 -166.19 419.89 -166.19 421.25 C-153.8 427.34 -141.39 433.18 -128.55 438.26 C-124.72 439.78 -120.98 441.31 -117.33 443.23 C-83.92 460.34 -40.45 466.75 -3.19 469.25 C-2.05 469.33 -2.05 469.33 -0.89 469.42 C55.09 473.37 110.68 464.72 164.56 450 C165.29 449.8 166.03 449.59 166.79 449.39 C167.5 449.19 168.21 449 168.94 448.8 C174.2 447.38 179.45 446.22 184.81 445.25 C183.38 446.91 181.95 448.57 180.52 450.23 C178.73 452.25 178.73 452.25 177.27 454.72 C173.57 458.53 169.25 459.77 164.31 461.5 C163.25 461.88 162.19 462.27 161.1 462.66 C157.68 463.88 154.25 465.07 150.81 466.25 C149.71 466.63 148.61 467.01 147.48 467.41 C113.67 479.05 78.81 486.74 43.17 489.89 C39.82 490.13 39.82 490.13 36.81 491.25 C23.07 492.4 9.08 492.52 -4.69 491.94 C-5.56 491.9 -6.44 491.87 -7.34 491.83 C-13.25 491.53 -19.02 490.73 -24.87 489.78 C-28.08 489.27 -31.3 488.8 -34.52 488.36 C-77.98 482.25 -117.02 469.54 -157.19 452.25 C-154.49 455.89 -151.88 458.42 -148.11 460.92 C-147.12 461.58 -146.13 462.24 -145.12 462.92 C-144.07 463.61 -143.02 464.29 -141.94 465 C-140.85 465.71 -139.77 466.43 -138.65 467.16 C-130.35 472.59 -121.97 477.65 -113.19 482.25 C-112.39 482.68 -111.6 483.1 -110.78 483.54 C-44.48 518.94 35.1 518.41 106.23 498.06 C110.03 496.87 113.76 495.46 117.48 494.02 C119.81 493.25 119.81 493.25 122.81 493.25 C121.56 497 120.65 497.15 117.2 498.89 C115.75 499.62 115.75 499.62 114.26 500.37 C112.68 501.15 112.68 501.15 111.06 501.94 C109.98 502.47 108.89 503.01 107.77 503.56 C83.09 515.5 56.93 523.27 29.81 527.25 C29.04 527.37 28.26 527.48 27.47 527.6 C-13.66 533.55 -56.94 528.15 -96.19 515.25 C-96.89 515.03 -97.6 514.81 -98.32 514.58 C-114.62 509.43 -132.33 502.38 -146.19 492.25 C-146.19 491.59 -146.19 490.93 -146.19 490.25 C-146.92 489.98 -147.64 489.72 -148.39 489.45 C-168.02 481.05 -187.95 460.65 -196.19 441.25 C-196.58 439.65 -196.96 438.05 -197.31 436.44 C-198.62 432.14 -200.91 430.86 -204.75 428.69 C-205.82 428.12 -206.89 427.56 -208 426.98 C-222.73 418.98 -236.15 404.4 -243.19 389.25 C-245.61 379.35 -243.64 369.92 -241.19 360.25 C-241.84 359.73 -242.49 359.21 -243.16 358.68 C-244.97 357.23 -246.78 355.78 -248.59 354.33 C-250.04 353.17 -251.5 352.01 -252.98 350.89 C-261.25 344.45 -265.26 336.48 -267.19 326.25 C-267.7 318.24 -265.6 311.96 -262.05 304.84 C-260.94 302.35 -260.94 302.35 -261.83 300.23 C-262.28 299.58 -262.73 298.92 -263.19 298.25 C-263.72 297.42 -264.26 296.59 -264.81 295.73 C-265.71 294.38 -265.71 294.38 -266.62 293 C-273.75 281.9 -275.95 270.54 -273.19 257.56 C-269.3 243.68 -261.95 232.65 -252.19 222.25 C-251.08 221.02 -251.08 221.02 -249.94 219.76 C-228.46 196.94 -196.01 185.92 -167.34 175.51 C-163.07 173.96 -158.83 172.33 -154.61 170.66 C-147.25 167.82 -139.77 165.53 -132.19 163.38 C-131.4 163.15 -130.6 162.92 -129.79 162.69 C-90.57 151.62 -49.96 143.24 -9.7 136.97 C-0.87 135.58 7.93 134.05 16.73 132.54 C19.86 132.01 22.98 131.49 26.1 130.96 C28.03 130.64 29.95 130.31 31.88 129.98 C32.75 129.84 33.62 129.69 34.52 129.54 C45.39 127.73 45.39 127.73 55.81 124.25 C57.64 123.72 59.48 123.22 61.33 122.74 C62.35 122.48 63.38 122.21 64.43 121.94 C65.48 121.67 66.54 121.4 67.62 121.12 C68.7 120.85 69.77 120.57 70.88 120.29 C73.52 119.6 76.17 118.93 78.81 118.25 C61.85 115.54 44.96 113.33 27.81 112.25 C26.89 112.19 25.97 112.13 25.02 112.07 C-27.09 108.96 -87.63 110.79 -137.05 129.46 C-140.28 130.65 -143.55 131.7 -146.82 132.75 C-179.51 143.31 -211.24 155.42 -240.19 174.25 C-243.52 176.38 -246.85 178.5 -250.19 180.62 C-251.43 181.42 -251.43 181.42 -252.71 182.24 C-253.5 182.74 -254.3 183.25 -255.12 183.77 C-255.84 184.23 -256.55 184.68 -257.28 185.15 C-259.19 186.25 -259.19 186.25 -262.19 187.25 C-261.07 178.13 -259.46 168.06 -252.33 161.7 C-249.24 159.71 -245.97 158.1 -242.66 156.49 C-238.75 154.53 -234.97 152.32 -231.17 150.15 C-222.42 145.17 -213.59 140.33 -204.69 135.62 C-203.59 135.04 -203.59 135.04 -202.46 134.45 C-188.72 127.25 -188.72 127.25 -184.19 127.25 C-183.86 126.59 -183.53 125.93 -183.19 125.25 C-132.35 97.04 -64.94 89.75 -8.06 89.94 C-6.31 89.94 -6.31 89.94 -4.53 89.94 C26.1 90.02 56.1 92.56 86.4 96.86 C89.87 97.34 93.34 97.8 96.81 98.25 C98.06 98.41 99.32 98.57 100.6 98.74 C101.75 98.86 102.9 98.98 104.09 99.11 C105.57 99.28 105.57 99.28 107.09 99.44 C111.52 99.13 113.96 96.77 116.93 93.66 C121.84 87.56 121.84 87.56 123.81 80.25 C37.68 53.35 -56.56 55.22 -142.97 80.73 C-145.19 81.25 -145.19 81.25 -149.19 81.25 C-149.19 81.91 -149.19 82.57 -149.19 83.25 C-149.85 83.45 -150.51 83.64 -151.19 83.84 C-174.98 90.9 -197.68 99.03 -219.89 110.16 C-222.29 111.3 -224.71 112.29 -227.19 113.25 C-224.45 108.15 -221.42 103.85 -217.62 99.5 C-217.14 98.94 -216.66 98.37 -216.17 97.79 C-209.78 90.36 -209.78 90.36 -205.5 88.21 C-204.45 87.68 -204.45 87.68 -203.38 87.14 C-202.66 86.79 -201.93 86.43 -201.19 86.06 C-200.46 85.69 -199.74 85.33 -198.99 84.95 C-198.29 84.6 -197.59 84.25 -196.88 83.89 C-196.24 83.58 -195.6 83.26 -194.95 82.94 C-193.19 82.25 -193.19 82.25 -190.19 82.25 C-189.86 81.59 -189.53 80.93 -189.19 80.25 C-181.1 75.73 -172.08 72.96 -163.31 70.06 C-162.6 69.83 -161.9 69.59 -161.17 69.35 C-113.36 53.58 -63.36 42.44 -12.94 40.69 C-11.15 40.62 -11.15 40.62 -9.33 40.56 C-0.61 40.27 8.09 40.04 16.81 40.25 C18.05 40.28 18.05 40.28 19.31 40.3 C50.49 41.08 81.02 46.15 111.14 54.1 C112.82 54.54 112.82 54.54 114.54 54.99 C115.54 55.26 116.53 55.53 117.56 55.8 C118.3 55.95 119.05 56.1 119.81 56.25 C120.14 55.92 120.47 55.59 120.81 55.25 C115.48 50.28 110.12 47.08 103.56 43.94 C102.67 43.5 101.77 43.05 100.84 42.6 C97.52 40.98 94.32 39.42 90.81 38.25 C90.81 37.59 90.81 36.93 90.81 36.25 C58.78 25.33 26.69 19.14 -7.19 18.25 C-9.13 18.19 -9.13 18.19 -11.11 18.12 C-54.92 17.42 -103.18 23.24 -143.47 41.05 C-146.7 42.48 -149.96 43.78 -153.25 45.06 C-154.85 45.69 -154.85 45.69 -156.47 46.33 C-159.19 47.25 -159.19 47.25 -162.19 47.25 C-162.19 46.59 -162.19 45.93 -162.19 45.25 C-160.31 43.8 -158.36 42.44 -156.38 41.12 C-155.3 40.4 -154.22 39.68 -153.11 38.93 C-150.19 37.25 -150.19 37.25 -147.19 37.25 C-147.19 36.59 -147.19 35.93 -147.19 35.25 C-102.69 9.91 -50.81 0.04 0 0 Z M154.81 93.25 C154.43 93.9 154.04 94.55 153.64 95.23 C150.81 99.98 147.94 104.68 144.81 109.25 C151.53 111.82 158.31 114.15 165.12 116.44 C166.75 116.99 166.75 116.99 168.41 117.55 C169.45 117.9 170.48 118.25 171.55 118.61 C172.49 118.92 173.43 119.24 174.4 119.56 C176.87 120.39 176.87 120.39 179.81 120.25 C178.25 109.69 168.79 103.42 160.82 97.34 C158.15 95.06 158.15 95.06 155.81 95.25 C155.48 94.59 155.15 93.93 154.81 93.25 Z M117.44 132.38 C110.84 136.78 104.13 140.15 96.81 143.25 C96.81 143.91 96.81 144.57 96.81 145.25 C97.41 145.38 98 145.52 98.62 145.66 C109.22 148.08 119.78 150.58 130.2 153.72 C130.9 153.93 131.59 154.14 132.31 154.36 C135.75 155.39 139.19 156.45 142.62 157.53 C143.87 157.91 145.13 158.29 146.42 158.69 C147.54 159.04 148.65 159.39 149.8 159.75 C154.14 160.47 156.49 159.16 160.02 156.73 C160.74 156.16 161.45 155.59 162.19 155 C162.96 154.39 163.73 153.77 164.52 153.14 C167.66 150.55 170.75 147.92 173.81 145.25 C171.21 142.65 168.8 142.02 165.33 140.79 C164.68 140.56 164.02 140.33 163.35 140.09 C161.96 139.59 160.58 139.11 159.19 138.62 C157.11 137.89 155.04 137.15 152.96 136.41 C134.85 128.6 134.85 128.6 117.44 132.38 Z M201.75 165.15 C200.97 165.97 200.18 166.78 199.38 167.62 C196.9 170.19 194.78 172.27 191.81 174.25 C191.81 174.91 191.81 175.57 191.81 176.25 C195.08 177.93 198.35 179.59 201.62 181.25 C202.55 181.73 203.48 182.2 204.44 182.7 C205.33 183.15 206.22 183.6 207.14 184.06 C207.97 184.48 208.79 184.9 209.64 185.33 C211.88 186.44 211.88 186.44 214.81 186.25 C216.08 182.44 216.66 179.18 215.81 175.25 C213.82 171.94 211.43 169.09 208.81 166.25 C208.28 165.67 207.75 165.09 207.21 164.49 C204.8 162.35 204.03 163.05 201.75 165.15 Z M9.31 168.06 C8.33 168.19 7.35 168.32 6.34 168.46 C-3.14 169.74 -12.49 171.18 -21.79 173.47 C-26.06 174.45 -30.36 175.22 -34.68 175.98 C-35.53 176.13 -36.39 176.28 -37.28 176.43 C-39.08 176.75 -40.88 177.06 -42.68 177.38 C-97.86 187.08 -158.6 198.18 -208.19 225.25 C-208.8 225.58 -209.42 225.91 -210.05 226.25 C-218.07 230.54 -225.28 235.32 -232.19 241.25 C-233.28 242.09 -233.28 242.09 -234.4 242.96 C-240.56 247.86 -244.47 253.36 -245.63 261.28 C-245.89 268.04 -244.72 272.51 -241.19 278.25 C-237.38 275.41 -233.59 272.56 -229.83 269.66 C-229.25 269.21 -228.67 268.76 -228.07 268.3 C-226.91 267.4 -225.74 266.5 -224.58 265.59 C-220.41 262.36 -220.41 262.36 -218.19 261.25 C-218.19 260.59 -218.19 259.93 -218.19 259.25 C-217.32 258.99 -216.46 258.73 -215.57 258.46 C-212.12 257.23 -209.29 255.66 -206.12 253.81 C-172.51 235.22 -131.56 226.45 -94.13 218.95 C-91.25 218.35 -91.25 218.35 -88.86 217.28 C-86.04 216.19 -83.38 215.59 -80.41 215.04 C-79.26 214.82 -78.1 214.6 -76.91 214.37 C-75.66 214.14 -74.4 213.91 -73.1 213.67 C-71.76 213.42 -70.41 213.16 -69.07 212.91 C-65.41 212.22 -61.76 211.54 -58.11 210.86 C-55.03 210.29 -51.95 209.71 -48.87 209.14 C-32.01 205.97 -15.14 202.87 1.74 199.82 C39.72 193.03 39.72 193.03 77.5 185.25 C78.28 185.08 79.05 184.91 79.85 184.73 C91.56 182.11 103.19 179.19 114.81 176.25 C107.88 171.63 99.92 170.24 91.88 168.62 C90.84 168.41 89.81 168.19 88.74 167.97 C62.61 162.61 35.57 164.54 9.31 168.06 Z M153.5 195.81 C138.05 202.54 122.02 207.17 105.75 211.44 C102.55 212.28 99.35 213.13 96.15 213.98 C95.39 214.18 94.64 214.38 93.86 214.59 C90.27 215.55 86.75 216.57 83.25 217.84 C76.34 220.24 68.99 221.29 61.81 222.62 C60.01 222.97 58.2 223.31 56.4 223.65 C44.25 225.93 32.08 228.1 19.91 230.24 C19.17 230.37 18.43 230.5 17.67 230.64 C16.15 230.91 14.63 231.17 13.11 231.44 C-110.09 245.55 -110.09 245.55 -216.19 300.25 C-209.24 306.18 -200.49 312.9 -191.19 314.25 C-189.25 313.52 -189.25 313.52 -187.38 312.22 C-186.28 311.54 -186.28 311.54 -185.15 310.83 C-184.36 310.33 -183.57 309.83 -182.75 309.31 C-136.8 281.79 -74.83 276.48 -22.79 268.26 C-19.97 267.81 -17.15 267.36 -14.33 266.91 C-12.4 266.61 -10.47 266.31 -8.54 266.01 C-1.91 264.96 4.54 263.65 11.03 261.95 C15.22 260.89 19.46 260.11 23.72 259.34 C25.59 258.99 27.47 258.64 29.34 258.29 C30.32 258.12 31.29 257.94 32.29 257.75 C112.46 245.48 112.46 245.48 185.81 214.25 C185.81 213.59 185.81 212.93 185.81 212.25 C186.56 212 187.3 211.75 188.06 211.5 C191.03 210.15 192.59 208.59 194.81 206.25 C175.22 193.58 175.22 193.58 153.5 195.81 Z M213.21 232.7 C194.19 247.13 173.29 255.7 150.81 263.25 C150.81 263.91 150.81 264.57 150.81 265.25 C149.82 264.92 148.83 264.59 147.81 264.25 C147.81 264.91 147.81 265.57 147.81 266.25 C146.56 266.47 145.31 266.7 144.02 266.93 C136.32 268.47 128.76 270.61 121.17 272.64 C100.83 278.08 80.43 283 59.81 287.25 C59.09 287.4 58.36 287.55 57.62 287.7 C18.58 295.76 -20.87 301.8 -60.19 308.25 C-60.19 308.91 -60.19 309.57 -60.19 310.25 C-61.02 310.29 -61.02 310.29 -61.87 310.33 C-71.98 311 -81.8 313.23 -91.69 315.31 C-92.64 315.51 -93.59 315.71 -94.57 315.92 C-115.22 320.26 -135.46 325.67 -155.19 333.25 C-152.8 334.84 -150.7 336 -148.12 337.17 C-146.91 337.71 -146.91 337.71 -145.68 338.27 C-142.08 339.88 -138.47 341.48 -134.87 343.06 C-132.37 344.17 -129.89 345.3 -127.4 346.43 C-125.94 347.08 -124.47 347.73 -123 348.38 C-122.01 348.84 -122.01 348.84 -121.01 349.31 C-111.6 353.35 -102.23 349.28 -92.88 346.62 C-64.37 338.77 -35.11 334.33 -6.01 329.3 C14.25 325.79 34.48 322.14 54.69 318.31 C56.5 317.97 56.5 317.97 58.34 317.62 C83.26 312.93 83.26 312.93 107.7 306.23 C110.88 305.23 114.08 304.32 117.29 303.43 C173.98 288.83 173.98 288.83 218.81 253.25 C221.82 247.92 222.61 243.25 221.81 237.25 C221 234.45 219.98 231.94 218.81 229.25 C216.6 229.25 214.9 231.41 213.21 232.7 Z M-234.19 323.25 C-235.36 326.78 -234.74 328.17 -233.21 331.46 C-231.6 334.28 -229.7 336.23 -227.19 338.25 C-222.89 338.27 -222.89 338.27 -219.94 335.75 C-219.03 334.93 -218.12 334.1 -217.19 333.25 C-220.42 330.71 -223.82 328.63 -227.38 326.56 C-228.44 325.94 -229.51 325.32 -230.61 324.68 C-232.84 323.17 -232.84 323.17 -234.19 323.25 Z M-192.31 354.25 C-193.3 354.97 -193.3 354.97 -194.31 355.7 C-195.94 356.88 -197.56 358.06 -199.19 359.25 C-195.79 362.13 -192.52 364.22 -188.5 366.12 C-183.54 368.5 -179.04 371.19 -174.54 374.34 C-171.1 375.67 -169.54 374.71 -166.19 373.25 C-163.37 371.93 -160.59 370.54 -157.81 369.12 C-156.71 368.57 -156.71 368.57 -155.58 368 C-153.78 367.08 -151.98 366.17 -150.19 365.25 C-153.47 363.06 -156.88 361.6 -160.5 360.06 C-167.31 357.14 -173.92 353.94 -180.49 350.54 C-185.7 348.05 -188.1 351.16 -192.31 354.25 Z M-210.19 382.25 C-210.04 389.24 -206.82 393.2 -202.19 398.25 C-199.47 400.72 -199.47 400.72 -197.19 402.25 C-195.21 399.28 -193.23 396.31 -191.19 393.25 C-192.67 390.28 -194.92 389.74 -197.88 388.31 C-199.43 387.56 -199.43 387.56 -201.01 386.79 C-202.06 386.28 -203.11 385.77 -204.19 385.25 C-206.19 384.25 -208.19 383.25 -210.19 382.25 Z " fill="#2C6BF4" transform="translate(383.1875,106.75)"/>
<path d="M0 0 C0 0.66 0 1.32 0 2 C1.29 2.39 1.29 2.39 2.6 2.79 C20.02 9.01 35.75 22.6 50.29 33.7 C51.78 34.83 53.27 35.95 54.76 37.07 C58.87 40.19 62.59 43.45 66.17 47.17 C67.9 48.9 69.69 50.48 71.55 52.07 C76.79 56.62 81.67 61.52 86.56 66.44 C87.92 67.79 87.92 67.79 89.31 69.17 C94.41 74.29 99.35 79.47 104 85 C104.47 85.56 104.95 86.12 105.44 86.7 C118.02 101.8 129.24 117.94 139 135 C139.56 135.94 139.56 135.94 140.13 136.9 C143 141.78 143 141.78 143 144 C143.66 144 144.32 144 145 144 C175.38 196.83 189.52 258.97 189.31 319.56 C189.31 320.66 189.31 321.75 189.31 322.88 C189.27 339.79 188.61 356.27 186 373 C185.86 373.96 185.72 374.92 185.58 375.91 C179.34 418.61 165.43 466.65 140.64 502.52 C139 505 137.48 507.54 135.98 510.11 C127.75 524.17 118.07 537.21 108 550 C107.27 550.94 106.53 551.88 105.78 552.85 C102.37 557.17 98.9 561.12 95 565 C94.06 565.95 93.11 566.89 92.17 567.84 C89.44 570.6 86.7 573.35 83.95 576.1 C82.78 577.28 81.61 578.46 80.44 579.64 C74.14 585.98 67.87 592.27 61 598 C60.48 598.44 59.97 598.88 59.43 599.34 C13.74 638 13.74 638 0 638 C0 638.66 0 639.32 0 640 C-17.18 649.14 -34.66 656.53 -53 663 C-54.05 663.38 -55.11 663.75 -56.19 664.14 C-83.94 673.96 -112.8 678.95 -142 682 C-142.8 682.08 -143.59 682.17 -144.41 682.26 C-148.94 682.71 -153.45 682.92 -158 683 C-159.04 683.02 -160.08 683.04 -161.15 683.06 C-188.12 683.51 -214.42 681.63 -241 677 C-242.1 676.81 -243.2 676.62 -244.33 676.42 C-280.2 670 -314.75 656.72 -347 640 C-347 639.34 -347 638.68 -347 638 C-347.86 637.74 -348.72 637.48 -349.6 637.21 C-365.39 631.57 -379.61 619.54 -393 609.75 C-393.78 609.18 -394.55 608.62 -395.35 608.03 C-400.47 604.26 -405.29 600.27 -410 596 C-410.96 595.13 -411.92 594.26 -412.91 593.36 C-420.43 586.5 -427.76 579.46 -434.97 572.27 C-436.69 570.56 -438.42 568.86 -440.16 567.15 C-447.49 559.89 -453.92 552.33 -460 544 C-460.6 543.2 -461.2 542.39 -461.81 541.57 C-469.22 531.61 -476.18 521.41 -482.79 510.91 C-483.89 509.17 -485 507.44 -486.11 505.71 C-517.34 456.32 -535.97 394.15 -536.2 335.59 C-536.21 334.42 -536.21 333.26 -536.22 332.06 C-536.23 329.6 -536.24 327.13 -536.24 324.67 C-536.25 321 -536.28 317.33 -536.31 313.65 C-536.41 292.39 -534.5 271.54 -530.31 250.69 C-530.06 249.4 -529.8 248.12 -529.54 246.8 C-521.75 208.37 -508.5 170.08 -487.56 136.75 C-487.14 136.08 -486.72 135.41 -486.29 134.72 C-476.8 119.72 -466.99 104.95 -456 91 C-455.4 90.22 -454.81 89.45 -454.19 88.65 C-447.86 80.63 -440.76 73.49 -433.52 66.31 C-431.43 64.25 -429.36 62.17 -427.28 60.1 C-425.94 58.76 -424.59 57.42 -423.25 56.08 C-422.64 55.47 -422.03 54.86 -421.4 54.24 C-417.09 49.97 -412.6 45.96 -408 42 C-406.84 40.98 -405.68 39.96 -404.52 38.95 C-400.73 35.71 -396.74 32.78 -392.69 29.88 C-391.91 29.32 -391.14 28.76 -390.34 28.19 C-355.1 3 -355.1 3 -349 3 C-348.67 2.34 -348.34 1.68 -348 1 C-346.48 -0 -346.48 -0 -344.48 -1.07 C-343.74 -1.46 -343 -1.86 -342.23 -2.27 C-255.81 -47.23 -151.19 -55.96 0 0 Z M-388 52 C-389.1 52.92 -390.19 53.84 -391.29 54.76 C-396.6 59.23 -401.9 63.73 -407.11 68.33 C-408.47 69.54 -409.85 70.73 -411.24 71.92 C-415.54 75.65 -419.46 79.46 -423.13 83.82 C-425.31 86.36 -427.59 88.8 -429.88 91.25 C-434.26 96.04 -438.11 101 -441.89 106.27 C-444 109 -444 109 -446.42 111.39 C-497.7 163.22 -517.62 253.69 -517.3 323.87 C-516.99 357.52 -511.8 390.81 -502 423 C-501.71 423.96 -501.43 424.91 -501.13 425.9 C-490.52 460.32 -472.39 494.12 -451 523 C-450.6 523.58 -450.2 524.16 -449.78 524.76 C-447.14 528.57 -444.33 531.76 -441 535 C-439.56 536.71 -438.14 538.44 -436.75 540.19 C-433.05 544.76 -429.22 549.18 -425.25 553.52 C-423.73 555.2 -422.21 556.9 -420.71 558.6 C-416.11 563.83 -411.36 568.55 -406 573 C-404.83 574 -403.67 575 -402.5 576 C-401.92 576.49 -401.35 576.98 -400.75 577.49 C-399.6 578.49 -398.45 579.49 -397.31 580.51 C-370.7 604.25 -340.32 621.23 -308 636 C-306.8 636.55 -306.8 636.55 -305.57 637.12 C-264.82 655.73 -219.1 663.22 -174.56 663.25 C-173.14 663.25 -173.14 663.25 -171.7 663.25 C-95.43 663.17 -17.68 637.56 41 588 C42.1 587.08 43.19 586.16 44.29 585.24 C49.63 580.75 54.94 576.23 60.17 571.61 C61.44 570.49 62.72 569.39 64.02 568.3 C68.05 564.87 71.61 561.32 75.03 557.28 C76.94 555.07 78.91 552.95 80.9 550.82 C86.16 545.2 90.93 539.38 95.52 533.2 C97.38 530.73 99.38 528.43 101.44 526.12 C104.88 522.23 107.84 518.15 110.69 513.81 C111.2 513.04 111.71 512.27 112.23 511.47 C122.8 495.23 131.55 478.25 139.72 460.71 C140.78 458.46 141.87 456.24 142.99 454.03 C179.58 380.52 177.53 285.26 151.97 208.91 C148.39 198.36 144.29 188.25 139.18 178.35 C137.85 175.7 136.6 173.03 135.35 170.34 C124.73 147.53 112.15 125.82 95.48 106.84 C93.23 104.27 91.1 101.63 89 98.94 C81.56 89.6 73.21 81.1 64.81 72.62 C64.06 71.86 63.32 71.1 62.55 70.32 C58.5 66.26 54.39 62.64 49.75 59.29 C47.51 57.64 45.51 55.79 43.5 53.88 C31.8 43.2 18.25 32.99 4.01 26.01 C1.58 24.79 -0.77 23.43 -3.12 22.06 C-42.47 -0.86 -84.95 -14.94 -130 -21 C-130.84 -21.12 -131.68 -21.24 -132.54 -21.36 C-221.51 -33.48 -319.35 -5.98 -388 52 Z " fill="#2C6BF4" transform="translate(544,50)"/>
</svg>
