<svg xmlns="http://www.w3.org/2000/svg" width="740" height="740" viewBox="0 0 740 740" version="1.1"><path d="" stroke="none" fill="#306cf4" fill-rule="evenodd"/><path d="M 354 7.590 C 315.308 10.180, 285.848 15.733, 253.608 26.514 C 229.416 34.604, 208.556 44.366, 183 59.557 C 115.042 99.953, 58.855 167.165, 31.081 241.286 C 21.452 266.980, 14.256 295.645, 10.440 323.500 C 8.217 339.723, 7.387 382.851, 8.942 401.294 C 12.816 447.253, 26.641 495.829, 46.709 534 C 66.428 571.504, 85.540 597.673, 113.939 626.050 C 142.772 654.861, 167.929 673.228, 206 693.263 C 276.947 730.598, 366.046 742.067, 448 724.413 C 542.647 704.025, 626.615 644.770, 678.147 562 C 706.928 515.773, 723.412 469.487, 730.573 414.795 C 732.740 398.240, 733.549 359.142, 732.088 341.500 C 725.138 257.530, 691.846 182.636, 634.063 120.979 C 594.647 78.921, 541.047 44.372, 487.413 26.453 C 462.098 17.995, 432.333 11.607, 406.253 9.033 C 394.875 7.911, 362.549 7.018, 354 7.590 M 343 27.655 C 284.666 33.246, 238.938 48.112, 191.500 76.908 C 116.034 122.719, 59.124 199.498, 37.627 284.500 C 34.447 297.074, 30.587 318.181, 28.849 332.500 C 27.105 346.869, 27.093 392.870, 28.829 407.500 C 34.727 457.184, 48.314 498.619, 72.728 541.371 C 113.310 612.435, 182.990 669.651, 260.414 695.484 C 295.084 707.051, 323.251 711.818, 362 712.676 C 396.877 713.449, 418.304 711.397, 449 704.344 C 521.343 687.721, 586.240 647.384, 635.300 588.548 C 676.628 538.985, 702.341 479.785, 711.184 413.837 C 713.798 394.351, 714.324 352.836, 712.191 334.500 C 705.355 275.740, 688.233 228.269, 656.465 180 C 634.334 146.374, 602.464 113.379, 569.893 90.373 C 518.668 54.191, 463.770 33.867, 401.500 28.032 C 391.514 27.097, 351.520 26.839, 343 27.655 M 362.500 107.626 C 326.941 110.450, 294.485 117.251, 269.685 127.073 C 253.489 133.488, 219.928 151.809, 222.689 152.730 C 223.226 152.909, 228.803 150.987, 235.083 148.459 C 303.858 120.769, 397.958 116.476, 460.843 138.160 C 476.731 143.639, 496.709 153.931, 503.274 160.019 L 508.500 164.866 499 162.479 C 471.047 155.455, 451.007 151.622, 431 149.472 C 414.990 147.752, 368.033 147.505, 351 149.051 C 294.532 154.177, 226.322 172.109, 183.228 193.158 C 173.219 198.047, 172.751 198.429, 164.877 208.152 C 160.433 213.640, 156.972 218.305, 157.186 218.519 C 157.400 218.733, 162.452 216.463, 168.413 213.475 C 208.454 193.404, 265.172 177.668, 325.500 169.892 C 370.690 164.068, 437.883 167.654, 479.500 178.110 C 492.033 181.259, 506.862 185.967, 507.500 187.001 C 507.820 187.518, 507.100 190.221, 505.901 193.008 C 503.595 198.368, 496.395 205.612, 492.368 206.622 C 491.104 206.940, 482.067 206.042, 472.285 204.627 C 379.388 191.192, 306.002 195.484, 236.840 218.398 C 207.111 228.247, 165.271 248.652, 134.986 268.072 L 127.472 272.890 124.262 282.637 C 122.496 287.998, 121.249 292.582, 121.490 292.824 C 121.732 293.065, 126.783 290.120, 132.715 286.277 C 170.829 261.591, 217.221 241.806, 263.396 230.547 C 306.234 220.100, 354.832 215.597, 399.956 217.892 C 429.078 219.373, 466.013 223.492, 464.258 225.063 C 463.354 225.871, 452.603 229.089, 441.500 231.874 C 428.873 235.041, 415.127 237.617, 379.488 243.495 C 347.844 248.713, 299.305 258.621, 273.511 265.126 C 258.917 268.807, 222.390 280.397, 204 287.181 C 185.669 293.943, 160.395 306.576, 149.636 314.353 C 110.845 342.392, 99.054 375.965, 118.807 402.128 L 123.022 407.711 120.559 413.105 C 115.743 423.651, 115.679 435.486, 120.386 444.776 C 122.936 449.807, 130.152 457.110, 138.733 463.344 L 143.966 467.145 142.547 470.543 C 140.416 475.642, 139.598 486.884, 140.906 493.102 C 143.472 505.301, 159.781 523.830, 176.813 533.897 C 185.845 539.236, 185.961 539.354, 187.560 544.854 C 191.429 558.164, 198.318 567.930, 211.590 578.922 C 251.152 611.687, 297.380 629.905, 353.672 634.916 C 394.643 638.564, 440.092 631.567, 476.500 616.007 C 482.783 613.322, 506.256 600.916, 505.822 600.510 C 505.645 600.344, 501 601.716, 495.500 603.558 C 464.328 614.002, 420.690 619.697, 379.500 618.697 C 348.504 617.945, 328.500 614.338, 302.720 604.854 C 274.011 594.291, 239.529 574.260, 225.500 559.995 L 220.500 554.911 232 560.326 C 284.585 585.090, 337.293 597.079, 393.562 597.075 C 440.282 597.071, 480.304 590.235, 529 573.942 C 552.087 566.218, 555.980 564.378, 562.224 558.240 C 565.372 555.146, 567.794 552.461, 567.607 552.274 C 567.420 552.087, 559.444 554.147, 549.883 556.853 C 479.833 576.679, 413.742 582.451, 354.500 573.918 C 309.642 567.457, 274.857 556.602, 228.749 534.677 C 215.211 528.239, 215.012 528.098, 215.976 525.562 C 217.717 520.983, 219.750 517.537, 221.807 515.675 C 223.647 514.009, 224.066 513.983, 226.738 515.365 C 228.344 516.195, 236.372 519.550, 244.579 522.819 C 289.971 540.904, 323.563 548.358, 376 551.979 C 394.943 553.287, 440.972 553.281, 454.144 551.968 C 495.154 547.881, 560.419 530.688, 590 516.179 C 595.985 513.243, 598.340 511.389, 601.660 507 C 603.947 503.975, 605.438 501.359, 604.971 501.187 C 604.505 501.015, 596.558 503.327, 587.311 506.325 C 532.559 524.077, 471.606 534.296, 420 534.376 C 359.810 534.470, 300.263 522.729, 253.554 501.560 L 246.609 498.412 262.517 493.121 C 272.988 489.639, 279.463 487.990, 281.462 488.296 C 283.133 488.552, 292.375 490.787, 302 493.262 C 343.281 503.879, 383.955 508.751, 422.456 507.692 C 468.730 506.419, 527.124 494.612, 575 476.847 C 590.070 471.255, 621.529 456.093, 625.286 452.610 C 627.628 450.440, 631.735 440.401, 630.703 439.370 C 630.428 439.094, 627.344 440.313, 623.851 442.077 C 590.614 458.868, 541.796 474.764, 500 482.407 C 472.638 487.411, 459.680 488.482, 427 488.438 C 389.295 488.388, 374.640 486.890, 338 479.343 L 329.500 477.592 342.500 475.347 C 349.650 474.113, 372.825 470.133, 394 466.504 C 480.465 451.687, 521.051 442.206, 550.522 429.940 C 579.290 417.967, 606.390 401.705, 618.133 389.367 C 641.931 364.364, 645.500 338.970, 627.749 320.937 C 625.076 318.222, 622.497 316, 622.017 316 C 621.537 316, 622.569 313.238, 624.310 309.863 C 629.714 299.385, 629.214 285.304, 622.971 272.102 C 619.628 265.034, 610.575 255.017, 602.509 249.461 C 597.318 245.886, 597.268 245.803, 597.755 241.480 C 599.685 224.355, 588.036 207.064, 563.852 191.160 C 557.446 186.947, 549.890 182.253, 547.062 180.728 C 544.234 179.204, 541.665 177.179, 541.352 176.228 C 537.409 164.230, 526.738 152.445, 509.629 141.193 C 484.710 124.805, 456.605 114.659, 421.500 109.378 C 411.856 107.927, 373.169 106.778, 362.500 107.626 M 537.060 202.787 C 536.385 204.279, 534.007 207.874, 531.775 210.775 C 529.544 213.677, 527.894 216.164, 528.109 216.303 C 528.324 216.441, 533.900 218.285, 540.500 220.400 C 547.100 222.514, 555.087 225.283, 558.250 226.552 C 561.413 227.821, 564 228.423, 564 227.890 C 564 223.182, 553.691 210.879, 544.120 204.165 L 538.287 200.074 537.060 202.787 M 499.818 239.347 C 495.593 242.266, 489.193 245.970, 485.595 247.577 C 481.997 249.185, 479.042 250.742, 479.027 251.038 C 479.012 251.334, 482.712 252.347, 487.250 253.290 C 491.788 254.232, 504.910 257.766, 516.411 261.143 L 537.321 267.282 540.793 265.412 C 542.702 264.384, 547.227 260.790, 550.849 257.426 L 557.433 251.310 544.466 246.272 C 532.244 241.523, 509.951 233.977, 508.268 234.019 C 507.846 234.030, 504.043 236.427, 499.818 239.347 M 580.849 275.925 L 574.197 282.500 585.672 288.122 L 597.147 293.744 598.073 291.307 C 599.456 287.672, 599.198 283.294, 597.390 279.700 C 595.740 276.420, 589.029 268.861, 588.047 269.175 C 587.746 269.272, 584.507 272.309, 580.849 275.925 M 422 272.030 C 396.969 273.885, 351.529 281.067, 314 289.100 C 225.469 308.049, 173.509 326.972, 149.802 348.897 C 141.180 356.871, 137.992 362.776, 138.022 370.717 C 138.043 376.351, 140.905 385, 142.748 385 C 143.213 385, 145.373 383.179, 147.546 380.953 C 154.982 373.338, 174.595 361.132, 190.381 354.296 C 225.865 338.929, 278.058 326.018, 381.500 307.018 C 432.007 297.741, 448.724 294.408, 472.500 288.877 C 498.581 282.809, 499 282.700, 499 281.998 C 499 281.636, 493.938 280.113, 487.750 278.613 C 462.863 272.583, 442.310 270.525, 422 272.030 M 543 300.602 C 535.240 304.153, 517.673 310.329, 503.500 314.490 C 471.873 323.775, 448.030 328.927, 376 342.043 C 266.250 362.028, 231.401 371.244, 192.760 390.506 C 182.693 395.524, 168.587 404.241, 167.384 406.188 C 166.591 407.471, 170.391 410.265, 180.744 416.009 L 189.989 421.138 205.060 413.600 C 234.811 398.721, 273.193 389.041, 357.990 375.029 C 408.297 366.716, 434.966 361.405, 478.133 351.101 C 510.713 343.325, 546.972 332.055, 559.265 325.884 C 568.058 321.470, 578.081 314.753, 577.696 313.531 C 577.242 312.087, 553.151 300.093, 549.500 299.493 C 547.831 299.219, 544.948 299.711, 543 300.602 M 593 342.095 C 584.284 349.057, 561.279 360.769, 544.500 366.787 C 500.270 382.649, 453.902 393.415, 367 407.999 C 312.651 417.119, 297.476 420.087, 271.535 426.668 C 255.719 430.680, 232.971 437.798, 229.174 439.923 C 227.957 440.604, 253.646 452.792, 266.075 457.431 L 270.650 459.138 286.075 454.673 C 306.076 448.883, 319.240 445.975, 348 440.993 C 377.280 435.922, 436.396 425.068, 457 420.981 C 476.558 417.101, 488.125 414.208, 509.500 407.850 C 580.443 386.748, 612.750 363.409, 603.391 340.020 C 602.507 337.809, 601.494 336.023, 601.141 336.052 C 600.789 336.081, 597.125 338.800, 593 342.095 M 147.777 430.168 C 146.837 432.989, 148.527 437.318, 152.196 441.486 C 154.382 443.969, 156.704 446, 157.357 446 C 158.010 446, 160.238 444.604, 162.309 442.897 L 166.074 439.794 158.787 435.300 C 148.564 428.995, 148.222 428.835, 147.777 430.168 M 190.669 460.750 C 187.022 463.363, 184.029 465.768, 184.019 466.097 C 184.008 466.425, 190.336 470.210, 198.080 474.509 L 212.161 482.325 220.330 478.218 C 224.824 475.959, 229.837 473.609, 231.471 472.996 C 234.345 471.918, 233.864 471.622, 216.740 463.941 C 207.004 459.573, 198.647 456, 198.170 456 C 197.692 456, 194.317 458.137, 190.669 460.750 M 172.940 491.235 C 174.038 496.103, 175.737 498.841, 181.321 504.746 L 186.332 510.045 189.166 504.863 C 190.725 502.012, 192 499.560, 192 499.414 C 192 499.267, 189.412 497.691, 186.250 495.913 C 183.088 494.134, 178.631 491.609, 176.347 490.301 L 172.193 487.923 172.940 491.235" stroke="none" fill="#2c6cf4" fill-rule="evenodd"/></svg>