<svg id="Вариант_7" data-name="Вариант 7" xmlns="http://www.w3.org/2000/svg" width="3508" height="1140" viewBox="0 0 3508 1140">
  <defs>
    <style>
      .cls-1 {
        fill: #d62718;
      }

      .cls-1, .cls-2 {
        fill-rule: evenodd;
      }

      .cls-2 {
        fill: #2e2e2e;
      }
    </style>
  </defs>
  <path id="Δ" class="cls-1" d="M0,1140.01H976L499.12-.011H476.882Zm90.6-59.31L386.282,376.427,679.5,1080.7H90.6Z"/>
  <path id="ДЕЛЬТА_ГАРАНТ_основано_в_2015_г." data-name="ДЕЛЬТА ГАРАНТ основано в 2015 г." class="cls-2" d="M1294.91,480.066h-26.43V292H1125.01l-5.05,90.98q-2.28,50.682-9.93,73.882-7.635,23.205-25.06,23.2h-12.98v88.842h44.46V514.259h133.84v54.649h44.62V480.066ZM1167.63,326.348h56.38V480.066h-81.43q9.465-16.332,14.97-40.6t7.03-56.48Zm281.48,55.869H1366.6V326.348h97.78V292h-142.4V514.259h142.71V480.066H1366.6v-63.5h82.51V382.217ZM1531.18,292V393.208q0,49.613-7.18,68.235t-28.11,18.623h-6.11v34.193h6.57q40.485,0,59.97-28.316t19.48-92.735v-66.86h63.25V514.259h44.62V292H1531.18Zm245.42,0h-44.62V514.259h82.81q38.2,0,60.89-20.149t22.69-52.207q0-31.748-22.61-51.748t-60.97-20H1776.6V292Zm38.19,112.5q18.8,0,28.96,10.762t10.16,26.332q0,16.182-10.16,27.324t-28.96,11.144H1776.6V404.5h38.19ZM2076.4,292H1905.58v34.347h62.65V514.259h44.61V326.348h63.56V292Zm146.71,222.258h46.6L2195,292h-45.69l-75.02,222.258h46.6l14.98-47.932h72.12Zm-51.49-161.2h0.92l24.6,78.31h-50.27ZM2529.36,292H2384.37V514.259h44.61V326.348h100.38V292Zm136.63,222.258h46.6L2637.88,292h-45.69l-75.02,222.258h46.6l14.98-47.932h72.11Zm-51.49-161.2h0.92l24.6,78.31h-50.27Zm212.41,80.6q38.34,0,60.35-19.386t22-51.29q0-31.9-22-51.443T2826.91,292H2741.8V514.259h44.62v-80.6h40.49Zm-40.49-107.312h40.49q18.8,0,28.34,10.456t9.55,26.485q0,15.725-9.62,25.874t-28.27,10.151h-40.49V326.348Zm266.5,187.911h46.6L3024.8,292h-45.68L2904.1,514.259h46.6l14.97-47.932h72.12Zm-51.49-161.2h0.91l24.6,78.31h-50.27ZM3308.57,292h-44.62V387.56h-90.6V292h-44.62V514.259h44.62V421.906h90.6v92.353h44.62V292Zm199.42,0H3337.17v34.347h62.64V514.259h44.62V326.348h63.56V292ZM1076.35,803.05q0,20.877,11.31,33.41t30.15,12.534a41.359,41.359,0,0,0,21.76-5.671,37.426,37.426,0,0,0,14.48-16.027,52.905,52.905,0,0,0,5.06-23.507l-0.09-4.684q-0.9-19.151-12.13-30.739t-29.25-11.589a41.058,41.058,0,0,0-21.55,5.63,37.876,37.876,0,0,0-14.56,16.109,52.463,52.463,0,0,0-5.18,23.547v0.987Zm25.75-22.479a18.337,18.337,0,0,1,15.54-7.767,18.535,18.535,0,0,1,15.76,7.89q5.79,7.89,5.8,21.369,0,15.207-5.64,23.1-5.625,7.89-15.75,7.89t-15.8-7.767q-5.67-7.767-5.67-21.493Q1096.34,788.339,1102.1,780.571Zm99.6,45.368q-5.235-7.107-5.23-21.574v-3.206q0.09-14.3,5.35-21.328t14.97-7.027a16.8,16.8,0,0,1,12.46,4.931,18.258,18.258,0,0,1,5.23,12.575h18.84q-0.495-15.04-10.49-24.287t-25.87-9.246q-18.765,0-29.62,12.2t-10.86,32.506v2.055q0,21.288,10.94,33.369t29.62,12.082a39.267,39.267,0,0,0,17.93-4.192,33.93,33.93,0,0,0,13.16-11.383,29.293,29.293,0,0,0,5.19-15.493h-18.84a14.887,14.887,0,0,1-5.27,10.767,18.075,18.075,0,0,1-12.42,4.356Q1206.92,833.049,1201.7,825.939Zm146.32-67.518h-19.99v37.067H1293.4V758.421h-19.99V847.35h19.99V811.433h34.63V847.35h19.99V758.421Zm21.74,44.629q0,20.877,11.31,33.41t30.15,12.534a41.384,41.384,0,0,0,21.76-5.671,37.426,37.426,0,0,0,14.48-16.027,52.9,52.9,0,0,0,5.05-23.507l-0.08-4.684q-0.9-19.151-12.13-30.739t-29.25-11.589a41.058,41.058,0,0,0-21.55,5.63,37.813,37.813,0,0,0-14.56,16.109,52.33,52.33,0,0,0-5.18,23.547v0.987Zm25.74-22.479a19.567,19.567,0,0,1,31.31.123q5.79,7.89,5.8,21.369,0,15.207-5.64,23.1t-15.75,7.89q-10.125,0-15.8-7.767t-5.67-21.493Q1389.75,788.339,1395.5,780.571Zm121.36,66.779q17.19,0,26.37-6.493,9.165-6.492,9.17-18.9a18.485,18.485,0,0,0-5.1-12.986q-5.1-5.5-13.82-7.315,7.485-2.63,11.31-7.52a17.477,17.477,0,0,0,3.83-11.054q0-11.917-9.55-18.288t-27.8-6.369h-36.12V847.35h41.71Zm-0.08-37.89q15.63,0,15.63,11.1,0,11.014-15.38,11.013h-21.89V809.46h21.64Zm-21.64-35.177h17.36q16.125,0.33,16.13,10.849,0,10.029-17.03,10.027h-16.46V774.283Zm152.29,73.067v-1.4q-3.375-7.15-3.37-19.151V786.694q-0.24-14.218-9.54-22.068t-24.93-7.849a46.411,46.411,0,0,0-18.63,3.616,32.281,32.281,0,0,0-13.2,9.986,22.139,22.139,0,0,0-4.86,13.685h19.99a10.546,10.546,0,0,1,4.36-8.671q4.365-3.409,11.19-3.411,7.9,0,11.76,4.15t3.87,11.055v5.835h-12.26q-19.665,0-30.23,7.6t-10.57,21.821a24.438,24.438,0,0,0,8.47,18.9q8.475,7.644,21.89,7.644a31.127,31.127,0,0,0,23.36-9.945,30.787,30.787,0,0,0,2.3,8.3h20.4Zm-52.6-17.794a11.668,11.668,0,0,1-3.83-9.164,12.509,12.509,0,0,1,5.59-10.932q5.6-3.861,16.7-3.863h10.78v16.767a19.151,19.151,0,0,1-7.86,7.726,22.706,22.706,0,0,1-11.14,2.877Q1598.65,832.967,1594.83,829.556Zm149.78-71.135h-19.99v37.067h-34.64V758.421h-19.99V847.35h19.99V811.433h34.64V847.35h19.99V758.421Zm21.73,44.629q0,20.877,11.31,33.41t30.15,12.534a41.359,41.359,0,0,0,21.76-5.671,37.364,37.364,0,0,0,14.48-16.027,52.905,52.905,0,0,0,5.06-23.507l-0.08-4.684q-0.915-19.151-12.14-30.739t-29.24-11.589a41.094,41.094,0,0,0-21.56,5.63,37.876,37.876,0,0,0-14.56,16.109,52.463,52.463,0,0,0-5.18,23.547v0.987Zm25.75-22.479a19.558,19.558,0,0,1,31.3.123q5.8,7.89,5.8,21.369,0,15.207-5.63,23.1t-15.76,7.89q-10.11,0-15.79-7.767t-5.68-21.493Q1786.33,788.339,1792.09,780.571Zm167.53,66.779q17.19,0,26.36-6.493t9.17-18.9a18.485,18.485,0,0,0-5.1-12.986q-5.1-5.5-13.82-7.315,7.485-2.63,11.31-7.52a17.477,17.477,0,0,0,3.83-11.054q0-11.917-9.54-18.288t-27.81-6.369h-36.11V847.35h41.71Zm-0.09-37.89q15.63,0,15.63,11.1,0,11.014-15.38,11.013H1937.9V809.46h21.63Zm-21.63-35.177h17.36q16.11,0.33,16.12,10.849,0,10.029-17.03,10.027H1937.9V774.283Zm204.13,57.122h-55.61l29.29-31.314q11.505-12.492,16.57-22.315t5.06-18.78q0-15.451-10.08-24.2t-27.51-8.753a45.328,45.328,0,0,0-21.35,4.849,34.214,34.214,0,0,0-14.23,13.6,39.1,39.1,0,0,0-4.98,19.685h19.99q0-10.273,5.35-16.191t15.05-5.918q8.145,0,12.96,5.26t4.81,13.808a26.019,26.019,0,0,1-3.66,12.945q-3.66,6.453-12.3,16.068l-39.9,43.478V847.35h80.54V831.405Zm97.5-55.149q-0.24-25.068-9.91-37.643t-29.33-12.575q-19.83,0-29.49,12.9-9.675,12.9-9.67,38.711v20.712q0.255,25.069,10.08,37.848t29.25,12.781q19.74,0,29.41-13.11t9.66-38.916V776.256Zm-19.99,25.4q-0.24,16.194-4.85,23.794t-14.23,7.6q-10.05,0-14.73-8.219t-4.69-24.986V772.722q0.255-15.781,4.85-23.219,4.62-7.437,14.4-7.438,10.035,0,14.64,7.849,4.62,7.85,4.61,24.7v27.04Zm96.02-74.381h-2.55l-46.73,17.177v16.767l29.37-10V847.35h19.91V727.271Zm67.15,64.683a21.821,21.821,0,0,1,17.44-7.068q9.945,0,15.63,6.369,5.67,6.37,5.67,17.3,0,11.343-5.14,17.918t-14.35,6.575q-8.235,0-13.33-4.644t-6.25-13.356h-19.33q0.9,15.288,11.72,24.616t27.27,9.329q18.345,0,28.87-10.808t10.53-29.054q0-18.493-9.5-29.424t-26.61-10.932a37.011,37.011,0,0,0-18.76,4.768l3.29-28.6h47.72v-17.26h-64.33l-6.5,60.327Zm185.37-33.533h-58.57V847.35h19.91V774.53h38.66V758.421Zm19.43,71.053a11.022,11.022,0,0,0-3.04,7.931,10.4,10.4,0,0,0,3.13,7.808,11.607,11.607,0,0,0,8.47,3.041q5.595,0,8.64-3.082a10.6,10.6,0,0,0,3.04-7.767,10.981,10.981,0,0,0-3.04-7.931q-3.045-3.163-8.64-3.165C2592.4,826.309,2589.54,827.365,2587.51,829.474Z"/>
</svg>
