<svg id="ГАРАНТ_-_Группа_смарт-объектов" data-name="ГАРАНТ - Группа смарт-объектов" xmlns="http://www.w3.org/2000/svg" width="3086" height="583" viewBox="0 0 3086 583">
  <defs>
    <style>
      .cls-1 {
        fill: #a00b0b;
      }

      .cls-1, .cls-2, .cls-3 {
        fill-rule: evenodd;
      }

      .cls-2 {
        fill: #d62718;
      }

      .cls-3 {
        fill: #0036a7;
      }
    </style>
  </defs>
  <path id="Треугольник_5" data-name="Треугольник 5" class="cls-1" d="M334.5,4L669,583H0Z"/>
  <path id="Треугольник_5_копия_2" data-name="Треугольник 5 копия 2" class="cls-2" d="M334.5,4L669,583H334Z"/>
  <path id="ДЕЛЬТА" class="cls-3" d="M805.606,324.61h71.253v-57.5H1125.48v57.5h71.25V206.166h-38.69V2.626H861.919v98.9c0,56.73-9.96,88.162-21.07,104.645H805.606V324.61ZM1081.04,63.573V206.166H917.082c9.96-16.1,16.855-47.915,16.855-104.645V63.573h147.1ZM1264.55,2.626V267.113h281.18V210.766H1341.17V159.018h154.76V105.354H1341.17V58.973H1544.2V2.626H1264.55ZM1599,201.566v65.547h26.05c84.27,0,97.68-47.531,97.68-154.859V63.573h134.84v203.54h77V2.626H1650.71V112.254c0,62.1-5.36,89.312-40.99,89.312H1599ZM2021.17,2.626V267.113h219.12c67.8,0,98.83-34.115,98.83-92.379,0-59.8-31.03-93.912-98.83-93.912H2097.78V2.626h-76.61Zm240.57,176.708c0,17.632-9.96,29.515-34.48,29.515H2097.78V139.086h129.48c24.52,0,34.48,11.883,34.48,28.748v11.5ZM2473.22,63.573v203.54h76.99V63.573h126.8V2.626H2346.8V63.573h126.42ZM2794.25,2.626L2656.73,267.113h73.16l30.65-60.181H2922.2l31.03,60.181h79.29L2895.77,2.626H2794.25Zm47.5,46.381,52.87,103.878H2788.5Z"/>
  <path id="ГАРАНТ" class="cls-3" d="M819.3,406.889V583.16h51.062V447.508H989.587V406.889H819.3Zm247.123,0L974.769,583.16h48.761l20.43-40.108H1151.7l20.68,40.108h52.84l-91.14-176.271h-67.66Zm31.66,30.911,35.23,69.231h-70.72Zm165.17-30.911V583.16h51.06V530.789h94.46c45.7,0,66.89-23.247,66.89-63.355,0-38.064-21.19-60.545-66.89-60.545H1263.25Zm160.84,64.632c0,12.774-6.12,21.2-23.23,21.2h-86.55V444.953h86.55c16.59,0,23.23,8.686,23.23,20.437v6.131Zm147.81-64.632L1480.25,583.16h48.76l20.42-40.108h107.74l20.68,40.108h52.85l-91.14-176.271H1571.9Zm31.66,30.911,35.23,69.231h-70.72Zm165.17-30.911V583.16h51.06V512.651H1935.7V583.16h51.06V406.889H1935.7v65.143H1819.79V406.889h-51.06Zm345.66,40.619V583.16h51.32V447.508h84.51V406.889H2030.14v40.619h84.25Z"/>
</svg>
