<svg xmlns="http://www.w3.org/2000/svg" width="3379" height="867" viewBox="0 0 3379 867">
  <defs>
    <style>
      .cls-1 {
        fill: #d62718;
      }

      .cls-1, .cls-2 {
        fill-rule: evenodd;
      }

      .cls-2 {
        fill: #2e2e2e;
      }
    </style>
  </defs>
  <path id="Δ" class="cls-1" d="M0,867.009H742.005L379.455-.009H362.548ZM68.877,821.9L293.67,286.282,516.585,821.9H68.877Z"/>
  <path id="ДЕЛЬТА_ГАРАНТ_основан_в_2015_г." data-name="ДЕЛЬТА ГАРАНТ основан в 2015 г." class="cls-2" d="M990.084,342.237H963.792V155H821.085l-5.015,90.579q-2.28,50.459-9.879,73.557t-24.924,23.1H768.349v88.451h44.225V376.28H945.707v54.408h44.377V342.237ZM863.487,189.2h56.079V342.237h-81q9.421-16.26,14.894-40.426t6.991-56.232Zm295.533,55.624h-82.07V189.2h97.27V155H1032.58V376.28h141.94V342.237h-97.57V279.014h82.07v-34.2ZM1256.23,155V255.762q0,49.393-7.15,67.934t-27.96,18.541h-6.08V376.28h6.54q40.26,0,59.65-28.192t19.38-92.326V189.2h62.91V376.28h44.38V155H1256.23Zm259.67,0h-44.38V376.28h82.37q37.995,0,60.56-20.061t22.57-51.976q0-31.609-22.49-51.521t-60.64-19.909H1515.9V155Zm37.99,112.008q18.69,0,28.8,10.714t10.11,26.217q0,16.11-10.11,27.2t-28.8,11.094H1515.9V267.008h37.99ZM1829.67,155H1659.76V189.2h62.31V376.28h44.38V189.2h63.22V155Zm161.49,221.28h46.35L1963.2,155h-45.44l-74.63,221.28h46.36l14.89-47.721h71.74Zm-51.22-160.488h0.92l24.46,77.964h-50ZM2326.91,155H2182.68V376.28h44.38V189.2h99.85V155Zm151.46,221.28h46.35L2450.41,155h-45.44l-74.63,221.28h46.36l14.89-47.721h71.74Zm-51.22-160.488h0.92l24.46,77.964h-50ZM2654,296.036q38.145,0,60.03-19.3t21.88-51.065q0-31.762-21.88-51.216T2654,155h-84.65V376.28h44.37V296.036H2654ZM2613.72,189.2H2654q18.69,0,28.19,10.411t9.5,26.368q0,15.656-9.58,25.76T2654,261.841h-40.28V189.2ZM2894.36,376.28h46.36L2866.4,155h-45.44l-74.62,221.28h46.35l14.9-47.721h71.73Zm-51.21-160.488h0.91l24.47,77.964h-50ZM3164.22,155h-44.38v95.139h-90.12V155h-44.38V376.28h44.38V284.333h90.12V376.28h44.38V155Zm213.92,0H3208.23V189.2h62.31V376.28h44.38V189.2h63.22V155ZM773.425,660.464q0,23.163,12.538,37.067t33.42,13.906a45.809,45.809,0,0,0,24.119-6.292,41.449,41.449,0,0,0,16.048-17.781,58.7,58.7,0,0,0,5.608-26.08l-0.091-5.2q-1-21.246-13.45-34.1T819.2,609.126a45.483,45.483,0,0,0-23.89,6.246,41.96,41.96,0,0,0-16.141,17.873,58.184,58.184,0,0,0-5.744,26.124v1.1Zm28.541-24.94a21.669,21.669,0,0,1,34.7.137q6.428,8.754,6.428,23.708,0,16.872-6.246,25.624t-17.462,8.754q-11.217,0-17.508-8.617t-6.292-23.846Q795.583,644.142,801.966,635.524ZM921.7,685.859q-5.792-7.886-5.79-23.936v-3.557Q916,642.5,921.84,634.7t16.6-7.8a18.635,18.635,0,0,1,13.815,5.471,20.3,20.3,0,0,1,5.79,13.952h20.882q-0.548-16.687-11.626-26.946t-28.679-10.258q-20.79,0-32.827,13.541t-12.036,36.064v2.28q0,23.618,12.127,37.022t32.828,13.4a43.485,43.485,0,0,0,19.878-4.65,37.684,37.684,0,0,0,14.59-12.63,32.558,32.558,0,0,0,5.745-17.188H958.041a16.507,16.507,0,0,1-5.836,11.945,20.03,20.03,0,0,1-13.769,4.833Q927.493,693.747,921.7,685.859Zm171.527-74.91h-22.15v41.126h-38.39V610.949h-22.16v98.664h22.16V669.765h38.39v39.848h22.15V610.949Zm33.43,49.515q0,23.163,12.54,37.067t33.42,13.906a45.805,45.805,0,0,0,24.12-6.292,41.466,41.466,0,0,0,16.05-17.781,58.682,58.682,0,0,0,5.61-26.08l-0.09-5.2q-1-21.246-13.45-34.1t-32.42-12.857a45.476,45.476,0,0,0-23.89,6.246,41.964,41.964,0,0,0-16.14,17.873,58.173,58.173,0,0,0-5.75,26.124v1.1Zm28.54-24.94a21.672,21.672,0,0,1,34.7.137q6.435,8.754,6.43,23.708,0,16.872-6.25,25.624t-17.46,8.754q-11.22,0-17.51-8.617t-6.29-23.846Q1148.82,644.142,1155.2,635.524Zm143.86,74.089q19.065,0,29.23-7.2t10.16-20.973a20.511,20.511,0,0,0-5.65-14.408q-5.655-6.108-15.32-8.115,8.3-2.917,12.54-8.344a19.377,19.377,0,0,0,4.24-12.265q0-13.22-10.58-20.289t-30.82-7.067h-40.03v98.664h46.23Zm-0.09-42.037q17.325,0,17.32,12.31,0,12.221-17.05,12.22h-24.25v-24.53h23.98Zm-23.98-39.028h19.24q17.865,0.366,17.87,12.037,0,11.127-18.88,11.125h-18.23V628.548Zm178.14,81.065v-1.55q-3.735-7.933-3.74-21.246v-44.5q-0.27-15.775-10.58-24.484t-27.63-8.708a51.4,51.4,0,0,0-20.65,4.012,35.9,35.9,0,0,0-14.64,11.079,24.637,24.637,0,0,0-5.38,15.183h22.16a11.7,11.7,0,0,1,4.84-9.621q4.83-3.781,12.4-3.784,8.745,0,13.04,4.605,4.275,4.606,4.28,12.265v6.474h-13.58q-21.8,0-33.52,8.435t-11.71,24.21a27.135,27.135,0,0,0,9.39,20.973q9.39,8.48,24.26,8.48a34.475,34.475,0,0,0,25.89-11.034,33.877,33.877,0,0,0,2.56,9.21h22.61Zm-58.31-19.742a12.934,12.934,0,0,1-4.24-10.167,13.871,13.871,0,0,1,6.2-12.128q6.2-4.284,18.51-4.285h11.94v18.6a21.289,21.289,0,0,1-8.71,8.571,25.161,25.161,0,0,1-12.35,3.192Q1399.06,693.656,1394.82,689.871Zm175.36-78.922h-22.16v41.126h-38.39V610.949h-22.16v98.664h22.16V669.765h38.39v39.848h22.16V610.949Zm146,98.664q19.065,0,29.23-7.2t10.17-20.973a20.521,20.521,0,0,0-5.66-14.408q-5.655-6.108-15.32-8.115,8.31-2.917,12.54-8.344a19.377,19.377,0,0,0,4.24-12.265q0-13.22-10.57-20.289-10.59-7.065-30.83-7.067h-40.03v98.664h46.23Zm-0.09-42.037q17.325,0,17.33,12.31,0,12.221-17.05,12.22h-24.26v-24.53h23.98Zm-23.98-39.028h19.24q17.88,0.366,17.87,12.037,0,11.127-18.87,11.125h-18.24V628.548Zm244.95,63.375h-61.65l32.47-34.742q12.765-13.86,18.37-24.757t5.61-20.836q0-17.143-11.17-26.855t-30.5-9.711a50.24,50.24,0,0,0-23.67,5.38,38.05,38.05,0,0,0-15.77,15.091,43.412,43.412,0,0,0-5.52,21.839h22.16q0-11.4,5.93-17.963T1890,592.8q9.03,0,14.37,5.836t5.33,15.32a28.83,28.83,0,0,1-4.06,14.361q-4.05,7.161-13.63,17.827l-44.22,48.238v15.228h89.27v-17.69Zm117.41-61.186q-0.27-27.811-10.99-41.764t-32.51-13.951q-21.975,0-32.69,14.316t-10.71,42.949v22.979q0.27,27.813,11.17,41.992t32.42,14.179q21.885,0,32.59-14.544,10.725-14.544,10.72-43.177V630.737Zm-22.16,28.177q-0.27,17.964-5.38,26.4t-15.77,8.435q-11.13,0-16.33-9.119t-5.19-27.721V626.816q0.27-17.508,5.38-25.76t15.95-8.253q11.13,0,16.23,8.709t5.11,27.4v30Zm115.77-82.524h-2.83l-51.79,19.058v18.6l32.55-11.1V709.613h22.07V576.39Zm83.77,71.764a24.171,24.171,0,0,1,19.33-7.843q11.025,0,17.32,7.067t6.29,19.195q0,12.584-5.7,19.879t-15.91,7.295q-9.12,0-14.77-5.152t-6.93-14.818h-21.43q1,16.96,13,27.31t30.22,10.35q20.34,0,32.01-11.991t11.67-32.234q0-20.517-10.53-32.645t-29.5-12.128a41,41,0,0,0-20.79,5.289L2239.78,596h52.89V576.846h-71.31l-7.21,66.931ZM2456,610.949h-64.92v98.664h22.06V628.822H2456V610.949Zm30.88,78.831a12.2,12.2,0,0,0-3.38,8.8,11.564,11.564,0,0,0,3.47,8.662q3.465,3.375,9.39,3.374,6.195,0,9.57-3.419a11.769,11.769,0,0,0,3.38-8.617,12.2,12.2,0,0,0-3.38-8.8q-3.375-3.508-9.57-3.51C2492.29,686.27,2489.12,687.441,2486.88,689.78Z"/>
</svg>
