<svg xmlns="http://www.w3.org/2000/svg" width="1076" height="167" viewBox="0 0 1076 167">
  <defs>
    <style>
      .cls-1 {
        fill: #f0473b;
        stroke: #f0473b;
        stroke-linejoin: round;
        stroke-width: 2px;
        fill-rule: evenodd;
      }
    </style>
  </defs>
  <path id="ДЕЛЬТА_ГАРАНТ_Verdana_красная" data-name="ДЕЛЬТА  ГАРАНТ (Verdana) красная" class="cls-1" d="M81.324,115.915H73.733V45.223H26.246a185.164,185.164,0,0,1-4.173,40.622Q17.9,104.394,10.9,115.915H4.441v27.62H14.563v-18.36H71.2v18.36H81.324v-27.62Zm-60.139,0q6.352-10.283,10.337-26.247A173.556,173.556,0,0,0,36.26,54.483H63.072v61.432H21.185Zm136.786,0H115.814V86.141h42.157V76.666H115.814V54.7h42.157V45.223H105.154v80.168h52.817v-9.476Zm84.615-70.692h-49.7q-0.216,7.268-.511,15.99t-0.566,14q-0.754,16.206-2.557,24.982t-5.626,12.6a7.182,7.182,0,0,1-2.908,1.831,11.181,11.181,0,0,1-3.661.592q-0.807,0-1.615-.054c-0.538-.035-0.988-0.071-1.346-0.108h-0.754v10.338q0.646,0,2.262.08t2.745,0.081a18.086,18.086,0,0,0,6.38-1.023,16.509,16.509,0,0,0,5.3-3.392,29.723,29.723,0,0,0,4.495-5.2,30.392,30.392,0,0,0,3.527-7.726,70.81,70.81,0,0,0,2.557-12.222q1-7.43,1.427-18.952,0.162-4.576.458-10.418T202.959,54.7h28.966v70.692h10.661V45.223Zm77.238,62.75a13.15,13.15,0,0,1-4.415,4.927,17.251,17.251,0,0,1-6.756,2.692,65.608,65.608,0,0,1-11.011.7h-14.59V85.872h14.859a105.594,105.594,0,0,1,10.93.431,15.037,15.037,0,0,1,6.838,2.423,11.247,11.247,0,0,1,4.2,4.953,17.561,17.561,0,0,1,1.346,7.107A16.176,16.176,0,0,1,319.824,107.973ZM330.4,89.964a19.248,19.248,0,0,0-6.057-7.861,22.3,22.3,0,0,0-9.745-4.5,77.026,77.026,0,0,0-13.352-.942h-18.2V45.223H272.391v80.168h28.535a48.859,48.859,0,0,0,13.353-1.508,28.525,28.525,0,0,0,9.691-5.061,21.221,21.221,0,0,0,6.111-7.7,23.952,23.952,0,0,0,2.288-10.553A27.192,27.192,0,0,0,330.4,89.964Zm82.488-44.741H344.946V54.7h28.643v70.692h10.66V54.7h28.643V45.223Zm53.065,0H451.743l-29.181,80.168h10.822l7.86-22.344h34.673l7.861,22.344h11.36ZM444.475,93.894l14.106-39.357,14.052,39.357H444.475ZM661.439,45.223H609.645v80.168H620.3V54.7h41.134V45.223Zm52.957,0H700.182L671,125.391h10.822l7.86-22.344h34.673l7.861,22.344h11.36ZM692.914,93.894L707.02,54.537l14.052,39.357H692.914ZM813.951,57.875a21.647,21.647,0,0,0-7.08-7.645,27.53,27.53,0,0,0-8.883-3.8,52.793,52.793,0,0,0-12.222-1.211H764.015v80.168h10.66V95.51h10.66A41.921,41.921,0,0,0,799.6,93.437a26.641,26.641,0,0,0,9.8-6.219,23.667,23.667,0,0,0,5.195-7.888,25.874,25.874,0,0,0,1.858-9.88A23.934,23.934,0,0,0,813.951,57.875Zm-9.637,18.252a15.457,15.457,0,0,1-3.58,5.438,14.877,14.877,0,0,1-6.569,3.688,39.087,39.087,0,0,1-10.5,1.157h-8.991V54.376h10.553a40.049,40.049,0,0,1,8.372.727,17.807,17.807,0,0,1,5.895,2.4,12.1,12.1,0,0,1,4.415,5.007,16.7,16.7,0,0,1,1.454,7.215A18.45,18.45,0,0,1,804.314,76.127Zm68.49-30.9H858.59l-29.181,80.168h10.822l7.86-22.344h34.673l7.861,22.344h11.36ZM851.322,93.894l14.106-39.357L879.48,93.894H851.322ZM983.746,45.223h-10.66V76.666h-40V45.223h-10.66v80.168h10.66V86.141h40v39.25h10.66V45.223Zm86.984,0h-67.95V54.7h28.65v70.692h10.66V54.7h28.64V45.223Z"/>
</svg>
