<svg xmlns="http://www.w3.org/2000/svg" width="3506" height="867" viewBox="0 0 3506 867">
  <defs>
    <style>
      .cls-1 {
        fill: #d62718;
      }

      .cls-1, .cls-2 {
        fill-rule: evenodd;
      }

      .cls-2 {
        fill: #2e2e2e;
      }
    </style>
  </defs>
  <path id="Δ" class="cls-1" d="M0,867.009H742.005L379.455-.009H362.548ZM68.877,821.9L293.67,286.282,516.585,821.9H68.877Z"/>
  <path id="ДЕЛЬТА_ГАРАНТ_основан_в_2015_г." data-name="ДЕЛЬТА ГАРАНТ основан в 2015 г." class="cls-2" d="M1117.76,342.09h-26.3V155H948.746l-5.016,90.508q-2.28,50.419-9.879,73.5T908.924,342.09H896.005v88.381h44.229V376.106H1073.38v54.365h44.38V342.09ZM991.151,189.169h56.089V342.09H966.224q9.423-16.248,14.895-40.395t6.992-56.187Zm295.559,55.58h-82.07v-55.58h97.27V155H1160.26V376.106h141.95V342.09h-97.57V278.917h82.07V244.749ZM1383.92,155V255.682q0,49.356-7.14,67.881t-27.97,18.527h-6.07v34.016h6.53q40.275,0,59.66-28.17t19.38-92.254V189.169h62.92V376.106h44.38V155H1383.92Zm259.7,0h-44.39V376.106h82.38q38,0,60.57-20.045t22.57-51.936q0-31.584-22.49-51.48t-60.65-19.893h-37.99V155Zm37.99,111.92q18.705,0,28.81,10.706t10.1,26.2q0,16.1-10.1,27.183t-28.81,11.086h-37.99V266.92h37.99ZM1957.41,155H1787.49v34.169h62.32V376.106h44.38V189.169h63.22V155Zm161.51,221.106h46.36L2090.95,155h-45.44l-74.63,221.106h46.36l14.89-47.683h71.74ZM2067.7,215.744h0.91l24.47,77.9h-50ZM2454.7,155H2310.46V376.106h44.38V189.169h99.86V155Zm151.47,221.106h46.36L2578.2,155h-45.44l-74.63,221.106h46.36l14.89-47.683h71.74Zm-51.22-160.362h0.91l24.47,77.9h-50Zm226.86,80.181q38.145,0,60.04-19.286t21.88-51.024q0-31.739-21.88-51.177T2781.81,155h-84.66V376.106h44.38V295.925h40.28Zm-40.28-106.756h40.28q18.69,0,28.19,10.4t9.5,26.347q0,15.644-9.57,25.74t-28.12,10.1h-40.28V189.169ZM3022.2,376.106h46.36L2994.23,155h-45.44l-74.63,221.106h46.36l14.89-47.683h71.74Zm-51.22-160.362h0.91l24.47,77.9h-50ZM3292.07,155h-44.38v95.064h-90.13V155h-44.38V376.106h44.38V284.232h90.13v91.874h44.38V155Zm213.94,0H3336.09v34.169h62.32V376.106h44.38V189.169h63.22V155ZM901.081,660.066q0,23.145,12.54,37.039T947.043,711a45.848,45.848,0,0,0,24.121-6.287,41.437,41.437,0,0,0,16.05-17.768,58.6,58.6,0,0,0,5.609-26.059l-0.092-5.193q-1-21.23-13.451-34.077t-32.419-12.847a45.516,45.516,0,0,0-23.893,6.241,41.945,41.945,0,0,0-16.142,17.858,58.1,58.1,0,0,0-5.745,26.1v1.093Zm28.544-24.92a21.682,21.682,0,0,1,34.7.137q6.431,8.747,6.43,23.69,0,16.857-6.247,25.6t-17.464,8.747q-11.217,0-17.509-8.61t-6.293-23.827Q923.241,643.757,929.625,635.146Zm119.745,50.3q-5.79-7.881-5.79-23.918v-3.553q0.09-15.855,5.93-23.645t16.6-7.79A18.635,18.635,0,0,1,1079.92,632a20.239,20.239,0,0,1,5.79,13.94h20.89q-0.555-16.674-11.63-26.924t-28.68-10.25q-20.79,0-32.83,13.53t-12.04,36.036v2.278q0,23.6,12.13,36.993T1066.38,711a43.519,43.519,0,0,0,19.88-4.647,37.69,37.69,0,0,0,14.59-12.62,32.535,32.535,0,0,0,5.75-17.175h-20.89a16.5,16.5,0,0,1-5.83,11.936,20.051,20.051,0,0,1-13.77,4.829Q1055.16,693.323,1049.37,685.442Zm171.55-74.851h-22.16v41.093h-38.4V610.591H1138.2v98.586h22.16V669.36h38.4v39.817h22.16V610.591Zm33.43,49.475q0,23.145,12.54,37.039T1300.31,711a45.839,45.839,0,0,0,24.12-6.287,41.449,41.449,0,0,0,16.05-17.768,58.59,58.59,0,0,0,5.61-26.059l-0.09-5.193q-1.005-21.23-13.45-34.077t-32.42-12.847a45.5,45.5,0,0,0-23.89,6.241,41.963,41.963,0,0,0-16.15,17.858,58.093,58.093,0,0,0-5.74,26.1v1.093Zm28.54-24.92a21.683,21.683,0,0,1,34.7.137q6.435,8.747,6.43,23.69,0,16.857-6.24,25.6-6.255,8.748-17.47,8.747t-17.51-8.61q-6.285-8.61-6.29-23.827Q1276.51,643.757,1282.89,635.146Zm143.87,74.031q19.065,0,29.23-7.2t10.17-20.956a20.492,20.492,0,0,0-5.66-14.4q-5.655-6.1-15.32-8.11,8.295-2.915,12.54-8.337a19.352,19.352,0,0,0,4.24-12.255q0-13.209-10.58-20.273t-30.82-7.061h-40.03v98.586h46.23Zm-0.09-42q17.325,0,17.33,12.3,0,12.21-17.06,12.209h-24.25v-24.51h23.98Zm-23.98-39h19.24q17.865,0.366,17.87,12.027,0,11.118-18.87,11.116h-18.24V628.176Zm178.15,81v-1.549q-3.735-7.926-3.74-21.23V641.934q-0.27-15.762-10.57-24.464-10.32-8.7-27.64-8.7a51.415,51.415,0,0,0-20.65,4.009,35.885,35.885,0,0,0-14.64,11.07,24.543,24.543,0,0,0-5.38,15.171h22.16a11.7,11.7,0,0,1,4.83-9.613q4.845-3.78,12.41-3.781,8.745,0,13.04,4.6,4.275,4.6,4.28,12.255v6.469h-13.58q-21.795,0-33.52,8.428t-11.72,24.191a27.08,27.08,0,0,0,9.4,20.957q9.39,8.473,24.25,8.474a34.5,34.5,0,0,0,25.9-11.025,33.835,33.835,0,0,0,2.56,9.2h22.61Zm-58.32-19.726a12.954,12.954,0,0,1-4.24-10.159,13.865,13.865,0,0,1,6.21-12.119q6.195-4.281,18.51-4.282h11.94v18.587a21.249,21.249,0,0,1-8.7,8.565,25.245,25.245,0,0,1-12.36,3.189Q1526.77,693.232,1522.52,689.451Zm175.38-78.86h-22.16v41.093h-38.39V610.591h-22.16v98.586h22.16V669.36h38.39v39.817h22.16V610.591Zm146.02,98.586q19.065,0,29.23-7.2t10.17-20.956a20.492,20.492,0,0,0-5.66-14.4q-5.655-6.1-15.32-8.11,8.295-2.915,12.54-8.337a19.352,19.352,0,0,0,4.24-12.255q0-13.209-10.58-20.273t-30.82-7.061h-40.04v98.586h46.24Zm-0.09-42q17.325,0,17.33,12.3,0,12.21-17.06,12.209h-24.25v-24.51h23.98Zm-23.98-39h19.24q17.865,0.366,17.87,12.027,0,11.118-18.88,11.116h-18.23V628.176ZM2064.81,691.5h-61.65l32.47-34.715q12.765-13.848,18.37-24.738t5.61-20.819q0-17.13-11.17-26.834t-30.5-9.7a50.274,50.274,0,0,0-23.67,5.375,37.919,37.919,0,0,0-15.77,15.08,43.348,43.348,0,0,0-5.52,21.822h22.16q0-11.388,5.93-17.95t16.69-6.56q9.015,0,14.36,5.831,5.325,5.832,5.33,15.308a28.794,28.794,0,0,1-4.06,14.35q-4.05,7.155-13.63,17.813l-44.23,48.2v15.216h89.28V691.5Zm117.42-61.138q-0.27-27.789-10.99-41.731t-32.51-13.94q-21.975,0-32.69,14.3t-10.72,42.915v22.961q0.285,27.79,11.18,41.958T2138.92,711q21.885,0,32.6-14.533t10.71-43.143V630.363Zm-22.16,28.154q-0.27,17.952-5.38,26.378t-15.77,8.428q-11.13,0-16.33-9.111t-5.2-27.7V626.445q0.285-17.495,5.38-25.74,5.115-8.246,15.96-8.246,11.13,0,16.24,8.7t5.1,27.38v29.976Zm115.78-82.459h-2.82l-51.8,19.043v18.588l32.55-11.089V709.177h22.07V576.058Zm83.77,71.708a24.214,24.214,0,0,1,19.34-7.836q11.025,0,17.32,7.061t6.3,19.18q0,12.574-5.7,19.863t-15.92,7.289q-9.12,0-14.77-5.148t-6.93-14.806h-21.43q1.005,16.947,12.99,27.289T2381.05,711q20.34,0,32.01-11.982,11.685-11.981,11.68-32.209,0-20.5-10.54-32.619t-29.5-12.119a41.028,41.028,0,0,0-20.79,5.285l3.65-31.708h52.89V576.514h-71.31l-7.21,66.878Zm224.18-37.175h-64.93v98.586h22.07V628.449h42.86V610.591Zm30.88,78.769a12.182,12.182,0,0,0-3.38,8.792,11.55,11.55,0,0,0,3.47,8.656q3.465,3.372,9.39,3.372,6.2,0,9.58-3.417a11.787,11.787,0,0,0,3.37-8.611,12.215,12.215,0,0,0-3.37-8.792q-3.375-3.507-9.58-3.508C2620.09,685.852,2616.92,687.022,2614.68,689.36Z"/>
</svg>
