<?xml version="1.0" encoding="UTF-8"?> <svg xmlns="http://www.w3.org/2000/svg" xmlns:xlink="http://www.w3.org/1999/xlink" width="1076px" height="167px" style="shape-rendering:geometricPrecision; text-rendering:geometricPrecision; image-rendering:optimizeQuality; fill-rule:evenodd; clip-rule:evenodd"> <g> <path style="opacity:1" fill="#cf2925" d="M 578.5,23.5 C 743.5,23.5 908.5,23.5 1073.5,23.5C 1073.5,60.5 1073.5,97.5 1073.5,134.5C 908.5,134.5 743.5,134.5 578.5,134.5C 578.5,97.5 578.5,60.5 578.5,23.5 Z"></path> </g> <g> <path style="opacity:0.904" fill="#0e204c" d="M 25.5,36.5 C 41.5,36.5 57.5,36.5 73.5,36.5C 73.5,61.8333 73.5,87.1667 73.5,112.5C 77.1667,112.5 80.8333,112.5 84.5,112.5C 84.5,120.833 84.5,129.167 84.5,137.5C 81.8333,137.5 79.1667,137.5 76.5,137.5C 76.5,131.5 76.5,125.5 76.5,119.5C 55.5,119.5 34.5,119.5 13.5,119.5C 13.5,125.5 13.5,131.5 13.5,137.5C 11.1667,137.5 8.83333,137.5 6.5,137.5C 6.5,129.167 6.5,120.833 6.5,112.5C 9.57186,112.817 12.5719,112.484 15.5,111.5C 20.9707,101.918 24.1373,91.5848 25,80.5C 25.4999,65.8371 25.6666,51.1705 25.5,36.5 Z M 33.5,43.5 C 44.1667,43.5 54.8333,43.5 65.5,43.5C 65.5,66.5 65.5,89.5 65.5,112.5C 51.8293,112.667 38.1626,112.5 24.5,112C 28.3992,104.635 30.8992,96.8015 32,88.5C 33.3549,73.5363 33.8549,58.5363 33.5,43.5 Z"></path> </g> <g> <path style="opacity:0.91" fill="#0e204c" d="M 111.5,36.5 C 127.833,36.5 144.167,36.5 160.5,36.5C 160.5,38.8333 160.5,41.1667 160.5,43.5C 146.833,43.5 133.167,43.5 119.5,43.5C 119.5,53.8333 119.5,64.1667 119.5,74.5C 132.5,74.5 145.5,74.5 158.5,74.5C 158.5,76.8333 158.5,79.1667 158.5,81.5C 145.5,81.5 132.5,81.5 119.5,81.5C 119.5,91.8333 119.5,102.167 119.5,112.5C 133.167,112.5 146.833,112.5 160.5,112.5C 160.5,114.833 160.5,117.167 160.5,119.5C 144.167,119.5 127.833,119.5 111.5,119.5C 111.5,91.8333 111.5,64.1667 111.5,36.5 Z"></path> </g> <g> <path style="opacity:0.896" fill="#0e204c" d="M 200.5,36.5 C 216.5,36.5 232.5,36.5 248.5,36.5C 248.5,64.1667 248.5,91.8333 248.5,119.5C 245.833,119.5 243.167,119.5 240.5,119.5C 240.5,94.1667 240.5,68.8333 240.5,43.5C 229.833,43.5 219.167,43.5 208.5,43.5C 209.027,60.5778 208.193,77.5778 206,94.5C 205.019,103.802 201.186,111.635 194.5,118C 190.3,119.367 185.967,119.867 181.5,119.5C 181.5,117.167 181.5,114.833 181.5,112.5C 187.392,113.927 191.559,111.927 194,106.5C 197.401,97.8278 199.401,88.8278 200,79.5C 200.5,65.1705 200.667,50.8372 200.5,36.5 Z"></path> </g> <g> <path style="opacity:0.912" fill="#0e204c" d="M 281.5,36.5 C 284.167,36.5 286.833,36.5 289.5,36.5C 289.5,47.8333 289.5,59.1667 289.5,70.5C 300.505,70.3335 311.505,70.5002 322.5,71C 330.964,72.7975 336.131,77.9641 338,86.5C 339.336,95.1684 338.336,103.502 335,111.5C 332.313,115.194 328.813,117.694 324.5,119C 310.171,119.5 295.837,119.667 281.5,119.5C 281.5,91.8333 281.5,64.1667 281.5,36.5 Z M 289.5,77.5 C 300.578,77.0688 311.578,77.5688 322.5,79C 328.651,82.7046 331.318,88.2046 330.5,95.5C 330.986,103.036 327.986,108.536 321.5,112C 310.839,112.5 300.172,112.667 289.5,112.5C 289.5,100.833 289.5,89.1667 289.5,77.5 Z"></path> </g> <g> <path style="opacity:0.901" fill="#0e204c" d="M 349.5,36.5 C 370.5,36.5 391.5,36.5 412.5,36.5C 412.5,38.8333 412.5,41.1667 412.5,43.5C 403.5,43.5 394.5,43.5 385.5,43.5C 385.5,68.8333 385.5,94.1667 385.5,119.5C 382.833,119.5 380.167,119.5 377.5,119.5C 377.5,94.1667 377.5,68.8333 377.5,43.5C 368.167,43.5 358.833,43.5 349.5,43.5C 349.5,41.1667 349.5,38.8333 349.5,36.5 Z"></path> </g> <g> <path style="opacity:0.884" fill="#0e204c" d="M 451.5,36.5 C 455.106,36.2108 458.606,36.5442 462,37.5C 471.8,64.7586 481.3,92.0919 490.5,119.5C 487.552,119.777 484.719,119.444 482,118.5C 479.162,110.65 476.328,102.817 473.5,95C 462.167,94.3333 450.833,94.3333 439.5,95C 436.278,102.664 433.445,110.497 431,118.5C 428.281,119.444 425.448,119.777 422.5,119.5C 431.967,91.765 441.634,64.0983 451.5,36.5 Z M 455.5,45.5 C 456.117,45.6107 456.617,45.944 457,46.5C 461.641,60.0926 466.475,73.5926 471.5,87C 461.483,87.8322 451.483,87.6656 441.5,86.5C 446.573,72.9473 451.24,59.2806 455.5,45.5 Z"></path> </g> <g> <path style="opacity:1" fill="#e7a7a6" d="M 640.5,43.5 C 640.5,41.5 640.5,39.5 640.5,37.5C 626.167,37.5 611.833,37.5 597.5,37.5C 597.5,64.8333 597.5,92.1667 597.5,119.5C 596.502,92.005 596.169,64.3384 596.5,36.5C 611.5,36.5 626.5,36.5 641.5,36.5C 641.802,39.0593 641.468,41.3926 640.5,43.5 Z"></path> </g> <g> <path style="opacity:1" fill="#fefdfd" d="M 640.5,43.5 C 628.5,43.5 616.5,43.5 604.5,43.5C 604.5,68.8333 604.5,94.1667 604.5,119.5C 602.167,119.5 599.833,119.5 597.5,119.5C 597.5,92.1667 597.5,64.8333 597.5,37.5C 611.833,37.5 626.167,37.5 640.5,37.5C 640.5,39.5 640.5,41.5 640.5,43.5 Z"></path> </g> <g> <path style="opacity:1" fill="#fdf6f6" d="M 678.5,36.5 C 682.351,35.9709 685.851,36.6375 689,38.5C 698.599,65.1287 708.099,91.7954 717.5,118.5C 714.833,119.833 712.167,119.833 709.5,118.5C 706.79,110.201 703.79,102.035 700.5,94C 688.838,93.5001 677.171,93.3335 665.5,93.5C 663.028,102.249 660.361,110.916 657.5,119.5C 654.753,119.813 652.086,119.48 649.5,118.5C 659.568,91.2944 669.235,63.9611 678.5,36.5 Z"></path> </g> <g> <path style="opacity:1" fill="#e7a6a5" d="M 782.5,37.5 C 769.833,37.5 757.167,37.5 744.5,37.5C 744.5,64.8333 744.5,92.1667 744.5,119.5C 743.502,92.005 743.169,64.3384 743.5,36.5C 756.677,36.1712 769.677,36.5045 782.5,37.5 Z"></path> </g> <g> <path style="opacity:1" fill="#fdf8f8" d="M 782.5,37.5 C 790.67,38.8366 795.837,43.5033 798,51.5C 798.667,57.1667 798.667,62.8333 798,68.5C 795.833,76 791,80.8333 783.5,83C 772.839,83.4998 762.172,83.6665 751.5,83.5C 751.5,95.5 751.5,107.5 751.5,119.5C 749.167,119.5 746.833,119.5 744.5,119.5C 744.5,92.1667 744.5,64.8333 744.5,37.5C 757.167,37.5 769.833,37.5 782.5,37.5 Z"></path> </g> <g> <path style="opacity:1" fill="#fdf6f6" d="M 842.5,36.5 C 846.351,35.9709 849.851,36.6375 853,38.5C 862.599,65.1287 872.099,91.7954 881.5,118.5C 878.833,119.833 876.167,119.833 873.5,118.5C 870.79,110.201 867.79,102.035 864.5,94C 852.838,93.5001 841.171,93.3335 829.5,93.5C 827.028,102.249 824.361,110.916 821.5,119.5C 818.753,119.813 816.086,119.48 813.5,118.5C 823.568,91.2944 833.235,63.9611 842.5,36.5 Z"></path> </g> <g> <path style="opacity:1" fill="#e7a7a6" d="M 914.5,37.5 C 912.167,37.5 909.833,37.5 907.5,37.5C 907.5,64.8333 907.5,92.1667 907.5,119.5C 906.502,92.005 906.169,64.3384 906.5,36.5C 909.385,36.1936 912.052,36.5269 914.5,37.5 Z"></path> </g> <g> <path style="opacity:1" fill="#fefffe" d="M 914.5,37.5 C 914.5,49.8333 914.5,62.1667 914.5,74.5C 929.5,74.5 944.5,74.5 959.5,74.5C 959.5,62.1667 959.5,49.8333 959.5,37.5C 961.833,37.5 964.167,37.5 966.5,37.5C 966.5,64.8333 966.5,92.1667 966.5,119.5C 964.167,119.5 961.833,119.5 959.5,119.5C 959.5,106.5 959.5,93.5 959.5,80.5C 944.5,80.5 929.5,80.5 914.5,80.5C 914.5,93.5 914.5,106.5 914.5,119.5C 912.167,119.5 909.833,119.5 907.5,119.5C 907.5,92.1667 907.5,64.8333 907.5,37.5C 909.833,37.5 912.167,37.5 914.5,37.5 Z"></path> </g> <g> <path style="opacity:1" fill="#dd7674" d="M 959.5,37.5 C 961.948,36.5269 964.615,36.1936 967.5,36.5C 967.831,64.3384 967.498,92.005 966.5,119.5C 966.5,92.1667 966.5,64.8333 966.5,37.5C 964.167,37.5 961.833,37.5 959.5,37.5 Z"></path> </g> <g> <path style="opacity:1" fill="#fefdfd" d="M 1055.5,37.5 C 1055.5,39.5 1055.5,41.5 1055.5,43.5C 1046.17,43.5 1036.83,43.5 1027.5,43.5C 1027.5,68.8333 1027.5,94.1667 1027.5,119.5C 1025.17,119.5 1022.83,119.5 1020.5,119.5C 1020.5,94.1667 1020.5,68.8333 1020.5,43.5C 1011.68,42.5067 1002.68,42.1734 993.5,42.5C 993.5,40.8333 993.5,39.1667 993.5,37.5C 1014.17,37.5 1034.83,37.5 1055.5,37.5 Z"></path> </g> <g> <path style="opacity:1" fill="#efc2c2" d="M 1055.5,37.5 C 1034.83,37.5 1014.17,37.5 993.5,37.5C 993.5,39.1667 993.5,40.8333 993.5,42.5C 1002.68,42.1734 1011.68,42.5067 1020.5,43.5C 1011.17,43.5 1001.83,43.5 992.5,43.5C 992.5,41.1667 992.5,38.8333 992.5,36.5C 1013.67,36.1694 1034.67,36.5027 1055.5,37.5 Z"></path> </g> <g> <path style="opacity:1" fill="#cf2925" d="M 751.5,43.5 C 761.506,43.3335 771.506,43.5002 781.5,44C 788.755,46.6739 791.755,51.8406 790.5,59.5C 791.534,65.9068 789.534,71.0734 784.5,75C 773.578,76.4312 762.578,76.9312 751.5,76.5C 751.5,65.5 751.5,54.5 751.5,43.5 Z"></path> </g> <g> <path style="opacity:1" fill="#cf2d28" d="M 682.5,45.5 C 684.64,47.7005 686.14,50.3672 687,53.5C 690.84,64.5098 694.673,75.5098 698.5,86.5C 688.522,87.4985 678.522,87.8319 668.5,87.5C 672.961,73.4488 677.628,59.4488 682.5,45.5 Z"></path> </g> <g> <path style="opacity:1" fill="#cf2d28" d="M 846.5,45.5 C 848.64,47.7005 850.14,50.3672 851,53.5C 854.84,64.5098 858.673,75.5098 862.5,86.5C 852.522,87.4985 842.522,87.8319 832.5,87.5C 836.961,73.4488 841.628,59.4488 846.5,45.5 Z"></path> </g> </svg> 