<svg id="ГАРАНТ_-_Группа_смарт-объектов" data-name="ГАРАНТ - Группа смарт-объектов" xmlns="http://www.w3.org/2000/svg" width="3429" height="472" viewBox="0 0 3429 472">
  <defs>
    <style>
      .cls-1 {
        fill: #a00b0b;
      }

      .cls-1, .cls-2, .cls-3 {
        fill-rule: evenodd;
      }

      .cls-2 {
        fill: #d62718;
      }

      .cls-3 {
        fill: #0036a7;
      }
    </style>
  </defs>
  <path id="Треугольник_5" data-name="Треугольник 5" class="cls-1" d="M224,0L448,387H0Z"/>
  <path id="Треугольник_5_копия_2" data-name="Треугольник 5 копия 2" class="cls-2" d="M224,0L447.99,387H223.665Z"/>
  <path id="ДЕЛЬТА_ГАРАНТ" data-name="ДЕЛЬТА ГАРАНТ" class="cls-3" d="M653.166,387.018V344.166H792.239v42.852H842.01V296.962H821.89V121.538H660.225q-0.356,16.07-.706,31.637t-1.412,29.293q-1.059,18.416-2.647,33.31a185.511,185.511,0,0,1-5.118,28.122,134.521,134.521,0,0,1-10.06,26.112,147.3,147.3,0,0,1-18.179,26.95H603.4v90.056h49.771Zm48.358-121.19a207.153,207.153,0,0,0,7.942-36.324,341.431,341.431,0,0,0,2.647-44.693l0.353-15.734h49.77V296.962H687.051A139.983,139.983,0,0,0,701.524,265.828Zm348.746,78.338V293.949H954.963v-38.5h79.417V205.9H954.963V171.755H1047.8V121.538H894.251V344.166H1050.27Zm109.42-11.048q21.18-14.39,30.89-39.336t12.88-57.75q1.77-13.724,2.65-24.1t1.59-20.589q0.705-10.208,1.76-23.6h50.12V344.166h59.66V121.538H1154.4q-0.72,18.078-1.42,31.971t-1.58,26.113q-0.885,12.225-2.12,24.439t-2.65,26.95a154.67,154.67,0,0,1-6.35,31.971,52.073,52.073,0,0,1-16.59,24.271q-12.015,10.044-35.65,15.066l13.06,47.2Q1138.51,347.514,1159.69,333.118Zm318.74,11.048q42.36,0,64.24-18.078t21.89-51.556q0-18.078-7.24-32.306t-24.18-22.43q-16.935-8.2-46.94-8.2h-40.24V121.538h-60.71V344.166h93.18Zm-32.47-94.408h24.71q14.82,0,22.06,5.524t7.23,19.25a39.475,39.475,0,0,1-2.64,14.9,20.3,20.3,0,0,1-9.18,10.21q-6.54,3.688-17.83,3.683h-24.35V249.758Zm258.73,94.408V171.755h64.95V121.538H1581.5v50.217h62.83V344.166h60.36Zm129.55,0,15.88-47.539h70.6l15.88,47.539h64.24l-81.18-222.628h-67.78l-76.94,222.628h59.3ZM1884.36,175.1h1.76l24.36,79.342h-49.77Zm308.86,169.063V151.333h95.3V121.538H2156.86V344.166h36.36Zm140.48,0,22.59-63.273h86.84l23.29,63.273h38.12l-83.65-222.628h-42.01l-80.83,222.628h35.65ZM2399,152.672h0.71l35.65,101.438h-71.3Zm200.5,191.494V264.488h34.59q26.115,0,46.41-8.369t31.77-25.108q11.475-16.737,11.47-42.183,0-33.472-21.7-50.384-21.72-16.9-59.83-16.906h-79.07V344.166h36.36Zm0-195.176h23.29a208.352,208.352,0,0,1,26.48,1.506,61.083,61.083,0,0,1,20.12,5.859,28.115,28.115,0,0,1,12.7,13.056q4.245,8.71,4.24,23.435,0,16.07-7.06,25.945t-19.94,14.061q-12.9,4.19-29.83,4.185h-30V148.99Zm183.9,195.176,22.59-63.273h86.83l23.3,63.273h38.12l-83.66-222.628h-42l-80.83,222.628h35.65Zm65.3-191.494h0.71l35.65,101.438h-71.31Zm200.49,191.494v-100.1h110.13v100.1h36.36V121.538h-36.36v93.068H3049.19V121.538h-36.36V344.166h36.36Zm309.92,0V151.333H3429V121.538H3254.98v29.8h68.12V344.166h36.01Z"/>
</svg>
