<svg id="ГАРАНТ_-_Группа_смарт-объектов" data-name="ГАРАНТ - Группа смарт-объектов" xmlns="http://www.w3.org/2000/svg" width="2978" height="583" viewBox="0 0 2978 583">
  <defs>
    <style>
      .cls-1 {
        fill: #bc0f0f;
      }

      .cls-1, .cls-2, .cls-3 {
        fill-rule: evenodd;
      }

      .cls-2 {
        fill: #d62718;
      }

      .cls-3 {
        fill: #0036a7;
      }
    </style>
  </defs>
  <path id="Треугольник_5" data-name="Треугольник 5" class="cls-1" d="M334.5,4L669,583H0Z"/>
  <path id="Треугольник_5_копия_2" data-name="Треугольник 5 копия 2" class="cls-2" d="M334.5,4L669,583H334Z"/>
  <path id="ДЕЛЬТА" class="cls-3" d="M805.223,324.61h52.865v-57.5H1125.48v57.5h53.24V221.5H1140.8V2.626H863.451V96.155c0,69.38-11.492,105.795-24.134,125.343H805.223V324.61ZM1083.34,48.24V221.5H896.779c10.726-19.549,20.3-55.964,20.3-125.343V48.24H1083.34ZM1250,2.626V267.113h267.77V224.565h-210.7v-71.68h160.9V111.87h-160.9v-66.7h209.16V2.626H1250Zm319.12,215.806v48.681h18.77c75.46,0,88.1-45.231,88.1-153.326V48.24h155.53V267.113h57.08V2.626H1622.36V113.787c0,74.746-5.74,104.645-44.43,104.645h-8.81ZM1980.94,2.626V267.113h204.18c64.36,0,93.47-32.965,93.47-87.779,0-55.964-29.11-88.546-93.47-88.546h-147.1V2.626h-57.08ZM2221.13,184.7c0,23-11.87,38.332-45.58,38.332H2038.02V134.869h137.53c33.71,0,45.58,16.1,45.58,37.948V184.7ZM2405.41,48.24V267.113h57.46V48.24h127.95V2.626H2277.46V48.24h127.95ZM2708.82,2.626L2569.38,267.113h54.78l35.63-68.613h168.55l35.63,68.613h59.37L2784.67,2.626h-75.85Zm35.24,34.882L2806.5,157.1H2681.62Z"/>
  <path id="ГАРАНТ" class="cls-3" d="M805.787,406.389V582.66h52.35V447.008H980.373V406.389H805.787Zm253.363,0L965.18,582.66h49.99l20.94-40.108h110.46l21.2,40.108h54.18l-93.44-176.271h-69.36ZM1091.6,437.3l36.13,69.231h-72.51Zm169.34-30.911V582.66h52.35V530.289h96.84c46.86,0,68.58-23.247,68.58-63.355,0-38.064-21.72-60.545-68.58-60.545H1260.94Zm164.9,64.632c0,12.774-6.28,21.2-23.82,21.2h-88.73V444.453h88.73c17.01,0,23.82,8.686,23.82,20.437v6.131Zm151.54-64.632L1483.41,582.66h49.99l20.94-40.108H1664.8L1686,582.66h54.18l-93.44-176.271h-69.36Zm32.45,30.911,36.12,69.231h-72.5Zm169.34-30.911V582.66h52.35V512.151h118.83V582.66h52.35V406.389h-52.35v65.143H1831.52V406.389h-52.35Zm354.39,40.619V582.66h52.61V447.008h86.64V406.389H2047.18v40.619h86.38Z"/>
</svg>
