<svg xmlns="http://www.w3.org/2000/svg" width="556.75" height="168.25" viewBox="0 0 2227 673">
  <defs>
    <style>
      .cls-1 {
        fill: #0036a7;
        fill-rule: evenodd;
      }
    </style>
  </defs>
  <path id="ДЕЛЬТА" class="cls-1" d="M0.617,322.073H71.853V264.625H320.412v57.448h71.236V203.73H352.966V0.363H56.917V99.174c0,56.682-9.958,88.087-21.064,104.556H0.617V322.073ZM275.985,61.258V203.73H112.067c9.957-16.086,16.851-47.874,16.851-104.556V61.258H275.985Zm183.469-60.9V264.625H740.567v-56.3H536.052v-51.7H690.779V103H536.052V56.662H739.035V0.363H459.454ZM793.817,199.134v65.491H819.86c84.257,0,97.662-47.491,97.662-154.727V61.258H1052.33V264.625h76.98V0.363H845.52V109.9c0,62.044-5.362,89.236-40.979,89.236H793.817ZM1215.89,0.363V264.625h219.06c67.79,0,98.82-34.086,98.82-92.3,0-59.746-31.03-93.832-98.82-93.832H1292.48V0.363h-76.59ZM1456.4,176.92c0,17.618-9.96,29.491-34.47,29.491H1292.48v-69.7h129.45c24.51,0,34.47,11.872,34.47,28.724V176.92ZM1667.83,61.258V264.625h76.98V61.258h126.76V0.363H1541.44v60.9h126.39Zm320.95-60.9L1851.29,264.625h73.15l30.64-60.129H2116.7l31.02,60.129H2227L2090.27,0.363H1988.78ZM2036.27,46.7l52.85,103.789H1983.04Z"/>
  <path id="ГАРАНТ" class="cls-1" d="M14.313,496.338V672.53h51.07V536.939H184.632v-40.6H14.313Zm247.169,0L169.811,672.53h48.772l20.429-40.09H346.77l20.683,40.09h52.858l-91.16-176.192H261.482Zm31.664,30.9,35.238,69.2H257.652Zm165.2-30.9V672.53h51.07V620.183h94.48c45.708,0,66.9-23.237,66.9-63.327,0-38.047-21.194-60.518-66.9-60.518H458.342Zm160.871,64.6c0,12.767-6.129,21.194-23.237,21.194H509.412V534.385h86.564c16.6,0,23.237,8.682,23.237,20.428v6.129Zm147.834-64.6L675.376,672.53h48.772l20.428-40.09H852.334l20.683,40.09h52.858l-91.16-176.192H767.047Zm31.663,30.9,35.239,69.2H763.216Zm165.2-30.9V672.53h51.074V602.053h115.93V672.53h51.07V496.338h-51.07v65.114H1014.98V496.338H963.906Zm345.724,40.6V672.53h51.33V536.939h84.52v-40.6H1225.37v40.6h84.26Z"/>
</svg>
