<svg id="ГАРАНТ_-_Группа_смарт-объектов" data-name="ГАРАНТ - Группа смарт-объектов" xmlns="http://www.w3.org/2000/svg" width="3408" height="382" viewBox="0 0 3408 382">
  <defs>
    <style>
      .cls-1 {
        fill: #a00b0b;
      }

      .cls-1, .cls-2, .cls-3 {
        fill-rule: evenodd;
      }

      .cls-2 {
        fill: #d62718;
      }

      .cls-3 {
        fill: #0036a7;
      }
    </style>
  </defs>
  <path id="Треугольник_5" data-name="Треугольник 5" class="cls-1" d="M221,0L442,382H0Z"/>
  <path id="Треугольник_5_копия_2" data-name="Треугольник 5 копия 2" class="cls-2" d="M221,0L442,382H220.669Z"/>
  <path id="ДЕЛЬТА_ГАРАНТ" data-name="ДЕЛЬТА ГАРАНТ" class="cls-3" d="M632.166,342.018V299.166H771.24v42.852h49.77V251.962H800.89V76.538H639.225q-0.356,16.069-.706,31.637t-1.412,29.293q-1.059,18.416-2.647,33.31a185.488,185.488,0,0,1-5.118,28.122,134.521,134.521,0,0,1-10.06,26.112,147.3,147.3,0,0,1-18.179,26.95H582.4v90.056h49.771Zm48.358-121.19a207.153,207.153,0,0,0,7.942-36.324,341.431,341.431,0,0,0,2.647-44.693l0.353-15.734h49.77V251.962H666.052A140.024,140.024,0,0,0,680.524,220.828Zm348.746,78.338V248.949H933.963v-38.5h79.417V160.9H933.963V126.755H1026.8V76.538H873.251V299.166H1029.27Zm109.42-11.048q21.18-14.39,30.89-39.336t12.88-57.75q1.77-13.724,2.65-24.1t1.59-20.589q0.705-10.208,1.76-23.6h50.12V299.166h59.66V76.538H1133.4q-0.72,18.078-1.42,31.971t-1.58,26.113q-0.885,12.225-2.12,24.439t-2.65,26.95a154.67,154.67,0,0,1-6.35,31.971,52.073,52.073,0,0,1-16.59,24.271q-12.015,10.044-35.65,15.066l13.06,47.2Q1117.51,302.514,1138.69,288.118Zm318.74,11.048q42.36,0,64.24-18.078t21.89-51.556q0-18.078-7.24-32.306t-24.18-22.43q-16.935-8.2-46.94-8.2h-40.24V76.538h-60.71V299.166h93.18Zm-32.47-94.408h24.71q14.82,0,22.06,5.524t7.23,19.25a39.475,39.475,0,0,1-2.64,14.9,20.3,20.3,0,0,1-9.18,10.21q-6.54,3.688-17.83,3.683h-24.35V204.758Zm258.73,94.408V126.755h64.95V76.538H1560.5v50.217h62.83V299.166h60.36Zm129.55,0,15.88-47.539h70.6l15.88,47.539h64.24L1898.66,76.538h-67.78l-76.94,222.628h59.3ZM1863.36,130.1h1.76l24.36,79.342h-49.77Zm308.86,169.063V106.333h95.3V76.538H2135.86V299.166h36.36Zm140.48,0,22.59-63.273h86.84l23.29,63.273h38.12L2399.89,76.538h-42.01l-80.83,222.628h35.65ZM2378,107.672h0.71l35.65,101.438h-71.3Zm200.5,191.494V219.489h34.59q26.115,0,46.41-8.37t31.77-25.108q11.475-16.737,11.47-42.182,0-33.474-21.7-50.385-21.72-16.9-59.83-16.906h-79.07V299.166h36.36Zm0-195.176h23.29a208.352,208.352,0,0,1,26.48,1.506,61.083,61.083,0,0,1,20.12,5.859,28.115,28.115,0,0,1,12.7,13.056q4.245,8.71,4.24,23.435,0,16.07-7.06,25.945t-19.94,14.061q-12.9,4.19-29.83,4.185h-30V103.99Zm183.9,195.176,22.59-63.273h86.83l23.3,63.273h38.12L2849.58,76.538h-42l-80.83,222.628h35.65Zm65.3-191.494h0.71l35.65,101.438h-71.31Zm200.49,191.494v-100.1h110.13v100.1h36.36V76.538h-36.36v93.068H3028.19V76.538h-36.36V299.166h36.36Zm309.92,0V106.333H3408V76.538H3233.98v29.8h68.12V299.166h36.01Z"/>
</svg>
