<?xml version="1.0" encoding="UTF-8"?>
<!DOCTYPE svg PUBLIC "-//W3C//DTD SVG 1.1//EN" "http://www.w3.org/Graphics/SVG/1.1/DTD/svg11.dtd">
<svg xmlns="http://www.w3.org/2000/svg" version="1.1" width="512px" height="512px" style="shape-rendering:geometricPrecision; text-rendering:geometricPrecision; image-rendering:optimizeQuality; fill-rule:evenodd; clip-rule:evenodd" xmlns:xlink="http://www.w3.org/1999/xlink">
<g><path style="opacity:0.95" fill="#df9fa6" d="M 303.5,62.5 C 297.957,61.2153 292.623,61.8819 287.5,64.5C 265.5,52.1667 243.5,39.8333 221.5,27.5C 222.36,25.3862 224.027,24.2195 226.5,24C 230.926,23.2093 235.259,23.5427 239.5,25C 261.061,37.2743 282.394,49.7743 303.5,62.5 Z"/></g>
<g><path style="opacity:0.998" fill="#c77781" d="M 221.5,27.5 C 243.5,39.8333 265.5,52.1667 287.5,64.5C 281.194,68.806 275.861,74.1394 271.5,80.5C 266.094,74.7062 261.928,68.0395 259,60.5C 257.667,59.1667 256.333,59.1667 255,60.5C 251.729,70.5576 245.896,78.7243 237.5,85C 232.305,87.7602 227.305,90.7602 222.5,94C 236.179,100.176 246.512,110.009 253.5,123.5C 239.5,156.5 225.5,189.5 211.5,222.5C 189.81,210.569 168.31,198.236 147,185.5C 146.148,186.571 145.315,187.571 144.5,188.5C 162.371,143.752 180.538,99.0851 199,54.5C 203.711,43.0198 211.211,34.0198 221.5,27.5 Z"/></g>
<g><path style="opacity:1" fill="#efeded" d="M 271.5,80.5 C 276.596,86.3813 282.93,90.2146 290.5,92C 291.38,93.3561 291.714,94.8561 291.5,96.5C 274.389,101.111 263.389,111.944 258.5,129C 254.965,129.194 253.299,127.36 253.5,123.5C 246.512,110.009 236.179,100.176 222.5,94C 227.305,90.7602 232.305,87.7602 237.5,85C 245.896,78.7243 251.729,70.5576 255,60.5C 256.333,59.1667 257.667,59.1667 259,60.5C 261.928,68.0395 266.094,74.7062 271.5,80.5 Z"/></g>
<g><path style="opacity:0.994" fill="#d43325" d="M 303.5,62.5 C 306.056,63.5434 308.223,65.2101 310,67.5C 360.287,130.789 410.954,193.789 462,256.5C 466.421,282.823 456.587,301.99 432.5,314C 334.003,370.747 235.67,427.747 137.5,485C 132.053,488.12 126.387,488.787 120.5,487C 119.058,486.623 118.058,485.79 117.5,484.5C 111.266,474.473 110.933,464.14 116.5,453.5C 148.755,376.735 180.421,299.735 211.5,222.5C 225.5,189.5 239.5,156.5 253.5,123.5C 253.299,127.36 254.965,129.194 258.5,129C 263.389,111.944 274.389,101.111 291.5,96.5C 291.714,94.8561 291.38,93.3561 290.5,92C 282.93,90.2146 276.596,86.3813 271.5,80.5C 275.861,74.1394 281.194,68.806 287.5,64.5C 292.623,61.8819 297.957,61.2153 303.5,62.5 Z"/></g>
<g><path style="opacity:1" fill="#ede5e5" d="M 294.5,97.5 C 301.191,96.4286 306.358,98.7619 310,104.5C 352.333,156.833 394.667,209.167 437,261.5C 441.292,267.884 441.626,274.551 438,281.5C 434.224,290.276 428.058,296.776 419.5,301C 333.965,350.933 248.298,400.6 162.5,450C 154.316,451.824 149.149,448.657 147,440.5C 146.371,435.672 147.038,431.005 149,426.5C 192.781,320.27 237.115,214.27 282,108.5C 285.767,104.224 289.934,100.557 294.5,97.5 Z"/></g>
<g><path style="opacity:1" fill="#d43225" d="M 295.5,105.5 C 299.664,105.143 302.831,106.81 305,110.5C 347,163.167 389,215.833 431,268.5C 433.48,280.376 429.314,289.21 418.5,295C 331.794,345.353 244.794,395.186 157.5,444.5C 155.305,442.941 154.305,440.774 154.5,438C 154.967,433.633 156.133,429.466 158,425.5C 201.138,321.086 244.471,216.752 288,112.5C 290.396,109.933 292.896,107.6 295.5,105.5 Z"/></g>
<g><path style="opacity:1" fill="#c9c6c6" d="M 319.5,162.5 C 312.135,161.765 306.301,164.432 302,170.5C 299.752,173.328 297.752,176.328 296,179.5C 294.801,182.726 294.301,186.059 294.5,189.5C 289.932,187.597 285.598,185.264 281.5,182.5C 282.389,171.75 287.056,162.917 295.5,156C 299.375,154.48 303.375,154.146 307.5,155C 311.429,157.788 315.429,160.288 319.5,162.5 Z"/></g>
<g><path style="opacity:1" fill="#efeded" d="M 319.5,162.5 C 323.255,164.675 324.921,168.009 324.5,172.5C 322.066,209.176 319.566,245.842 317,282.5C 315.328,291.071 310.494,294.404 302.5,292.5C 299.834,258.17 297.167,223.836 294.5,189.5C 294.301,186.059 294.801,182.726 296,179.5C 297.752,176.328 299.752,173.328 302,170.5C 306.301,164.432 312.135,161.765 319.5,162.5 Z"/></g>
<g><path style="opacity:1" fill="#b7b4b4" d="M 281.5,182.5 C 285.598,185.264 289.932,187.597 294.5,189.5C 297.167,223.836 299.834,258.17 302.5,292.5C 298.861,290.345 295.194,288.178 291.5,286C 290.107,284.829 289.273,283.329 289,281.5C 286.525,248.492 284.025,215.492 281.5,182.5 Z"/></g>
<g><path style="opacity:1" fill="#df9ea5" d="M 211.5,222.5 C 180.421,299.735 148.755,376.735 116.5,453.5C 94.5788,440.374 72.2455,428.04 49.5,416.5C 81.1848,340.429 112.852,264.429 144.5,188.5C 145.315,187.571 146.148,186.571 147,185.5C 168.31,198.236 189.81,210.569 211.5,222.5 Z"/></g>
<g><path style="opacity:1" fill="#a9a6a6" d="M 316.5,303.5 C 309.816,303.763 304.649,306.763 301,312.5C 294.844,320.393 294.011,328.726 298.5,337.5C 293.041,335.025 288.207,331.691 284,327.5C 282.506,314.312 287.339,304.145 298.5,297C 305.65,296.079 311.65,298.245 316.5,303.5 Z"/></g>
<g><path style="opacity:1" fill="#eeecec" d="M 316.5,303.5 C 320.079,303.911 322.246,305.911 323,309.5C 324.118,321.095 319.952,330.262 310.5,337C 306.51,338.67 302.51,338.836 298.5,337.5C 294.011,328.726 294.844,320.393 301,312.5C 304.649,306.763 309.816,303.763 316.5,303.5 Z"/></g>
<g><path style="opacity:0.993" fill="#c77781" d="M 49.5,416.5 C 72.2455,428.04 94.5788,440.374 116.5,453.5C 110.933,464.14 111.266,474.473 117.5,484.5C 95.7396,472.59 74.0729,460.423 52.5,448C 49.8941,446.062 48.0608,443.562 47,440.5C 45.9142,432.272 46.7475,424.272 49.5,416.5 Z"/></g>
</svg>
