<?xml version="1.0" encoding="UTF-8"?>
<!DOCTYPE svg PUBLIC "-//W3C//DTD SVG 1.1//EN" "http://www.w3.org/Graphics/SVG/1.1/DTD/svg11.dtd">
<svg xmlns="http://www.w3.org/2000/svg" version="1.1" width="512px" height="512px" style="shape-rendering:geometricPrecision; text-rendering:geometricPrecision; image-rendering:optimizeQuality; fill-rule:evenodd; clip-rule:evenodd" xmlns:xlink="http://www.w3.org/1999/xlink">
<g><path style="opacity:1" fill="#0e214c" d="M 115.5,-0.5 C 181.167,-0.5 246.833,-0.5 312.5,-0.5C 319.789,1.59524 325.956,5.59524 331,11.5C 368.667,55.8333 406.333,100.167 444,144.5C 445.197,147.089 446.197,149.756 447,152.5C 447.667,254.833 447.667,357.167 447,459.5C 440.23,487.77 422.73,505.104 394.5,511.5C 301.833,511.5 209.167,511.5 116.5,511.5C 88.2965,505.13 70.7965,487.797 64,459.5C 63.3333,323.5 63.3333,187.5 64,51.5C 70.6811,23.6527 87.8478,6.31934 115.5,-0.5 Z M 127.5,106.5 C 177.167,106.5 226.833,106.5 276.5,106.5C 276.5,113.5 276.5,120.5 276.5,127.5C 226.833,127.5 177.167,127.5 127.5,127.5C 127.5,120.5 127.5,113.5 127.5,106.5 Z M 127.5,170.5 C 205.5,170.5 283.5,170.5 361.5,170.5C 361.5,177.5 361.5,184.5 361.5,191.5C 283.5,191.5 205.5,191.5 127.5,191.5C 127.5,184.5 127.5,177.5 127.5,170.5 Z M 127.5,234.5 C 198.5,234.5 269.5,234.5 340.5,234.5C 340.5,241.5 340.5,248.5 340.5,255.5C 269.5,255.5 198.5,255.5 127.5,255.5C 127.5,248.5 127.5,241.5 127.5,234.5 Z M 127.5,298.5 C 212.833,298.5 298.167,298.5 383.5,298.5C 383.5,305.5 383.5,312.5 383.5,319.5C 298.167,319.5 212.833,319.5 127.5,319.5C 127.5,312.5 127.5,305.5 127.5,298.5 Z M 127.5,362.5 C 191.5,362.5 255.5,362.5 319.5,362.5C 319.5,369.5 319.5,376.5 319.5,383.5C 255.5,383.5 191.5,383.5 127.5,383.5C 127.5,376.5 127.5,369.5 127.5,362.5 Z"/></g>
<g><path style="opacity:0.64" fill="#0053a0" d="M 127.5,170.5 C 205.665,169.501 283.998,169.167 362.5,169.5C 362.825,177.019 362.492,184.352 361.5,191.5C 361.5,184.5 361.5,177.5 361.5,170.5C 283.5,170.5 205.5,170.5 127.5,170.5 Z"/></g>
</svg>
