<?xml version="1.0" encoding="UTF-8"?>
<!DOCTYPE svg PUBLIC "-//W3C//DTD SVG 1.1//EN" "http://www.w3.org/Graphics/SVG/1.1/DTD/svg11.dtd">
<svg xmlns="http://www.w3.org/2000/svg" version="1.1" width="512px" height="512px" style="shape-rendering:geometricPrecision; text-rendering:geometricPrecision; image-rendering:optimizeQuality; fill-rule:evenodd; clip-rule:evenodd" xmlns:xlink="http://www.w3.org/1999/xlink">
<g><path style="opacity:0.979" fill="#000000" d="M 239.5,-0.5 C 248.5,-0.5 257.5,-0.5 266.5,-0.5C 348.149,5.5707 414.649,40.2374 466,103.5C 492.533,139.932 507.7,180.599 511.5,225.5C 511.5,239.833 511.5,254.167 511.5,268.5C 507.966,305.736 492.966,337.569 466.5,364C 436.299,390.041 401.966,397.707 363.5,387C 354.57,383.077 347.07,377.244 341,369.5C 307.058,394.863 268.891,405.03 226.5,400C 183.672,394.846 149.172,375.346 123,341.5C 93.3575,295.704 88.6908,247.37 109,196.5C 131.18,150.009 167.68,121.843 218.5,112C 263.557,104.739 304.224,114.739 340.5,142C 354.829,142.5 369.163,142.667 383.5,142.5C 383.333,203.168 383.5,263.834 384,324.5C 384.19,328.188 385.024,331.688 386.5,335C 410.282,336.193 428.449,326.693 441,306.5C 451.709,288.164 456.542,268.331 455.5,247C 454.734,182.795 428.401,132.128 376.5,95C 311.834,51.8745 243.501,44.8745 171.5,74C 106.866,107.007 68.6989,159.507 57,231.5C 50.4411,313.204 80.6078,377.371 147.5,424C 202.141,456.872 259.808,463.538 320.5,444C 333.045,439.393 345.045,433.726 356.5,427C 357.784,426.316 358.951,426.483 360,427.5C 368.748,442.666 377.748,457.666 387,472.5C 387.749,473.635 387.583,474.635 386.5,475.5C 348.952,497.242 308.618,509.242 265.5,511.5C 257.5,511.5 249.5,511.5 241.5,511.5C 147.749,503.729 77.2489,459.396 30,378.5C 13.4411,347.333 3.27443,314.333 -0.5,279.5C -0.5,264.5 -0.5,249.5 -0.5,234.5C 10.2456,144.784 54.2456,76.9504 131.5,31C 165.363,12.7059 201.363,2.2059 239.5,-0.5 Z M 245.5,165.5 C 279.825,166.741 306.658,181.408 326,209.5C 326.667,240.833 326.667,272.167 326,303.5C 298.354,339.829 262.187,352.329 217.5,341C 170.235,324.662 149.068,291.496 154,241.5C 162.382,201.451 186.549,176.951 226.5,168C 232.977,167.138 239.311,166.305 245.5,165.5 Z"/></g>
</svg>
