<?xml version="1.0" encoding="UTF-8"?>
<!DOCTYPE svg PUBLIC "-//W3C//DTD SVG 1.1//EN" "http://www.w3.org/Graphics/SVG/1.1/DTD/svg11.dtd">
<svg xmlns="http://www.w3.org/2000/svg" version="1.1" width="512px" height="512px" style="shape-rendering:geometricPrecision; text-rendering:geometricPrecision; image-rendering:optimizeQuality; fill-rule:evenodd; clip-rule:evenodd" xmlns:xlink="http://www.w3.org/1999/xlink">
<g><path style="opacity:0.985" fill="#e8eceb" d="M 279.5,43.5 C 292.504,56.1916 302.504,70.8582 309.5,87.5C 310.841,92.5195 312.175,97.5195 313.5,102.5C 313.5,105.167 313.5,107.833 313.5,110.5C 315.323,122.024 312.323,132.024 304.5,140.5C 304.44,139.957 304.107,139.624 303.5,139.5C 301.142,141.678 298.475,143.345 295.5,144.5C 295.062,144.565 294.728,144.399 294.5,144C 298.428,140.312 300.928,135.812 302,130.5C 304.519,94.3719 291.019,65.8719 261.5,45C 252.271,38.7961 242.271,36.9628 231.5,39.5C 240.941,31.315 251.607,29.4817 263.5,34C 269.242,36.5967 274.576,39.7634 279.5,43.5 Z"/></g>
<g><path style="opacity:0.986" fill="#fe5230" d="M 350.5,67.5 C 348.473,67.3379 346.473,67.5045 344.5,68C 332.779,74.5242 321.112,81.0242 309.5,87.5C 302.504,70.8582 292.504,56.1916 279.5,43.5C 282.598,41.1084 285.931,38.9417 289.5,37C 291.754,35.8495 294.087,35.5162 296.5,36C 314.727,46.2742 332.727,56.7742 350.5,67.5 Z"/></g>
<g><path style="opacity:0.984" fill="#b2afae" d="M 295.5,144.5 C 293.928,145.687 292.261,146.687 290.5,147.5C 289.624,147.631 288.957,147.298 288.5,146.5C 287.428,144.283 286.761,141.95 286.5,139.5C 288.067,136.786 288.733,134.119 288.5,131.5C 288.369,132.376 288.702,133.043 289.5,133.5C 292.358,129.444 294.358,124.944 295.5,120C 295.43,119.235 295.097,118.735 294.5,118.5C 295.72,116.716 295.72,115.05 294.5,113.5C 296.178,110.69 295.845,108.357 293.5,106.5C 294.773,103.603 294.439,100.937 292.5,98.5C 287.55,81.4306 278.217,67.2639 264.5,56C 262.975,54.9914 261.308,54.4914 259.5,54.5C 254.95,50.7564 249.617,48.7564 243.5,48.5C 242.075,48.6233 240.742,48.9566 239.5,49.5C 239.44,48.9569 239.107,48.6236 238.5,48.5C 227.544,54.0703 222.544,63.0703 223.5,75.5C 221.365,77.0709 219.032,78.4043 216.5,79.5C 214.276,68.291 215.776,57.6243 221,47.5C 223.828,43.8252 227.328,41.1585 231.5,39.5C 242.271,36.9628 252.271,38.7961 261.5,45C 291.019,65.8719 304.519,94.3719 302,130.5C 300.928,135.812 298.428,140.312 294.5,144C 294.728,144.399 295.062,144.565 295.5,144.5 Z M 259.5,54.5 C 251.167,59.1667 242.833,63.8333 234.5,68.5C 234.141,61.6025 235.807,55.2692 239.5,49.5C 240.742,48.9566 242.075,48.6233 243.5,48.5C 249.617,48.7564 254.95,50.7564 259.5,54.5 Z"/></g>
<g><path style="opacity:0.955" fill="#e7e5e3" d="M 239.5,49.5 C 235.807,55.2692 234.141,61.6025 234.5,68.5C 231.039,71.0692 227.372,73.4026 223.5,75.5C 222.544,63.0703 227.544,54.0703 238.5,48.5C 239.107,48.6236 239.44,48.9569 239.5,49.5 Z"/></g>
<g><path style="opacity:0.995" fill="#fe5230" d="M 259.5,54.5 C 261.308,54.4914 262.975,54.9914 264.5,56C 278.217,67.2639 287.55,81.4306 292.5,98.5C 242.698,126.569 193.031,154.902 143.5,183.5C 136.376,166.24 126.043,151.24 112.5,138.5C 147.15,118.861 181.816,99.1945 216.5,79.5C 219.032,78.4043 221.365,77.0709 223.5,75.5C 227.372,73.4026 231.039,71.0692 234.5,68.5C 242.833,63.8333 251.167,59.1667 259.5,54.5 Z"/></g>
<g><path style="opacity:0.998" fill="#f3462f" d="M 350.5,67.5 C 351.794,68.2899 352.961,69.2899 354,70.5C 354.5,89.1637 354.667,107.83 354.5,126.5C 265.194,177.822 175.861,229.155 86.5,280.5C 86.1667,280.5 85.8333,280.5 85.5,280.5C 85.3334,262.497 85.5001,244.497 86,226.5C 87.0769,221.177 89.5769,216.677 93.5,213C 104.528,206.489 115.528,199.989 126.5,193.5C 127.768,195.905 128.435,198.572 128.5,201.5C 115.482,212.201 110.316,225.868 113,242.5C 114.406,245.409 116.572,247.409 119.5,248.5C 123.856,252.56 128.856,253.393 134.5,251C 148.599,242.984 156.266,230.818 157.5,214.5C 157.854,206.856 154.521,201.522 147.5,198.5C 146.209,193.606 144.876,188.606 143.5,183.5C 193.031,154.902 242.698,126.569 292.5,98.5C 294.439,100.937 294.773,103.603 293.5,106.5C 280.04,117.724 275.54,131.724 280,148.5C 281.129,150.141 282.629,151.141 284.5,151.5C 285.749,153.136 287.416,154.303 289.5,155C 297.374,156.564 304.041,154.397 309.5,148.5C 319.626,138.625 324.126,126.625 323,112.5C 321.707,107.374 318.54,104.04 313.5,102.5C 312.175,97.5195 310.841,92.5195 309.5,87.5C 321.112,81.0242 332.779,74.5242 344.5,68C 346.473,67.5045 348.473,67.3379 350.5,67.5 Z"/></g>
<g><path style="opacity:1" fill="#cdc8c7" d="M 313.5,102.5 C 318.54,104.04 321.707,107.374 323,112.5C 324.126,126.625 319.626,138.625 309.5,148.5C 304.041,154.397 297.374,156.564 289.5,155C 287.416,154.303 285.749,153.136 284.5,151.5C 280.697,136.915 284.031,124.248 294.5,113.5C 295.72,115.05 295.72,116.716 294.5,118.5C 291.692,122.45 289.692,126.783 288.5,131.5C 288.733,134.119 288.067,136.786 286.5,139.5C 286.761,141.95 287.428,144.283 288.5,146.5C 288.957,147.298 289.624,147.631 290.5,147.5C 293.658,150.812 297.325,151.312 301.5,149C 315.056,140.389 320.223,128.222 317,112.5C 316.184,111.177 315.017,110.511 313.5,110.5C 313.5,107.833 313.5,105.167 313.5,102.5 Z"/></g>
<g><path style="opacity:1" fill="#fef7f7" d="M 293.5,106.5 C 295.845,108.357 296.178,110.69 294.5,113.5C 284.031,124.248 280.697,136.915 284.5,151.5C 282.629,151.141 281.129,150.141 280,148.5C 275.54,131.724 280.04,117.724 293.5,106.5 Z"/></g>
<g><path style="opacity:1" fill="#fdfcfc" d="M 313.5,110.5 C 315.017,110.511 316.184,111.177 317,112.5C 320.223,128.222 315.056,140.389 301.5,149C 297.325,151.312 293.658,150.812 290.5,147.5C 295.981,146.76 300.648,144.426 304.5,140.5C 312.323,132.024 315.323,122.024 313.5,110.5 Z"/></g>
<g><path style="opacity:1" fill="#2f2e2d" d="M 294.5,118.5 C 295.097,118.735 295.43,119.235 295.5,120C 294.358,124.944 292.358,129.444 289.5,133.5C 288.702,133.043 288.369,132.376 288.5,131.5C 289.692,126.783 291.692,122.45 294.5,118.5 Z"/></g>
<g><path style="opacity:0.997" fill="#e9eeee" d="M 354.5,126.5 C 355.225,166.496 355.559,206.496 355.5,246.5C 315.275,277.775 289.608,318.442 278.5,368.5C 214.527,405.488 150.527,442.488 86.5,479.5C 85.8933,479.376 85.56,479.043 85.5,478.5C 85.1704,412.429 85.5037,346.429 86.5,280.5C 175.861,229.155 265.194,177.822 354.5,126.5 Z"/></g>
<g><path style="opacity:0.987" fill="#e9ecec" d="M 112.5,138.5 C 126.043,151.24 136.376,166.24 143.5,183.5C 144.876,188.606 146.209,193.606 147.5,198.5C 147.5,201.167 147.5,203.833 147.5,206.5C 147.557,207.609 147.89,208.609 148.5,209.5C 147.396,214.353 146.396,219.353 145.5,224.5C 144.101,229.634 141.435,233.967 137.5,237.5C 137.44,236.957 137.107,236.624 136.5,236.5C 134.971,237.763 133.305,238.763 131.5,239.5C 131.062,239.565 130.728,239.399 130.5,239C 136.877,229.452 139.043,218.952 137,207.5C 132.385,179.409 118.552,157.242 95.5,141C 86.2838,134.793 76.2838,132.959 65.5,135.5C 75.8081,126.957 87.1414,125.457 99.5,131C 103.98,133.328 108.313,135.828 112.5,138.5 Z"/></g>
<g><path style="opacity:0.982" fill="#b2afad" d="M 131.5,239.5 C 129.5,240.833 127.5,242.167 125.5,243.5C 125.167,243.5 124.833,243.5 124.5,243.5C 122.707,243.116 121.707,241.95 121.5,240C 120.652,237.23 120.319,234.397 120.5,231.5C 123.797,231.671 124.131,231.005 121.5,229.5C 121.624,228.893 121.957,228.56 122.5,228.5C 123.189,229.774 124.023,229.774 125,228.5C 127.409,224.108 128.909,219.442 129.5,214.5C 129.5,212.5 129.5,210.5 129.5,208.5C 129.802,205.941 129.468,203.607 128.5,201.5C 128.435,198.572 127.768,195.905 126.5,193.5C 121.29,175.901 111.29,161.734 96.5,151C 95.552,150.517 94.552,150.351 93.5,150.5C 87.5315,146.04 80.8648,144.373 73.5,145.5C 65.5172,147.318 60.6839,152.318 59,160.5C 58.5017,163.817 58.335,167.15 58.5,170.5C 56.178,172.664 53.5113,174.331 50.5,175.5C 48.7961,165.948 49.6294,156.615 53,147.5C 55.738,141.927 59.9047,137.927 65.5,135.5C 76.2838,132.959 86.2838,134.793 95.5,141C 118.552,157.242 132.385,179.409 137,207.5C 139.043,218.952 136.877,229.452 130.5,239C 130.728,239.399 131.062,239.565 131.5,239.5 Z M 93.5,150.5 C 85.005,154.913 76.6717,159.58 68.5,164.5C 68.4524,157.689 70.1191,151.356 73.5,145.5C 80.8648,144.373 87.5315,146.04 93.5,150.5 Z"/></g>
<g><path style="opacity:1" fill="#3e3e3d" d="M 304.5,140.5 C 300.648,144.426 295.981,146.76 290.5,147.5C 292.261,146.687 293.928,145.687 295.5,144.5C 298.475,143.345 301.142,141.678 303.5,139.5C 304.107,139.624 304.44,139.957 304.5,140.5 Z"/></g>
<g><path style="opacity:0.967" fill="#e8e6e4" d="M 73.5,145.5 C 70.1191,151.356 68.4524,157.689 68.5,164.5C 65.5063,167 62.173,169 58.5,170.5C 58.335,167.15 58.5017,163.817 59,160.5C 60.6839,152.318 65.5172,147.318 73.5,145.5 Z"/></g>
<g><path style="opacity:0.995" fill="#fe5230" d="M 93.5,150.5 C 94.552,150.351 95.552,150.517 96.5,151C 111.29,161.734 121.29,175.901 126.5,193.5C 115.528,199.989 104.528,206.489 93.5,213C 89.5769,216.677 87.0769,221.177 86,226.5C 85.5001,244.497 85.3334,262.497 85.5,280.5C 67.5,270.5 49.5,260.5 31.5,250.5C 31.3334,232.164 31.5001,213.83 32,195.5C 34.5529,185.449 40.7195,178.782 50.5,175.5C 53.5113,174.331 56.178,172.664 58.5,170.5C 62.173,169 65.5063,167 68.5,164.5C 76.6717,159.58 85.005,154.913 93.5,150.5 Z"/></g>
<g><path style="opacity:1" fill="#cccece" d="M 334.5,157.5 C 335.83,163.463 336.496,169.796 336.5,176.5C 336.333,182.833 336.167,189.167 336,195.5C 325.581,201.626 315.081,207.626 304.5,213.5C 303.334,200.846 303.167,188.18 304,175.5C 314.312,169.6 324.479,163.6 334.5,157.5 Z"/></g>
<g><path style="opacity:1" fill="#cccece" d="M 268.5,195.5 C 269.825,208.339 269.825,221.339 268.5,234.5C 258.003,240.248 247.67,246.248 237.5,252.5C 236.334,239.846 236.167,227.18 237,214.5C 247.481,208.015 257.981,201.682 268.5,195.5 Z"/></g>
<g><path style="opacity:1" fill="#cec7c6" d="M 147.5,198.5 C 154.521,201.522 157.854,206.856 157.5,214.5C 156.266,230.818 148.599,242.984 134.5,251C 128.856,253.393 123.856,252.56 119.5,248.5C 115.085,237.357 116.251,226.69 123,216.5C 125.031,213.645 127.197,210.978 129.5,208.5C 129.5,210.5 129.5,212.5 129.5,214.5C 126.126,218.581 123.793,223.247 122.5,228.5C 121.957,228.56 121.624,228.893 121.5,229.5C 124.131,231.005 123.797,231.671 120.5,231.5C 120.319,234.397 120.652,237.23 121.5,240C 121.707,241.95 122.707,243.116 124.5,243.5C 127.066,246.514 130.233,247.181 134,245.5C 148.168,238.166 154.168,226.499 152,210.5C 151.252,208.249 149.752,206.916 147.5,206.5C 147.5,203.833 147.5,201.167 147.5,198.5 Z"/></g>
<g><path style="opacity:1" fill="#fef6f5" d="M 128.5,201.5 C 129.468,203.607 129.802,205.941 129.5,208.5C 127.197,210.978 125.031,213.645 123,216.5C 116.251,226.69 115.085,237.357 119.5,248.5C 116.572,247.409 114.406,245.409 113,242.5C 110.316,225.868 115.482,212.201 128.5,201.5 Z"/></g>
<g><path style="opacity:1" fill="#fbfbfb" d="M 147.5,206.5 C 149.752,206.916 151.252,208.249 152,210.5C 154.168,226.499 148.168,238.166 134,245.5C 130.233,247.181 127.066,246.514 124.5,243.5C 124.833,243.5 125.167,243.5 125.5,243.5C 130.052,242.558 134.052,240.558 137.5,237.5C 141.435,233.967 144.101,229.634 145.5,224.5C 148.018,219.939 149.018,214.939 148.5,209.5C 147.89,208.609 147.557,207.609 147.5,206.5 Z"/></g>
<g><path style="opacity:1" fill="#999a99" d="M 148.5,209.5 C 149.018,214.939 148.018,219.939 145.5,224.5C 146.396,219.353 147.396,214.353 148.5,209.5 Z"/></g>
<g><path style="opacity:1" fill="#2f2e2d" d="M 129.5,214.5 C 128.909,219.442 127.409,224.108 125,228.5C 124.023,229.774 123.189,229.774 122.5,228.5C 123.793,223.247 126.126,218.581 129.5,214.5 Z"/></g>
<g><path style="opacity:1" fill="#cccece" d="M 335.5,216.5 C 336.66,228.993 336.827,241.66 336,254.5C 325.498,261.085 314.832,267.419 304,273.5C 303.167,260.487 303.334,247.487 304.5,234.5C 315.06,228.726 325.393,222.726 335.5,216.5 Z"/></g>
<g><path style="opacity:0.993" fill="#bbbdc6" d="M 449.5,248.5 C 432.765,243.671 416.431,244.837 400.5,252C 376.719,263.775 357.219,280.608 342,302.5C 321.93,329.652 309.263,359.985 304,393.5C 301.166,413.162 304.166,431.829 313,449.5C 315.934,453.712 319.101,457.712 322.5,461.5C 313.229,456.863 304.229,451.696 295.5,446C 284.637,435.104 278.471,421.938 277,406.5C 276.074,393.747 276.574,381.08 278.5,368.5C 289.608,318.442 315.275,277.775 355.5,246.5C 374.939,231.63 396.606,226.797 420.5,232C 430.554,237.021 440.221,242.521 449.5,248.5 Z"/></g>
<g><path style="opacity:1" fill="#648dfe" d="M 171.5,290.5 C 170.505,278.011 170.171,265.344 170.5,252.5C 181.552,246.557 192.385,240.223 203,233.5C 203.833,246.513 203.666,259.513 202.5,272.5C 191.975,278.259 181.642,284.259 171.5,290.5 Z"/></g>
<g><path style="opacity:1" fill="#302f2f" d="M 137.5,237.5 C 134.052,240.558 130.052,242.558 125.5,243.5C 127.5,242.167 129.5,240.833 131.5,239.5C 133.305,238.763 134.971,237.763 136.5,236.5C 137.107,236.624 137.44,236.957 137.5,237.5 Z"/></g>
<g><path style="opacity:0.985" fill="#9b9ea5" d="M 449.5,248.5 C 466.15,257.417 475.65,271.417 478,290.5C 481.336,319.81 476.67,347.81 464,374.5C 448.081,410.078 423.914,438.578 391.5,460C 374.004,470.634 355.338,473.634 335.5,469C 330.777,466.978 326.443,464.478 322.5,461.5C 319.101,457.712 315.934,453.712 313,449.5C 304.166,431.829 301.166,413.162 304,393.5C 309.263,359.985 321.93,329.652 342,302.5C 357.219,280.608 376.719,263.775 400.5,252C 416.431,244.837 432.765,243.671 449.5,248.5 Z"/></g>
<g><path style="opacity:0.994" fill="#d9dcdc" d="M 31.5,250.5 C 49.5,260.5 67.5,270.5 85.5,280.5C 85.8333,280.5 86.1667,280.5 86.5,280.5C 85.5037,346.429 85.1704,412.429 85.5,478.5C 67.8105,468.903 50.3105,458.903 33,448.5C 32.1534,382.502 31.6534,316.502 31.5,250.5 Z"/></g>
<g><path style="opacity:1" fill="#cccece" d="M 268.5,254.5 C 269.83,260.631 270.497,267.131 270.5,274C 270.167,280.5 269.833,287 269.5,293.5C 258.833,299.5 248.167,305.5 237.5,311.5C 236.167,298.833 236.167,286.167 237.5,273.5C 248.064,267.392 258.398,261.059 268.5,254.5 Z"/></g>
<g><path style="opacity:1" fill="#fefefe" d="M 445.5,268.5 C 454.993,278.161 460.16,289.828 461,303.5C 460.492,357.015 439.659,400.849 398.5,435C 385.253,445.288 370.253,451.121 353.5,452.5C 350.483,452.232 347.483,451.898 344.5,451.5C 333.277,447.445 325.444,439.778 321,428.5C 313.756,402.628 315.423,377.295 326,352.5C 339.311,318.008 361.478,290.842 392.5,271C 405.521,262.929 419.521,260.262 434.5,263C 438.499,264.333 442.166,266.166 445.5,268.5 Z"/></g>
<g><path style="opacity:1" fill="#c0d0f3" d="M 170.5,252.5 C 170.171,265.344 170.505,278.011 171.5,290.5C 171.44,291.043 171.107,291.376 170.5,291.5C 169.175,278.339 169.175,265.339 170.5,252.5 Z"/></g>
<g><path style="opacity:1" fill="#41403f" d="M 434.5,274.5 C 435.5,274.5 436.5,274.5 437.5,274.5C 435.821,280.193 433.321,285.526 430,290.5C 429.092,292.439 427.592,293.439 425.5,293.5C 427.669,286.826 430.669,280.493 434.5,274.5 Z"/></g>
<g><path style="opacity:1" fill="#bcbfc6" d="M 445.5,268.5 C 451.866,272.37 456.699,277.703 460,284.5C 464.135,293.905 465.968,303.738 465.5,314C 462.636,362.394 442.969,402.394 406.5,434C 392.009,446.077 375.342,452.91 356.5,454.5C 352.069,454.726 348.069,453.726 344.5,451.5C 347.483,451.898 350.483,452.232 353.5,452.5C 370.253,451.121 385.253,445.288 398.5,435C 439.659,400.849 460.492,357.015 461,303.5C 460.16,289.828 454.993,278.161 445.5,268.5 Z"/></g>
<g><path style="opacity:1" fill="#424140" d="M 388.5,278.5 C 389.496,278.414 390.329,278.748 391,279.5C 391.667,284.5 391.667,289.5 391,294.5C 390.411,296.863 388.911,297.863 386.5,297.5C 385.968,290.952 386.635,284.618 388.5,278.5 Z"/></g>
<g><path style="opacity:1" fill="#cccece" d="M 201.5,293.5 C 202.83,299.463 203.496,305.796 203.5,312.5C 203.333,318.833 203.167,325.167 203,331.5C 192.168,337.581 181.502,343.915 171,350.5C 170.167,337.487 170.334,324.487 171.5,311.5C 181.802,305.836 191.802,299.836 201.5,293.5 Z"/></g>
<g><path style="opacity:1" fill="#7ed17e" d="M 238.5,370.5 C 237.505,358.011 237.171,345.344 237.5,332.5C 248.112,326.524 258.779,320.524 269.5,314.5C 270.666,327.154 270.833,339.82 270,352.5C 259.554,358.638 249.054,364.638 238.5,370.5 Z"/></g>
<g><path style="opacity:1" fill="#3c3b3a" d="M 391.5,315.5 C 391.5,325.833 391.5,336.167 391.5,346.5C 393.167,346.5 394.833,346.5 396.5,346.5C 397.151,347.091 397.818,347.757 398.5,348.5C 408.63,342.866 418.63,337.033 428.5,331C 429.793,330.51 431.127,330.343 432.5,330.5C 432.617,332.484 431.95,334.15 430.5,335.5C 419.963,341.866 409.296,348.033 398.5,354C 397.008,357.31 395.008,360.31 392.5,363C 387.698,365.829 384.698,364.662 383.5,359.5C 383.787,356.135 384.954,353.135 387,350.5C 387.333,339.5 387.667,328.5 388,317.5C 388.816,316.177 389.983,315.511 391.5,315.5 Z"/></g>
<g><path style="opacity:1" fill="#3f3e3d" d="M 453.5,316.5 C 454.5,316.5 455.5,316.5 456.5,316.5C 456.919,319.325 455.919,321.491 453.5,323C 449.559,325.146 445.559,326.979 441.5,328.5C 441.343,327.127 441.51,325.793 442,324.5C 446.013,321.97 449.846,319.304 453.5,316.5 Z"/></g>
<g><path style="opacity:1" fill="#3f3e3d" d="M 342.5,327.5 C 346.008,328.504 349.174,330.171 352,332.5C 352.825,334.701 352.325,336.534 350.5,338C 346.978,337.492 343.812,335.992 341,333.5C 340.252,331.16 340.752,329.16 342.5,327.5 Z"/></g>
<g><path style="opacity:1" fill="#cccece" d="M 135.5,331.5 C 136.83,337.463 137.496,343.796 137.5,350.5C 137.333,356.833 137.167,363.167 137,369.5C 126.085,375.707 115.251,382.041 104.5,388.5C 103.334,375.846 103.167,363.18 104,350.5C 114.813,344.518 125.313,338.185 135.5,331.5 Z"/></g>
<g><path style="opacity:1" fill="#6b6a6a" d="M 391.5,315.5 C 392.494,325.319 392.827,335.319 392.5,345.5C 394.099,345.232 395.432,345.566 396.5,346.5C 394.833,346.5 393.167,346.5 391.5,346.5C 391.5,336.167 391.5,325.833 391.5,315.5 Z"/></g>
<g><path style="opacity:1" fill="#db9953" d="M 202.5,352.5 C 203.825,365.339 203.825,378.339 202.5,391.5C 192.003,397.248 181.67,403.248 171.5,409.5C 170.334,396.846 170.167,384.18 171,371.5C 181.813,365.518 192.313,359.185 202.5,352.5 Z"/></g>
<g><path style="opacity:1" fill="#b6e0b8" d="M 237.5,332.5 C 237.171,345.344 237.505,358.011 238.5,370.5C 238.44,371.043 238.107,371.376 237.5,371.5C 236.175,358.339 236.175,345.339 237.5,332.5 Z"/></g>
<g><path style="opacity:1" fill="#3f3e3d" d="M 426.5,376.5 C 430.266,376.715 433.6,378.049 436.5,380.5C 438.588,385.019 437.254,386.852 432.5,386C 430.63,384.634 428.63,383.467 426.5,382.5C 425.481,380.54 425.481,378.54 426.5,376.5 Z"/></g>
<g><path style="opacity:1" fill="#434241" d="M 334.5,385.5 C 335.649,385.791 336.316,386.624 336.5,388C 336.333,388.833 336.167,389.667 336,390.5C 331.582,393.293 327.082,395.959 322.5,398.5C 321.369,396.926 321.202,395.259 322,393.5C 326.316,390.934 330.483,388.267 334.5,385.5 Z"/></g>
<g><path style="opacity:1" fill="#fe5331" d="M 136.5,390.5 C 137.825,403.339 137.825,416.339 136.5,429.5C 126.167,435.5 115.833,441.5 105.5,447.5C 104.334,434.846 104.167,422.18 105,409.5C 115.813,403.518 126.313,397.185 136.5,390.5 Z"/></g>
<g><path style="opacity:1" fill="#434241" d="M 389.5,416.5 C 390.814,418.915 391.481,421.748 391.5,425C 391.333,427.833 391.167,430.667 391,433.5C 389.89,435.037 388.39,435.703 386.5,435.5C 386.334,430.156 386.501,424.823 387,419.5C 388.045,418.627 388.878,417.627 389.5,416.5 Z"/></g>
<g><path style="opacity:1" fill="#444342" d="M 350.5,420.5 C 351.995,420.415 352.995,421.081 353.5,422.5C 350.667,427.5 347.833,432.5 345,437.5C 344.092,439.439 342.592,440.439 340.5,440.5C 342.752,433.33 346.085,426.663 350.5,420.5 Z"/></g>
</svg>
