<?xml version="1.0" encoding="UTF-8"?>
<!DOCTYPE svg PUBLIC "-//W3C//DTD SVG 1.1//EN" "http://www.w3.org/Graphics/SVG/1.1/DTD/svg11.dtd">
<svg xmlns="http://www.w3.org/2000/svg" version="1.1" width="512px" height="512px" style="shape-rendering:geometricPrecision; text-rendering:geometricPrecision; image-rendering:optimizeQuality; fill-rule:evenodd; clip-rule:evenodd" xmlns:xlink="http://www.w3.org/1999/xlink">
<g><path style="opacity:0.984" fill="#9ad798" d="M 427.5,69.5 C 387.031,92.2352 346.698,115.235 306.5,138.5C 295.594,132.928 284.928,126.928 274.5,120.5C 314.607,96.9409 354.94,73.6076 395.5,50.5C 406.23,56.8595 416.897,63.1928 427.5,69.5 Z"/></g>
<g><path style="opacity:0.991" fill="#71c470" d="M 427.5,69.5 C 427.23,73.8504 427.897,78.017 429.5,82C 434.922,81.1906 440.089,79.3573 445,76.5C 455.728,82.1137 466.228,88.1137 476.5,94.5C 478.647,191.291 452.314,279.291 397.5,358.5C 388.124,371.39 378.124,383.89 367.5,396C 345.415,396.982 325.415,391.149 307.5,378.5C 295.79,368.425 286.124,356.425 278.5,342.5C 266.199,315.623 259.365,287.29 258,257.5C 256.946,245.856 256.446,234.189 256.5,222.5C 286.474,202.57 303.141,174.57 306.5,138.5C 346.698,115.235 387.031,92.2352 427.5,69.5 Z"/></g>
<g><path style="opacity:1" fill="#69b769" d="M 413.5,89.5 C 416.234,95.7842 419.734,101.784 424,107.5C 435.233,117.305 447.9,119.639 462,114.5C 461.311,213.267 429.811,300.434 367.5,376C 333.694,375.02 308.528,359.853 292,330.5C 276.914,297.151 269.914,262.151 271,225.5C 295.517,203.299 311.683,176.133 319.5,144C 351.06,126.059 382.393,107.892 413.5,89.5 Z"/></g>
<g><path style="opacity:1" fill="#6fc36f" d="M 408.5,98.5 C 409.675,98.281 410.675,98.6143 411.5,99.5C 419.979,119.574 434.979,127.241 456.5,122.5C 455.346,215.242 425.68,297.409 367.5,369C 337.614,367.472 314.781,353.972 299,328.5C 287.231,306.385 280.231,282.718 278,257.5C 276.548,247.198 275.881,236.865 276,226.5C 298.398,206.055 313.398,181.055 321,151.5C 321.465,150.069 322.299,148.903 323.5,148C 352.002,131.637 380.336,115.137 408.5,98.5 Z"/></g>
<g><path style="opacity:0.991" fill="#7cd17c" d="M 274.5,120.5 C 284.928,126.928 295.594,132.928 306.5,138.5C 303.141,174.57 286.474,202.57 256.5,222.5C 246.072,216.072 235.406,210.072 224.5,204.5C 253.967,184.25 270.634,156.25 274.5,120.5 Z"/></g>
<g><path style="opacity:1" fill="#21211f" d="M 376.5,183.5 C 381.168,189.334 382.668,196.001 381,203.5C 378.979,210.539 376.145,217.206 372.5,223.5C 375.245,233.648 377.912,243.814 380.5,254C 380.167,254.833 379.833,255.667 379.5,256.5C 368.919,262.374 358.419,268.374 348,274.5C 347.536,273.906 347.369,273.239 347.5,272.5C 349.048,261.924 351.048,251.424 353.5,241C 349.237,238.729 346.403,235.229 345,230.5C 343.961,210.745 351.794,195.579 368.5,185C 371.063,183.921 373.729,183.421 376.5,183.5 Z"/></g>
<g><path style="opacity:1" fill="#3c3e39" d="M 376.5,183.5 C 382.201,184.026 386.034,187.026 388,192.5C 389.006,204.644 386.172,215.81 379.5,226C 383.194,236.607 385.694,247.44 387,258.5C 373.333,266.5 359.667,274.5 346,282.5C 345.552,278.929 346.052,275.596 347.5,272.5C 347.369,273.239 347.536,273.906 348,274.5C 358.419,268.374 368.919,262.374 379.5,256.5C 379.833,255.667 380.167,254.833 380.5,254C 377.912,243.814 375.245,233.648 372.5,223.5C 376.145,217.206 378.979,210.539 381,203.5C 382.668,196.001 381.168,189.334 376.5,183.5 Z"/></g>
<g><path style="opacity:0.993" fill="#628dff" d="M 225.5,237.5 C 225.5,238.167 225.833,238.5 226.5,238.5C 226.5,239.5 226.5,240.5 226.5,241.5C 219.455,240.269 212.455,240.769 205.5,243C 188.894,249.265 174.727,259.098 163,272.5C 144.611,293.946 132.611,318.613 127,346.5C 126.156,357.211 126.489,367.878 128,378.5C 130.296,386.947 134.463,394.28 140.5,400.5C 110.072,383.255 79.7385,365.755 49.5,348C 41.1214,341.08 35.9547,332.247 34,321.5C 31.4996,272.332 49.3329,232.165 87.5,201C 99.0483,192.206 112.048,187.039 126.5,185.5C 134.02,185.964 141.02,188.13 147.5,192C 173.391,207.442 199.391,222.609 225.5,237.5 Z"/></g>
<g><path style="opacity:0.997" fill="#6ab769" d="M 224.5,204.5 C 235.406,210.072 246.072,216.072 256.5,222.5C 256.446,234.189 256.946,245.856 258,257.5C 259.365,287.29 266.199,315.623 278.5,342.5C 286.124,356.425 295.79,368.425 307.5,378.5C 290.058,370.692 274.558,360.026 261,346.5C 245.993,326.145 236.16,303.479 231.5,278.5C 231.246,272.25 230.246,266.25 228.5,260.5C 228.5,259.5 228.5,258.5 228.5,257.5C 228.011,252.103 227.344,246.769 226.5,241.5C 226.5,240.5 226.5,239.5 226.5,238.5C 225.833,238.5 225.5,238.167 225.5,237.5C 224.992,226.507 224.658,215.507 224.5,204.5 Z"/></g>
<g><path style="opacity:0.973" fill="#4d77fb" d="M 226.5,241.5 C 227.344,246.769 228.011,252.103 228.5,257.5C 222.031,254.098 215.697,250.431 209.5,246.5C 189.441,253.114 172.941,264.781 160,281.5C 141.937,303.797 132.104,329.297 130.5,358C 130.129,365.411 131.129,372.577 133.5,379.5C 140.875,398.185 154.208,405.185 173.5,400.5C 178.214,400.647 182.881,400.314 187.5,399.5C 188.338,399.842 188.672,400.508 188.5,401.5C 182.967,403.622 177.3,405.455 171.5,407C 165.5,407.667 159.5,407.667 153.5,407C 148.547,405.857 144.214,403.69 140.5,400.5C 134.463,394.28 130.296,386.947 128,378.5C 126.489,367.878 126.156,357.211 127,346.5C 132.611,318.613 144.611,293.946 163,272.5C 174.727,259.098 188.894,249.265 205.5,243C 212.455,240.769 219.455,240.269 226.5,241.5 Z"/></g>
<g><path style="opacity:1" fill="#fbfcfd" d="M 228.5,257.5 C 228.5,258.5 228.5,259.5 228.5,260.5C 216.334,261.055 205.334,264.888 195.5,272C 166.935,294.791 150.935,324.458 147.5,361C 147.332,372.175 150.332,382.341 156.5,391.5C 148.833,387.5 141.167,383.5 133.5,379.5C 131.129,372.577 130.129,365.411 130.5,358C 132.104,329.297 141.937,303.797 160,281.5C 172.941,264.781 189.441,253.114 209.5,246.5C 215.697,250.431 222.031,254.098 228.5,257.5 Z"/></g>
<g><path style="opacity:1" fill="#e0e4e9" d="M 228.5,260.5 C 230.246,266.25 231.246,272.25 231.5,278.5C 225.195,275.682 219.195,272.348 213.5,268.5C 197.871,275.29 185.037,285.623 175,299.5C 164.902,313.7 158.069,329.366 154.5,346.5C 150.665,361.49 152.831,375.49 161,388.5C 166.982,394.405 174.149,396.738 182.5,395.5C 184.191,396.864 185.858,398.197 187.5,399.5C 182.881,400.314 178.214,400.647 173.5,400.5C 167.08,398.792 161.413,395.792 156.5,391.5C 150.332,382.341 147.332,372.175 147.5,361C 150.935,324.458 166.935,294.791 195.5,272C 205.334,264.888 216.334,261.055 228.5,260.5 Z"/></g>
<g><path style="opacity:0.993" fill="#fecf6b" d="M 231.5,278.5 C 236.16,303.479 245.993,326.145 261,346.5C 274.558,360.026 290.058,370.692 307.5,378.5C 325.415,391.149 345.415,396.982 367.5,396C 378.124,383.89 388.124,371.39 397.5,358.5C 413.002,367.418 429.002,375.585 445.5,383C 455.016,389.252 457.016,397.419 451.5,407.5C 461.422,411.201 469.589,417.201 476,425.5C 481.004,434.653 478.504,440.486 468.5,443C 463.845,443.499 459.179,443.666 454.5,443.5C 455.572,452.594 451.572,457.761 442.5,459C 429.256,459.419 416.423,457.252 404,452.5C 397.024,459.707 388.524,462.207 378.5,460C 343.883,452.238 311.05,439.738 280,422.5C 280.031,430.301 276.198,434.301 268.5,434.5C 253.202,431.767 237.869,429.267 222.5,427C 218.888,425.861 215.554,424.194 212.5,422C 205.49,413.809 197.49,406.976 188.5,401.5C 188.672,400.508 188.338,399.842 187.5,399.5C 185.858,398.197 184.191,396.864 182.5,395.5C 178.071,392.009 174.571,387.676 172,382.5C 168.228,373.52 165.895,364.187 165,354.5C 162.099,350.975 158.599,348.308 154.5,346.5C 158.069,329.366 164.902,313.7 175,299.5C 185.037,285.623 197.871,275.29 213.5,268.5C 219.195,272.348 225.195,275.682 231.5,278.5 Z"/></g>
<g><path style="opacity:1" fill="#cdcecd" d="M 154.5,346.5 C 158.599,348.308 162.099,350.975 165,354.5C 165.895,364.187 168.228,373.52 172,382.5C 174.571,387.676 178.071,392.009 182.5,395.5C 174.149,396.738 166.982,394.405 161,388.5C 152.831,375.49 150.665,361.49 154.5,346.5 Z"/></g>
<g><path style="opacity:1" fill="#4852e5" d="M 133.5,379.5 C 141.167,383.5 148.833,387.5 156.5,391.5C 161.413,395.792 167.08,398.792 173.5,400.5C 154.208,405.185 140.875,398.185 133.5,379.5 Z"/></g>
<g><path style="opacity:1" fill="#f4f3f0" d="M 250.5,407.5 C 255.248,407.275 259.915,407.775 264.5,409C 265.333,409.833 266.167,410.667 267,411.5C 267.335,416.519 267.835,421.519 268.5,426.5C 268.43,427.772 268.097,428.938 267.5,430C 260.307,430.823 254.141,428.657 249,423.5C 245.159,417.591 245.659,412.258 250.5,407.5 Z"/></g>
</svg>
