<?xml version="1.0" encoding="UTF-8"?>
<!DOCTYPE svg PUBLIC "-//W3C//DTD SVG 1.1//EN" "http://www.w3.org/Graphics/SVG/1.1/DTD/svg11.dtd">
<svg xmlns="http://www.w3.org/2000/svg" version="1.1" width="512px" height="512px" style="shape-rendering:geometricPrecision; text-rendering:geometricPrecision; image-rendering:optimizeQuality; fill-rule:evenodd; clip-rule:evenodd" xmlns:xlink="http://www.w3.org/1999/xlink">
<g><path style="opacity:0.987" fill="#b189fc" d="M 156.5,102.5 C 152.462,101.137 148.462,101.304 144.5,103C 119.311,111.331 98.1441,125.498 81,145.5C 80.3333,146.833 79.6667,148.167 79,149.5C 78.171,169.004 78.3377,188.338 79.5,207.5C 79.1583,208.338 78.4916,208.672 77.5,208.5C 77.5,208.167 77.5,207.833 77.5,207.5C 77.8329,189.155 77.4996,170.821 76.5,152.5C 65.7238,145.712 54.7238,139.378 43.5,133.5C 44.5152,128.635 46.6819,124.301 50,120.5C 69.1957,101.565 91.8624,88.5652 118,81.5C 131.447,87.4642 144.28,94.4642 156.5,102.5 Z"/></g>
<g><path style="opacity:0.995" fill="#976ff8" d="M 156.5,102.5 C 157.117,102.611 157.617,102.944 158,103.5C 158.833,123.508 158.666,143.508 157.5,163.5C 155.604,164.275 153.937,165.275 152.5,166.5C 151.504,166.586 150.671,166.252 150,165.5C 149.831,158.144 149.331,150.811 148.5,143.5C 127.833,155.5 107.167,167.5 86.5,179.5C 85.6683,187.813 85.1683,196.147 85,204.5C 83.2196,205.639 81.3863,206.639 79.5,207.5C 78.3377,188.338 78.171,169.004 79,149.5C 79.6667,148.167 80.3333,146.833 81,145.5C 98.1441,125.498 119.311,111.331 144.5,103C 148.462,101.304 152.462,101.137 156.5,102.5 Z"/></g>
<g><path style="opacity:0.978" fill="#7f5bf2" d="M 43.5,133.5 C 54.7238,139.378 65.7238,145.712 76.5,152.5C 77.4996,170.821 77.8329,189.155 77.5,207.5C 73.0344,205.434 68.701,203.1 64.5,200.5C 62.6675,199.752 61.0009,198.752 59.5,197.5C 54.8333,194.833 50.1667,192.167 45.5,189.5C 43.5129,171.197 42.8462,152.53 43.5,133.5 Z"/></g>
<g><path style="opacity:0.976" fill="#b0b7cf" d="M 152.5,166.5 C 152.833,184.845 152.5,203.179 151.5,221.5C 127.056,235.956 102.389,249.956 77.5,263.5C 77.5,245.167 77.5,226.833 77.5,208.5C 78.4916,208.672 79.1583,208.338 79.5,207.5C 81.3863,206.639 83.2196,205.639 85,204.5C 85.1683,196.147 85.6683,187.813 86.5,179.5C 107.167,167.5 127.833,155.5 148.5,143.5C 149.331,150.811 149.831,158.144 150,165.5C 150.671,166.252 151.504,166.586 152.5,166.5 Z M 142.5,185.5 C 143.828,190.119 144.494,195.119 144.5,200.5C 144.333,205.5 144.167,210.5 144,215.5C 126.333,225.833 108.667,236.167 91,246.5C 90.1677,236.151 90.3344,225.817 91.5,215.5C 108.728,205.726 125.728,195.726 142.5,185.5 Z"/></g>
<g><path style="opacity:0.996" fill="#f2f0fb" d="M 467.5,231.5 C 405.167,293.167 343.167,355.167 281.5,417.5C 202.833,391.167 124.167,364.833 45.5,338.5C 49.8333,333.833 54.1667,329.167 58.5,324.5C 61.4274,323.243 63.7607,321.243 65.5,318.5C 88.1719,296.833 109.839,274.833 130.5,252.5C 164.438,219.062 198.272,185.395 232,151.5C 310.618,178.094 389.118,204.761 467.5,231.5 Z"/></g>
<g><path style="opacity:1" fill="#ae86fc" d="M 59.5,162.5 C 61.3904,162.297 62.8904,162.963 64,164.5C 64.8317,172.853 64.6651,181.187 63.5,189.5C 62.5,188.833 61.5,188.167 60.5,187.5C 59.5021,179.193 59.1688,170.86 59.5,162.5 Z"/></g>
<g><path style="opacity:1" fill="#4e5e77" d="M 256.5,170.5 C 313.424,188.975 370.091,208.141 426.5,228C 415.292,239.542 403.792,250.709 392,261.5C 337.167,243 282.333,224.5 227.5,206C 226.09,205.632 225.09,204.799 224.5,203.5C 235.188,192.479 245.855,181.479 256.5,170.5 Z"/></g>
<g><path style="opacity:1" fill="#eceef1" d="M 261.5,186.5 C 268.255,185.668 274.589,186.835 280.5,190C 281.731,191.183 281.731,192.349 280.5,193.5C 272.532,186.976 264.699,186.976 257,193.5C 256.192,195.579 256.359,197.579 257.5,199.5C 261.508,201.718 265.841,203.051 270.5,203.5C 264.641,205.257 259.307,204.257 254.5,200.5C 252.661,198.473 252.161,196.14 253,193.5C 255.441,190.546 258.275,188.213 261.5,186.5 Z"/></g>
<g><path style="opacity:0.972" fill="#9ba6c6" d="M 45.5,189.5 C 50.1667,192.167 54.8333,194.833 59.5,197.5C 59.8302,216.008 59.4968,234.341 58.5,252.5C 54.1182,250.559 49.9515,248.226 46,245.5C 45.5001,226.836 45.3334,208.17 45.5,189.5 Z"/></g>
<g><path style="opacity:1" fill="#44536c" d="M 59.5,197.5 C 61.0009,198.752 62.6675,199.752 64.5,200.5C 64.8302,219.008 64.4968,237.341 63.5,255.5C 61.6316,254.737 59.9649,253.737 58.5,252.5C 59.4968,234.341 59.8302,216.008 59.5,197.5 Z"/></g>
<g><path style="opacity:1" fill="#ecedf0" d="M 279.5,198.5 C 284.267,198.191 288.934,198.691 293.5,200C 295.325,201.466 295.825,203.299 295,205.5C 289.185,211.073 282.685,211.906 275.5,208C 274.424,206.274 274.257,204.441 275,202.5C 276.397,200.93 277.897,199.596 279.5,198.5 Z"/></g>
<g><path style="opacity:1" fill="#54637b" d="M 282.5,199.5 C 285.32,199.248 287.986,199.748 290.5,201C 292.223,204.408 291.223,206.741 287.5,208C 284.833,208.667 282.167,208.667 279.5,208C 277.789,206.867 277.289,205.367 278,203.5C 279.397,201.93 280.897,200.596 282.5,199.5 Z"/></g>
<g><path style="opacity:0.995" fill="#9ea8c9" d="M 64.5,200.5 C 68.701,203.1 73.0344,205.434 77.5,207.5C 77.5,207.833 77.5,208.167 77.5,208.5C 77.5,226.833 77.5,245.167 77.5,263.5C 72.5709,261.225 67.9042,258.559 63.5,255.5C 64.4968,237.341 64.8302,219.008 64.5,200.5 Z"/></g>
<g><path style="opacity:1" fill="#dfe2e7" d="M 302.5,203.5 C 306.373,204.956 310.373,206.123 314.5,207C 316.855,208.865 317.022,211.031 315,213.5C 312.793,216.564 309.959,218.564 306.5,219.5C 306.351,218.448 306.517,217.448 307,216.5C 316.358,209.513 315.191,206.68 303.5,208C 301.5,210 299.5,212 297.5,214C 296.056,214.781 294.723,214.614 293.5,213.5C 296.522,210.147 299.522,206.813 302.5,203.5 Z"/></g>
<g><path style="opacity:1" fill="#eceef0" d="M 328.5,207.5 C 332.079,207.766 332.413,209.099 329.5,211.5C 330.912,212.806 332.579,213.64 334.5,214C 331.8,214.253 329.133,214.253 326.5,214C 324.443,215.719 322.776,217.719 321.5,220C 322.232,221.765 323.565,222.932 325.5,223.5C 322.566,224.799 320.066,224.132 318,221.5C 317.333,220.5 317.333,219.5 318,218.5C 320.018,216.65 321.851,214.65 323.5,212.5C 322.833,211.833 322.167,211.167 321.5,210.5C 323.021,210.12 324.687,209.954 326.5,210C 327.381,209.292 328.047,208.458 328.5,207.5 Z"/></g>
<g><path style="opacity:1" fill="#e9e7fc" d="M 212.5,214.5 C 269.243,233.359 325.91,252.526 382.5,272C 379.984,274.683 377.317,277.183 374.5,279.5C 318.87,260.568 263.204,241.735 207.5,223C 206.549,222.282 206.383,221.449 207,220.5C 209.04,218.63 210.873,216.63 212.5,214.5 Z"/></g>
<g><path style="opacity:1" fill="#f1f2f4" d="M 337.5,215.5 C 340.761,216.575 344.095,217.575 347.5,218.5C 344.578,218.899 341.578,219.066 338.5,219C 336.167,221.333 333.833,223.667 331.5,226C 330.365,226.749 329.365,226.583 328.5,225.5C 331.522,222.147 334.522,218.813 337.5,215.5 Z"/></g>
<g><path style="opacity:1" fill="#e9ebee" d="M 350.5,220.5 C 364.492,220.559 366.492,225.059 356.5,234C 352.971,233.209 349.304,232.542 345.5,232C 342.79,230.54 342.124,228.54 343.5,226C 348.963,225.246 354.296,225.746 359.5,227.5C 359.5,226.167 359.5,224.833 359.5,223.5C 355.971,223.443 352.971,222.443 350.5,220.5 Z"/></g>
<g><path style="opacity:1" fill="#5a6980" d="M 346.5,226.5 C 349.947,226.814 353.28,227.648 356.5,229C 352.53,232.46 348.863,232.293 345.5,228.5C 345.863,227.817 346.196,227.15 346.5,226.5 Z"/></g>
<g><path style="opacity:1" fill="#eaecef" d="M 369.5,227.5 C 372.518,227.335 375.518,227.502 378.5,228C 380.555,228.687 382.221,229.854 383.5,231.5C 383.167,231.833 382.833,232.167 382.5,232.5C 376.984,228.173 371.817,228.506 367,233.5C 366.333,234.5 366.333,235.5 367,236.5C 369.996,237.911 373.163,238.911 376.5,239.5C 373.124,240.711 369.791,240.544 366.5,239C 364.876,237.883 363.876,236.383 363.5,234.5C 364.802,231.534 366.802,229.201 369.5,227.5 Z"/></g>
<g><path style="opacity:1" fill="#e2e4e9" d="M 391.5,229.5 C 395.527,229.281 396.194,230.448 393.5,233C 395.059,233.98 396.726,234.813 398.5,235.5C 395.943,235.782 393.277,235.949 390.5,236C 389,237.5 387.5,239 386,240.5C 385.55,243.064 386.716,244.564 389.5,245C 387.029,245.706 384.695,245.373 382.5,244C 381.483,242.951 381.316,241.784 382,240.5C 383.458,238.04 385.291,235.873 387.5,234C 386.833,233.333 386.167,232.667 385.5,232C 387.974,231.963 389.974,231.13 391.5,229.5 Z"/></g>
<g><path style="opacity:1" fill="#e9e7fc" d="M 196.5,230.5 C 253.686,248.617 310.686,267.451 367.5,287C 366.333,288.167 365.167,289.333 364,290.5C 308.58,271.471 253.08,252.638 197.5,234C 195.273,233.296 194.94,232.129 196.5,230.5 Z"/></g>
<g><path style="opacity:0.961" fill="#dedffb" d="M 467.5,231.5 C 467.666,235.514 467.499,239.514 467,243.5C 459.631,250.702 452.464,258.035 445.5,265.5C 422.751,286.747 400.418,308.58 378.5,331C 380.598,330.968 382.598,330.301 384.5,329C 412.861,312.488 441.194,295.988 469.5,279.5C 469.789,283.106 469.456,286.606 468.5,290C 430.167,312.333 391.833,334.667 353.5,357C 329.632,381.035 305.632,404.868 281.5,428.5C 281.5,424.833 281.5,421.167 281.5,417.5C 343.167,355.167 405.167,293.167 467.5,231.5 Z"/></g>
<g><path style="opacity:0.978" fill="#e9e7fc" d="M 130.5,252.5 C 109.839,274.833 88.1719,296.833 65.5,318.5C 57.7816,313.47 49.7816,308.803 41.5,304.5C 70.9671,286.929 100.634,269.596 130.5,252.5 Z"/></g>
<g><path style="opacity:0.991" fill="#e8e6fb" d="M 445.5,265.5 C 453.836,269.665 461.836,274.332 469.5,279.5C 441.194,295.988 412.861,312.488 384.5,329C 382.598,330.301 380.598,330.968 378.5,331C 400.418,308.58 422.751,286.747 445.5,265.5 Z"/></g>
<g><path style="opacity:1" fill="#e9e7fc" d="M 291.5,282.5 C 311.382,289.627 331.382,296.461 351.5,303C 325.5,329 299.5,355 273.5,381C 253.272,375.425 233.272,368.925 213.5,361.5C 239.521,335.146 265.521,308.812 291.5,282.5 Z"/></g>
<g><path style="opacity:1" fill="#f4607c" d="M 200.5,248.5 C 224.953,261.267 248.953,274.934 272.5,289.5C 271.395,290.892 270.061,292.059 268.5,293C 231.292,314.769 193.959,336.269 156.5,357.5C 132.794,344.563 109.294,331.229 86,317.5C 85.3333,316.833 85.3333,316.167 86,315.5C 124.312,293.266 162.478,270.933 200.5,248.5 Z"/></g>
<g><path style="opacity:1" fill="#f3ecf8" d="M 200.5,250.5 C 222.941,262.89 245.274,275.556 267.5,288.5C 268.521,289.002 268.688,289.668 268,290.5C 230.915,312.293 193.749,333.96 156.5,355.5C 134.003,342.752 111.669,329.752 89.5,316.5C 126.693,294.74 163.693,272.74 200.5,250.5 Z"/></g>
<g><path style="opacity:1" fill="#f4607c" d="M 172.5,276.5 C 174.549,276.706 174.883,277.539 173.5,279C 152.002,291.248 130.669,303.748 109.5,316.5C 114.838,319.167 119.838,322.334 124.5,326C 117.755,323.961 111.422,320.794 105.5,316.5C 127.696,302.904 150.029,289.57 172.5,276.5 Z"/></g>
<g><path style="opacity:1" fill="#f4617c" d="M 241.5,283.5 C 244.8,285.108 248.133,286.775 251.5,288.5C 252.711,289.274 252.711,290.107 251.5,291C 229.833,303.5 208.167,316 186.5,328.5C 186.167,328.167 185.833,327.833 185.5,327.5C 206.134,314.511 227.134,302.011 248.5,290C 246.5,288.667 244.5,287.333 242.5,286C 241.748,285.329 241.414,284.496 241.5,283.5 Z"/></g>
<g><path style="opacity:1" fill="#f45271" d="M 200.5,272.5 C 211.55,277.527 222.217,283.36 232.5,290C 207.574,303.934 182.908,318.267 158.5,333C 156.365,333.635 154.365,333.301 152.5,332C 143.668,327.085 135.001,321.918 126.5,316.5C 150.923,301.408 175.589,286.741 200.5,272.5 Z"/></g>
<g><path style="opacity:1" fill="#f4617c" d="M 199.5,260.5 C 202.425,260.46 205.091,261.293 207.5,263C 215.988,268.003 224.322,273.17 232.5,278.5C 230.477,279.041 228.477,278.541 226.5,277C 218.167,272.167 209.833,267.333 201.5,262.5C 197.451,265.05 193.284,267.383 189,269.5C 187.392,269.026 187.226,268.359 188.5,267.5C 192.401,265.392 196.067,263.059 199.5,260.5 Z"/></g>
<g><path style="opacity:0.962" fill="#d3d5f2" d="M 41.5,304.5 C 49.7816,308.803 57.7816,313.47 65.5,318.5C 63.7607,321.243 61.4274,323.243 58.5,324.5C 52.8858,321.392 47.3858,318.059 42,314.5C 41.5017,311.183 41.335,307.85 41.5,304.5 Z"/></g>
<g><path style="opacity:0.977" fill="#d3d5f2" d="M 45.5,338.5 C 124.167,364.833 202.833,391.167 281.5,417.5C 281.5,421.167 281.5,424.833 281.5,428.5C 270.723,425.696 259.723,422.363 248.5,418.5C 244.377,420.395 240.377,422.562 236.5,425C 235.167,425.667 233.833,425.667 232.5,425C 215.833,415.333 199.167,405.667 182.5,396C 136.835,380.723 91.1685,365.556 45.5,350.5C 45.5,346.5 45.5,342.5 45.5,338.5 Z"/></g>
<g><path style="opacity:1" fill="#f4607c" d="M 130.5,329.5 C 139.385,333.707 148.051,338.374 156.5,343.5C 159.5,341.667 162.5,339.833 165.5,338C 166.635,337.251 167.635,337.417 168.5,338.5C 164.826,341.339 160.826,343.672 156.5,345.5C 147.885,341.526 139.551,337.026 131.5,332C 130.748,331.329 130.414,330.496 130.5,329.5 Z"/></g>
</svg>
