<?xml version="1.0" encoding="UTF-8"?>
<!DOCTYPE svg PUBLIC "-//W3C//DTD SVG 1.1//EN" "http://www.w3.org/Graphics/SVG/1.1/DTD/svg11.dtd">
<svg xmlns="http://www.w3.org/2000/svg" version="1.1" width="512px" height="512px" style="shape-rendering:geometricPrecision; text-rendering:geometricPrecision; image-rendering:optimizeQuality; fill-rule:evenodd; clip-rule:evenodd" xmlns:xlink="http://www.w3.org/1999/xlink">
<g><path style="opacity:0.988" fill="#d9dddd" d="M 324.5,52.5 C 324.167,52.5 323.833,52.5 323.5,52.5C 271.392,82.0569 219.392,111.89 167.5,142C 162.854,145.642 159.354,150.142 157,155.5C 155.84,208.776 155.34,262.109 155.5,315.5C 155.667,367.833 155.833,420.167 156,472.5C 157.298,473.946 157.465,475.279 156.5,476.5C 146.194,470.679 135.861,464.845 125.5,459C 123.622,457.457 122.122,455.624 121,453.5C 120.243,382.502 119.743,311.502 119.5,240.5C 119.347,205.788 119.847,171.121 121,136.5C 123.291,130.206 127.125,125.039 132.5,121C 184.092,91.7327 235.425,62.0661 286.5,32C 287.5,31.3333 288.5,31.3333 289.5,32C 301.23,38.8598 312.896,45.6932 324.5,52.5 Z"/></g>
<g><path style="opacity:0.996" fill="#e9eeee" d="M 323.5,52.5 C 323.333,74.1692 323.5,95.8359 324,117.5C 324.713,121.046 326.88,123.046 330.5,123.5C 335.059,122.221 339.392,120.388 343.5,118C 358.337,109.081 373.337,100.414 388.5,92C 389.252,91.3292 389.586,90.4959 389.5,89.5C 390.331,103.994 390.831,118.661 391,133.5C 391.667,201.833 391.667,270.167 391,338.5C 388.834,346.658 384.334,353.158 377.5,358C 308.833,397.667 240.167,437.333 171.5,477C 166.231,480.458 161.231,480.291 156.5,476.5C 157.465,475.279 157.298,473.946 156,472.5C 155.833,420.167 155.667,367.833 155.5,315.5C 155.34,262.109 155.84,208.776 157,155.5C 159.354,150.142 162.854,145.642 167.5,142C 219.392,111.89 271.392,82.0569 323.5,52.5 Z"/></g>
<g><path style="opacity:1" fill="#d6d4d2" d="M 323.5,52.5 C 323.833,52.5 324.167,52.5 324.5,52.5C 346.329,64.5803 367.996,76.9137 389.5,89.5C 389.586,90.4959 389.252,91.3292 388.5,92C 373.337,100.414 358.337,109.081 343.5,118C 339.392,120.388 335.059,122.221 330.5,123.5C 326.88,123.046 324.713,121.046 324,117.5C 323.5,95.8359 323.333,74.1692 323.5,52.5 Z"/></g>
<g><path style="opacity:1" fill="#d9dddd" d="M 311.5,104.5 C 312.812,106.743 313.478,109.41 313.5,112.5C 313.476,115.421 313.143,118.254 312.5,121C 288.421,134.455 264.588,148.288 241,162.5C 240.17,156.804 240.337,151.137 241.5,145.5C 264.896,131.807 288.23,118.14 311.5,104.5 Z"/></g>
<g><path style="opacity:1" fill="#d9dddd" d="M 367.5,120.5 C 368.816,126.013 368.816,131.68 367.5,137.5C 325.5,161.833 283.5,186.167 241.5,210.5C 240.337,205.198 240.171,199.864 241,194.5C 283.312,169.933 325.478,145.266 367.5,120.5 Z"/></g>
<g><path style="opacity:1" fill="#efc44c" d="M 202.5,156.5 C 204.117,157.589 204.95,159.256 205,161.5C 209.763,158.635 214.929,157.302 220.5,157.5C 219.5,161.5 218.5,165.5 217.5,169.5C 213.124,169.114 208.957,169.781 205,171.5C 204.501,177.491 204.334,183.491 204.5,189.5C 221.875,185.379 227.375,191.712 221,208.5C 217.487,216.348 212.154,222.681 205,227.5C 205.349,232.348 203.349,235.682 199,237.5C 198.808,235.423 198.308,233.423 197.5,231.5C 191.575,235.192 185.242,236.192 178.5,234.5C 179.346,231.452 180.346,228.452 181.5,225.5C 187.213,224.924 192.713,223.591 198,221.5C 198.499,215.509 198.666,209.509 198.5,203.5C 193.933,204.967 189.267,205.467 184.5,205C 180.92,202.282 179.254,198.615 179.5,194C 181.232,182.259 187.066,173.093 197,166.5C 196.753,161.839 198.586,158.505 202.5,156.5 Z"/></g>
<g><path style="opacity:1" fill="#d9dddd" d="M 366.5,169.5 C 367.812,171.743 368.478,174.41 368.5,177.5C 368.476,180.421 368.143,183.254 367.5,186C 304.415,222.626 241.248,259.126 178,295.5C 177.17,289.804 177.337,284.137 178.5,278.5C 241.557,242.645 304.224,206.312 366.5,169.5 Z"/></g>
<g><path style="opacity:1" fill="#ebebe1" d="M 197.5,175.5 C 198.489,180.975 198.822,186.642 198.5,192.5C 196.143,192.663 193.81,192.497 191.5,192C 190.128,188.459 190.294,184.959 192,181.5C 194.04,179.63 195.873,177.63 197.5,175.5 Z"/></g>
<g><path style="opacity:1" fill="#eaece5" d="M 205.5,200.5 C 207.527,200.338 209.527,200.505 211.5,201C 212.872,204.541 212.706,208.041 211,211.5C 209,213.5 207,215.5 205,217.5C 204.215,211.751 204.382,206.084 205.5,200.5 Z"/></g>
<g><path style="opacity:1" fill="#d9dddd" d="M 367.5,217.5 C 368.816,223.013 368.816,228.68 367.5,234.5C 304.663,271.086 241.663,307.419 178.5,343.5C 177.194,337.946 177.194,332.446 178.5,327C 241.669,290.636 304.669,254.136 367.5,217.5 Z"/></g>
<g><path style="opacity:1" fill="#293041" d="M 353.5,316.5 C 353.5,304.833 353.5,293.167 353.5,281.5C 353.307,278.525 354.307,276.025 356.5,274C 362.997,270.586 369.33,266.919 375.5,263C 376.793,262.51 378.127,262.343 379.5,262.5C 379.667,278.503 379.5,294.503 379,310.5C 371.983,316.178 364.317,320.844 356,324.5C 355.228,324.355 354.561,324.022 354,323.5C 353.503,321.19 353.337,318.857 353.5,316.5 Z"/></g>
<g><path style="opacity:1" fill="#e3e4e6" d="M 371.5,270.5 C 372.833,270.5 374.167,270.5 375.5,270.5C 375.462,274.027 373.962,276.693 371,278.5C 369.268,278.266 368.434,277.266 368.5,275.5C 369.092,273.577 370.092,271.911 371.5,270.5 Z"/></g>
<g><path style="opacity:1" fill="#fed652" d="M 353.5,281.5 C 353.5,293.167 353.5,304.833 353.5,316.5C 349.98,317.353 347.313,319.353 345.5,322.5C 335.67,318.339 325.837,314.006 316,309.5C 312.461,311.2 309.794,313.867 308,317.5C 302.711,323.796 296.544,328.962 289.5,333C 282.083,335.097 280.083,332.93 283.5,326.5C 289.449,318.044 295.616,309.711 302,301.5C 311.086,292.022 322.252,287.188 335.5,287C 341.439,284.853 347.439,283.02 353.5,281.5 Z"/></g>
<g><path style="opacity:1" fill="#efc24a" d="M 345.5,322.5 C 346.909,329.652 343.909,333.652 336.5,334.5C 336.35,341.648 332.684,344.981 325.5,344.5C 324.714,350.285 321.38,353.285 315.5,353.5C 315.062,357.192 313.062,359.692 309.5,361C 299.108,361.515 288.775,361.181 278.5,360C 276.959,362.677 275.959,365.51 275.5,368.5C 275.5,354.833 275.5,341.167 275.5,327.5C 278.127,326.908 280.794,326.575 283.5,326.5C 280.083,332.93 282.083,335.097 289.5,333C 296.544,328.962 302.711,323.796 308,317.5C 309.794,313.867 312.461,311.2 316,309.5C 325.837,314.006 335.67,318.339 345.5,322.5 Z"/></g>
<g><path style="opacity:1" fill="#e53c2e" d="M 275.5,327.5 C 275.5,341.167 275.5,354.833 275.5,368.5C 274.797,370.716 273.464,372.549 271.5,374C 265.064,377.634 258.564,381.134 252,384.5C 251.228,384.355 250.561,384.022 250,383.5C 249.333,368.167 249.333,352.833 250,337.5C 257.494,330.835 265.994,325.835 275.5,322.5C 275.5,324.167 275.5,325.833 275.5,327.5 Z"/></g>
<g><path style="opacity:1" fill="#fde8e6" d="M 257.5,334.5 C 258.833,334.5 260.167,334.5 261.5,334.5C 261.797,338.245 260.297,340.911 257,342.5C 255.5,342.333 254.667,341.5 254.5,340C 255.124,337.915 256.124,336.082 257.5,334.5 Z"/></g>
<g><path style="opacity:1" fill="#d9dddd" d="M 227.5,346.5 C 228.825,352.234 228.825,358.068 227.5,364C 210.755,373.121 194.255,382.621 178,392.5C 177.17,386.804 177.337,381.137 178.5,375.5C 195.061,366.059 211.395,356.392 227.5,346.5 Z"/></g>
<g><path style="opacity:1" fill="#d9dddd" d="M 226.5,395.5 C 227.812,397.743 228.478,400.41 228.5,403.5C 228.333,406.167 228.167,408.833 228,411.5C 211.582,421.293 195.082,430.959 178.5,440.5C 177.194,434.946 177.194,429.446 178.5,424C 194.728,414.726 210.728,405.226 226.5,395.5 Z"/></g>
</svg>
