<?xml version="1.0" encoding="UTF-8"?>
<!DOCTYPE svg PUBLIC "-//W3C//DTD SVG 1.1//EN" "http://www.w3.org/Graphics/SVG/1.1/DTD/svg11.dtd">
<svg xmlns="http://www.w3.org/2000/svg" version="1.1" width="512px" height="512px" style="shape-rendering:geometricPrecision; text-rendering:geometricPrecision; image-rendering:optimizeQuality; fill-rule:evenodd; clip-rule:evenodd" xmlns:xlink="http://www.w3.org/1999/xlink">
<g><path style="opacity:0.919" fill="#dca760" d="M 280.5,178.5 C 286.625,163.442 287.125,148.109 282,132.5C 274.82,112.602 262.32,97.1024 244.5,86C 237.88,82.5144 230.88,81.1811 223.5,82C 222.255,82.7914 220.922,83.2914 219.5,83.5C 220.058,82.2101 221.058,81.3768 222.5,81C 230.606,77.7484 238.606,78.0817 246.5,82C 273.477,98.0966 288.144,121.93 290.5,153.5C 291.055,163.522 287.722,171.856 280.5,178.5 Z"/></g>
<g><path style="opacity:1" fill="#fdd274" d="M 280.5,178.5 C 277.322,181.258 273.655,183.258 269.5,184.5C 275.724,177.027 278.391,168.36 277.5,158.5C 274.896,133.792 264.229,113.292 245.5,97C 235.871,89.4449 225.205,85.9449 213.5,86.5C 215.181,84.9925 217.181,83.9925 219.5,83.5C 220.922,83.2914 222.255,82.7914 223.5,82C 230.88,81.1811 237.88,82.5144 244.5,86C 262.32,97.1024 274.82,112.602 282,132.5C 287.125,148.109 286.625,163.442 280.5,178.5 Z"/></g>
<g><path style="opacity:1" fill="#dba760" d="M 213.5,86.5 C 225.205,85.9449 235.871,89.4449 245.5,97C 264.229,113.292 274.896,133.792 277.5,158.5C 278.391,168.36 275.724,177.027 269.5,184.5C 268.341,186.25 266.674,187.25 264.5,187.5C 271.242,180.614 274.242,172.281 273.5,162.5C 271.662,137.991 261.662,117.491 243.5,101C 233.533,91.8442 221.867,88.0109 208.5,89.5C 209.965,88.2632 211.632,87.2632 213.5,86.5 Z"/></g>
<g><path style="opacity:0.995" fill="#bf7d59" d="M 264.5,187.5 C 263.942,188.79 262.942,189.623 261.5,190C 258.217,191.023 254.884,191.857 251.5,192.5C 245.191,191.593 238.858,190.927 232.5,190.5C 235.076,186.114 237.076,181.447 238.5,176.5C 240.873,153.412 232.539,135.246 213.5,122C 211.146,121.153 208.812,120.32 206.5,119.5C 201.156,117.367 195.489,116.367 189.5,116.5C 192.396,109.708 195.563,103.041 199,96.5C 201.483,93.1767 204.649,90.8434 208.5,89.5C 221.867,88.0109 233.533,91.8442 243.5,101C 261.662,117.491 271.662,137.991 273.5,162.5C 274.242,172.281 271.242,180.614 264.5,187.5 Z"/></g>
<g><path style="opacity:0.99" fill="#aa6255" d="M 189.5,116.5 C 195.489,116.367 201.156,117.367 206.5,119.5C 226.278,133.389 236.944,152.389 238.5,176.5C 237.076,181.447 235.076,186.114 232.5,190.5C 229.639,194.562 225.639,196.562 220.5,196.5C 218.218,195.777 215.884,195.443 213.5,195.5C 216.179,193.399 219.012,191.399 222,189.5C 226.28,182.437 227.613,174.77 226,166.5C 221.965,150.592 213.132,138.092 199.5,129C 191.465,125.273 183.799,125.773 176.5,130.5C 178.127,123.2 182.46,118.533 189.5,116.5 Z"/></g>
<g><path style="opacity:1" fill="#8d4b52" d="M 206.5,119.5 C 208.812,120.32 211.146,121.153 213.5,122C 232.539,135.246 240.873,153.412 238.5,176.5C 236.944,152.389 226.278,133.389 206.5,119.5 Z"/></g>
<g><path style="opacity:0.992" fill="#feb860" d="M 213.5,195.5 C 212.29,195.932 211.29,196.599 210.5,197.5C 205.4,196.069 203.067,192.735 203.5,187.5C 202.704,182.701 200.037,179.367 195.5,177.5C 188.413,174.181 182.08,175.347 176.5,181C 167.679,189.461 164.512,199.628 167,211.5C 168.558,214.021 170.725,215.688 173.5,216.5C 173.833,217.167 174.167,217.833 174.5,218.5C 166.483,222.862 158.483,227.195 150.5,231.5C 150.5,230.5 150.5,229.5 150.5,228.5C 154.347,207.628 148.014,190.128 131.5,176C 126.964,172.732 121.964,170.565 116.5,169.5C 114.973,169.573 113.973,168.906 113.5,167.5C 134.3,154.929 155.3,142.596 176.5,130.5C 183.799,125.773 191.465,125.273 199.5,129C 213.132,138.092 221.965,150.592 226,166.5C 227.613,174.77 226.28,182.437 222,189.5C 219.012,191.399 216.179,193.399 213.5,195.5 Z"/></g>
<g><path style="opacity:0.992" fill="#daa55f" d="M 452.5,175.5 C 454.123,183.935 454.457,192.269 453.5,200.5C 453.664,197.813 453.497,195.146 453,192.5C 446.05,205.766 435.217,214.266 420.5,218C 393.525,225.867 367.525,223.534 342.5,211C 334.538,206.209 328.538,199.709 324.5,191.5C 324.051,185.647 324.717,179.98 326.5,174.5C 328.193,170.628 330.526,167.128 333.5,164C 349.935,151.968 368.435,146.134 389,146.5C 409.02,146.176 427.187,151.676 443.5,163C 447.377,166.608 450.377,170.775 452.5,175.5 Z"/></g>
<g><path style="opacity:1" fill="#bf7d5a" d="M 379.5,163.5 C 392.142,162.411 404.142,164.577 415.5,170C 429.389,181.491 428.389,191.825 412.5,201C 395.464,207.645 378.797,206.978 362.5,199C 351.067,191.746 349.734,183.079 358.5,173C 364.848,168.171 371.848,165.005 379.5,163.5 Z"/></g>
<g><path style="opacity:0.985" fill="#aa6256" d="M 113.5,167.5 C 113.973,168.906 114.973,169.573 116.5,169.5C 138.687,182.735 150.02,202.402 150.5,228.5C 150.5,229.5 150.5,230.5 150.5,231.5C 149.648,239.009 145.648,243.676 138.5,245.5C 137.517,241.702 137.183,237.702 137.5,233.5C 140.405,213.756 134.072,197.256 118.5,184C 114.694,180.786 110.361,178.62 105.5,177.5C 101.779,175.646 98.4459,173.313 95.5,170.5C 100.833,166.455 106.833,165.455 113.5,167.5 Z"/></g>
<g><path style="opacity:0.968" fill="#c07e5a" d="M 95.5,170.5 C 98.4459,173.313 101.779,175.646 105.5,177.5C 122.854,192.193 133.521,210.859 137.5,233.5C 137.183,237.702 137.517,241.702 138.5,245.5C 138.435,255.299 134.435,262.965 126.5,268.5C 129.726,264.039 131.893,259.039 133,253.5C 134.847,220.696 122.347,194.862 95.5,176C 86.7574,170.772 77.4241,169.272 67.5,171.5C 71.3989,168.481 75.8989,167.148 81,167.5C 86.0382,167.57 90.8715,168.57 95.5,170.5 Z"/></g>
<g><path style="opacity:1" fill="#fcd074" d="M 126.5,268.5 C 123.15,270.196 119.817,271.863 116.5,273.5C 123.259,265.891 126.259,256.891 125.5,246.5C 122.917,220.828 111.583,199.995 91.5,184C 82.7995,177.581 73.1328,174.415 62.5,174.5C 63.8993,173.11 65.5659,172.11 67.5,171.5C 77.4241,169.272 86.7574,170.772 95.5,176C 122.347,194.862 134.847,220.696 133,253.5C 131.893,259.039 129.726,264.039 126.5,268.5 Z"/></g>
<g><path style="opacity:1" fill="#c27f5a" d="M 116.5,169.5 C 121.964,170.565 126.964,172.732 131.5,176C 148.014,190.128 154.347,207.628 150.5,228.5C 150.02,202.402 138.687,182.735 116.5,169.5 Z"/></g>
<g><path style="opacity:0.999" fill="#c2815b" d="M 62.5,174.5 C 73.1328,174.415 82.7995,177.581 91.5,184C 111.583,199.995 122.917,220.828 125.5,246.5C 126.259,256.891 123.259,265.891 116.5,273.5C 115.957,273.44 115.624,273.107 115.5,272.5C 118.4,268.639 120.233,264.305 121,259.5C 121.577,227.154 108.744,201.654 82.5,183C 74.1203,177.719 65.1203,176.219 55.5,178.5C 57.6626,176.917 59.9959,175.584 62.5,174.5 Z"/></g>
<g><path style="opacity:0.997" fill="#f7cc6a" d="M 326.5,174.5 C 324.717,179.98 324.051,185.647 324.5,191.5C 323.614,201.678 326.947,210.178 334.5,217C 345.963,225.892 358.963,231.226 373.5,233C 391.999,235.078 409.999,233.078 427.5,227C 440.437,222.231 449.104,213.397 453.5,200.5C 454.457,192.269 454.123,183.935 452.5,175.5C 456.73,178.953 459.73,183.287 461.5,188.5C 462.038,190.117 462.371,191.784 462.5,193.5C 463.816,201.68 461.982,209.013 457,215.5C 448.211,225.483 437.377,232.316 424.5,236C 416.372,238.577 408.039,240.077 399.5,240.5C 379.676,242.095 360.676,238.929 342.5,231C 332.816,226.643 324.983,220.143 319,211.5C 317.772,208.402 316.606,205.402 315.5,202.5C 315.283,197.77 315.617,193.103 316.5,188.5C 318.677,182.993 322.01,178.326 326.5,174.5 Z"/></g>
<g><path style="opacity:0.993" fill="#daa55f" d="M 116.5,273.5 C 107.869,280.902 98.2026,282.402 87.5,278C 65.5566,266.312 51.0566,248.479 44,224.5C 40.7383,213.144 40.7383,201.811 44,190.5C 46.0124,184.656 49.8457,180.656 55.5,178.5C 65.1203,176.219 74.1203,177.719 82.5,183C 108.744,201.654 121.577,227.154 121,259.5C 120.233,264.305 118.4,268.639 115.5,272.5C 115.624,273.107 115.957,273.44 116.5,273.5 Z"/></g>
<g><path style="opacity:1" fill="#8b4952" d="M 105.5,177.5 C 110.361,178.62 114.694,180.786 118.5,184C 134.072,197.256 140.405,213.756 137.5,233.5C 133.521,210.859 122.854,192.193 105.5,177.5 Z"/></g>
<g><path style="opacity:1" fill="#ac6556" d="M 195.5,177.5 C 177.506,184.489 170.172,197.489 173.5,216.5C 170.725,215.688 168.558,214.021 167,211.5C 164.512,199.628 167.679,189.461 176.5,181C 182.08,175.347 188.413,174.181 195.5,177.5 Z"/></g>
<g><path style="opacity:0.988" fill="#bf7d59" d="M 195.5,177.5 C 200.037,179.367 202.704,182.701 203.5,187.5C 203.662,189.527 203.495,191.527 203,193.5C 193.985,187.122 187.318,189.122 183,199.5C 181.632,202.738 181.299,206.072 182,209.5C 184.548,212.189 187.382,214.523 190.5,216.5C 185.577,220.686 180.244,221.353 174.5,218.5C 174.167,217.833 173.833,217.167 173.5,216.5C 170.172,197.489 177.506,184.489 195.5,177.5 Z"/></g>
<g><path style="opacity:0.982" fill="#daa560" d="M 203.5,187.5 C 203.067,192.735 205.4,196.069 210.5,197.5C 229.633,207.567 248.633,217.9 267.5,228.5C 259.668,234.651 255.334,242.651 254.5,252.5C 233.167,240.5 211.833,228.5 190.5,216.5C 187.382,214.523 184.548,212.189 182,209.5C 181.299,206.072 181.632,202.738 183,199.5C 187.318,189.122 193.985,187.122 203,193.5C 203.495,191.527 203.662,189.527 203.5,187.5 Z"/></g>
<g><path style="opacity:0.99" fill="#bf7d5a" d="M 316.5,188.5 C 315.617,193.103 315.283,197.77 315.5,202.5C 315.006,209.51 316.839,215.843 321,221.5C 333.815,235.268 349.648,243.435 368.5,246C 378.116,247.324 387.783,247.824 397.5,247.5C 416.563,246.573 433.896,240.74 449.5,230C 461.698,220.472 466.032,208.305 462.5,193.5C 462.371,191.784 462.038,190.117 461.5,188.5C 468.001,195.47 470.667,203.803 469.5,213.5C 467.489,219.184 464.656,224.517 461,229.5C 445.065,244.045 426.232,252.211 404.5,254C 378.362,256.867 353.696,252.2 330.5,240C 319.121,233.474 311.788,223.974 308.5,211.5C 308.017,202.61 310.684,194.944 316.5,188.5 Z"/></g>
<g><path style="opacity:1" fill="#bf7e5a" d="M 324.5,191.5 C 328.538,199.709 334.538,206.209 342.5,211C 367.525,223.534 393.525,225.867 420.5,218C 435.217,214.266 446.05,205.766 453,192.5C 453.497,195.146 453.664,197.813 453.5,200.5C 449.104,213.397 440.437,222.231 427.5,227C 409.999,233.078 391.999,235.078 373.5,233C 358.963,231.226 345.963,225.892 334.5,217C 326.947,210.178 323.614,201.678 324.5,191.5 Z"/></g>
<g><path style="opacity:1" fill="#f1a251" d="M 462.5,193.5 C 466.032,208.305 461.698,220.472 449.5,230C 433.896,240.74 416.563,246.573 397.5,247.5C 399.148,245.544 399.815,243.211 399.5,240.5C 408.039,240.077 416.372,238.577 424.5,236C 437.377,232.316 448.211,225.483 457,215.5C 461.982,209.013 463.816,201.68 462.5,193.5 Z"/></g>
<g><path style="opacity:1" fill="#fbb661" d="M 315.5,202.5 C 316.606,205.402 317.772,208.402 319,211.5C 324.983,220.143 332.816,226.643 342.5,231C 360.676,238.929 379.676,242.095 399.5,240.5C 399.815,243.211 399.148,245.544 397.5,247.5C 387.783,247.824 378.116,247.324 368.5,246C 349.648,243.435 333.815,235.268 321,221.5C 316.839,215.843 315.006,209.51 315.5,202.5 Z"/></g>
<g><path style="opacity:0.913" fill="#ab6255" d="M 308.5,211.5 C 311.788,223.974 319.121,233.474 330.5,240C 353.696,252.2 378.362,256.867 404.5,254C 426.232,252.211 445.065,244.045 461,229.5C 464.656,224.517 467.489,219.184 469.5,213.5C 469.478,221.401 466.978,228.401 462,234.5C 450.443,246.031 436.61,253.531 420.5,257C 389.137,264.071 359.137,260.405 330.5,246C 321.146,240.316 314.312,232.482 310,222.5C 308.892,218.914 308.392,215.247 308.5,211.5 Z"/></g>
<g><path style="opacity:0.986" fill="#986ff8" d="M 386.5,290.5 C 379.682,291.165 374.516,294.499 371,300.5C 366.687,307.54 366.52,314.54 370.5,321.5C 331.82,300.743 293.653,279.076 256,256.5C 255.59,255.099 255.09,253.766 254.5,252.5C 255.334,242.651 259.668,234.651 267.5,228.5C 270.073,227.445 272.739,227.278 275.5,228C 312.886,248.354 349.886,269.188 386.5,290.5 Z"/></g>
<g><path style="opacity:0.979" fill="#f6f5fc" d="M 242.5,268.5 C 240.178,270.664 237.511,272.331 234.5,273.5C 224.906,268.423 215.406,263.09 206,257.5C 201.083,260.375 196.249,263.375 191.5,266.5C 191.709,267.086 192.043,267.586 192.5,268C 201.395,272.941 210.062,278.108 218.5,283.5C 204.26,291.072 190.26,299.072 176.5,307.5C 169.466,304.233 162.633,300.566 156,296.5C 151.113,298.359 146.613,300.859 142.5,304C 148.336,307.752 154.336,311.252 160.5,314.5C 161.298,314.957 161.631,315.624 161.5,316.5C 160.391,316.557 159.391,316.89 158.5,317.5C 157.833,317.5 157.5,317.833 157.5,318.5C 144.833,311.167 132.167,303.833 119.5,296.5C 147.559,279.793 175.893,263.459 204.5,247.5C 217.478,253.988 230.145,260.988 242.5,268.5 Z"/></g>
<g><path style="opacity:1" fill="#75d563" d="M 234.5,273.5 C 236.316,275.137 238.316,276.637 240.5,278C 235.787,281.356 230.787,284.189 225.5,286.5C 223.297,285.233 220.963,284.233 218.5,283.5C 210.062,278.108 201.395,272.941 192.5,268C 192.043,267.586 191.709,267.086 191.5,266.5C 196.249,263.375 201.083,260.375 206,257.5C 215.406,263.09 224.906,268.423 234.5,273.5 Z"/></g>
<g><path style="opacity:1" fill="#f7d06b" d="M 211.5,267.5 C 216.162,266.804 220.329,267.804 224,270.5C 224.092,274.089 222.259,276.256 218.5,277C 213.4,278.281 209.733,276.614 207.5,272C 208.344,269.993 209.677,268.493 211.5,267.5 Z"/></g>
<g><path style="opacity:0.996" fill="#78e65b" d="M 242.5,268.5 C 251.454,273.471 260.12,278.805 268.5,284.5C 240.527,300.488 212.527,316.488 184.5,332.5C 183.833,332.833 183.167,333.167 182.5,333.5C 175.894,328.856 168.894,324.689 161.5,321C 159.937,320.241 158.937,319.074 158.5,317.5C 159.391,316.89 160.391,316.557 161.5,316.5C 162.117,316.389 162.617,316.056 163,315.5C 166.082,317.625 169.249,319.625 172.5,321.5C 177.16,319.505 181.494,317.005 185.5,314C 182.433,311.812 179.433,309.645 176.5,307.5C 190.26,299.072 204.26,291.072 218.5,283.5C 220.963,284.233 223.297,285.233 225.5,286.5C 230.787,284.189 235.787,281.356 240.5,278C 238.316,276.637 236.316,275.137 234.5,273.5C 237.511,272.331 240.178,270.664 242.5,268.5 Z"/></g>
<g><path style="opacity:1" fill="#f1f4f1" d="M 268.5,284.5 C 270.153,284.66 271.486,285.326 272.5,286.5C 244.166,301.998 216.166,317.998 188.5,334.5C 187.833,334.833 187.167,335.167 186.5,335.5C 185.833,335.167 185.167,334.833 184.5,334.5C 184.5,333.833 184.5,333.167 184.5,332.5C 212.527,316.488 240.527,300.488 268.5,284.5 Z"/></g>
<g><path style="opacity:1" fill="#fcce05" d="M 272.5,286.5 C 284.836,292.999 296.836,299.999 308.5,307.5C 280.43,324.225 252.097,340.558 223.5,356.5C 212.466,349.497 201.133,342.831 189.5,336.5C 188.702,336.043 188.369,335.376 188.5,334.5C 216.166,317.998 244.166,301.998 272.5,286.5 Z"/></g>
<g><path style="opacity:1" fill="#f7cc6e" d="M 386.5,290.5 C 405.67,300.917 424.67,311.583 443.5,322.5C 433.66,323.486 427.16,328.82 424,338.5C 423.24,342.225 423.407,345.892 424.5,349.5C 424.043,350.298 423.376,350.631 422.5,350.5C 404.836,341.337 387.503,331.67 370.5,321.5C 366.52,314.54 366.687,307.54 371,300.5C 374.516,294.499 379.682,291.165 386.5,290.5 Z"/></g>
<g><path style="opacity:0.981" fill="#d8d9ef" d="M 119.5,296.5 C 132.167,303.833 144.833,311.167 157.5,318.5C 157.5,330.5 157.5,342.5 157.5,354.5C 144.627,347.792 132.127,340.459 120,332.5C 119.5,320.505 119.333,308.505 119.5,296.5 Z"/></g>
<g><path style="opacity:1" fill="#76db62" d="M 176.5,307.5 C 179.433,309.645 182.433,311.812 185.5,314C 181.494,317.005 177.16,319.505 172.5,321.5C 169.249,319.625 166.082,317.625 163,315.5C 162.617,316.056 162.117,316.389 161.5,316.5C 161.631,315.624 161.298,314.957 160.5,314.5C 154.336,311.252 148.336,307.752 142.5,304C 146.613,300.859 151.113,298.359 156,296.5C 162.633,300.566 169.466,304.233 176.5,307.5 Z"/></g>
<g><path style="opacity:1" fill="#edf1e8" d="M 308.5,307.5 C 310.153,307.66 311.486,308.326 312.5,309.5C 284.535,325.818 256.535,342.152 228.5,358.5C 227.833,358.5 227.5,358.833 227.5,359.5C 226.85,359.196 226.183,358.863 225.5,358.5C 224.501,370.148 224.168,381.814 224.5,393.5C 223.833,393.5 223.5,393.167 223.5,392.5C 223.5,380.5 223.5,368.5 223.5,356.5C 252.097,340.558 280.43,324.225 308.5,307.5 Z"/></g>
<g><path style="opacity:0.996" fill="#78e65b" d="M 312.5,309.5 C 321.035,314.263 329.368,319.263 337.5,324.5C 335.795,326.192 333.795,327.525 331.5,328.5C 327.727,326.779 324.061,324.779 320.5,322.5C 315.5,325.333 310.5,328.167 305.5,331C 308.728,333.44 312.061,335.606 315.5,337.5C 294.671,349.749 273.671,361.749 252.5,373.5C 243.905,369.196 235.905,364.196 228.5,358.5C 256.535,342.152 284.535,325.818 312.5,309.5 Z"/></g>
<g><path style="opacity:0.994" fill="#5ec363" d="M 158.5,317.5 C 158.937,319.074 159.937,320.241 161.5,321C 168.894,324.689 175.894,328.856 182.5,333.5C 182.5,345.5 182.5,357.5 182.5,369.5C 173.965,364.737 165.632,359.737 157.5,354.5C 157.5,342.5 157.5,330.5 157.5,318.5C 157.5,317.833 157.833,317.5 158.5,317.5 Z"/></g>
<g><path style="opacity:0.974" fill="#feb962" d="M 443.5,322.5 C 446.689,324.302 448.355,327.135 448.5,331C 447.483,340.378 443.149,347.712 435.5,353C 430.529,355.17 426.196,354.337 422.5,350.5C 423.376,350.631 424.043,350.298 424.5,349.5C 423.407,345.892 423.24,342.225 424,338.5C 427.16,328.82 433.66,323.486 443.5,322.5 Z"/></g>
<g><path style="opacity:0.993" fill="#f5f5fc" d="M 337.5,324.5 C 350.502,331.332 363.168,338.665 375.5,346.5C 347.43,363.225 319.097,379.558 290.5,395.5C 278.116,388.891 265.949,381.891 254,374.5C 253.5,386.495 253.333,398.495 253.5,410.5C 252.833,410.5 252.5,410.167 252.5,409.5C 252.5,397.5 252.5,385.5 252.5,373.5C 273.671,361.749 294.671,349.749 315.5,337.5C 320.611,340.105 325.611,342.939 330.5,346C 333.419,346.552 336.086,345.885 338.5,344C 341.378,342.401 344.044,340.567 346.5,338.5C 341.643,334.908 336.643,331.575 331.5,328.5C 333.795,327.525 335.795,326.192 337.5,324.5 Z"/></g>
<g><path style="opacity:1" fill="#78d565" d="M 331.5,328.5 C 336.643,331.575 341.643,334.908 346.5,338.5C 344.044,340.567 341.378,342.401 338.5,344C 336.086,345.885 333.419,346.552 330.5,346C 325.611,342.939 320.611,340.105 315.5,337.5C 312.061,335.606 308.728,333.44 305.5,331C 310.5,328.167 315.5,325.333 320.5,322.5C 324.061,324.779 327.727,326.779 331.5,328.5 Z"/></g>
<g><path style="opacity:1" fill="#fbd06b" d="M 321.5,330.5 C 325.911,330.021 330.078,330.688 334,332.5C 335.042,335.804 333.875,337.971 330.5,339C 327.5,339.667 324.5,339.667 321.5,339C 317.6,336.055 317.6,333.222 321.5,330.5 Z"/></g>
<g><path style="opacity:1" fill="#d6d8ed" d="M 184.5,334.5 C 185.167,334.833 185.833,335.167 186.5,335.5C 186.5,347.5 186.5,359.5 186.5,371.5C 185.29,371.068 184.29,370.401 183.5,369.5C 183.172,357.655 183.505,345.988 184.5,334.5 Z"/></g>
<g><path style="opacity:1" fill="#f2c611" d="M 188.5,334.5 C 188.369,335.376 188.702,336.043 189.5,336.5C 201.133,342.831 212.466,349.497 223.5,356.5C 223.5,368.5 223.5,380.5 223.5,392.5C 210.905,385.892 198.572,378.892 186.5,371.5C 186.5,359.5 186.5,347.5 186.5,335.5C 187.167,335.167 187.833,334.833 188.5,334.5 Z"/></g>
<g><path style="opacity:0.988" fill="#e9e7fb" d="M 375.5,346.5 C 376.825,358.673 376.825,371.006 375.5,383.5C 347.088,399.455 318.921,415.788 291,432.5C 290.601,432.272 290.435,431.938 290.5,431.5C 290.5,419.5 290.5,407.5 290.5,395.5C 319.097,379.558 347.43,363.225 375.5,346.5 Z"/></g>
<g><path style="opacity:1" fill="#8fcb8e" d="M 184.5,332.5 C 184.5,333.167 184.5,333.833 184.5,334.5C 183.505,345.988 183.172,357.655 183.5,369.5C 183.167,369.5 182.833,369.5 182.5,369.5C 182.5,357.5 182.5,345.5 182.5,333.5C 183.167,333.167 183.833,332.833 184.5,332.5 Z"/></g>
<g><path style="opacity:1" fill="#d5d8ea" d="M 227.5,359.5 C 227.828,371.345 227.495,383.012 226.5,394.5C 225.508,394.672 224.842,394.338 224.5,393.5C 224.168,381.814 224.501,370.148 225.5,358.5C 226.183,358.863 226.85,359.196 227.5,359.5 Z"/></g>
<g><path style="opacity:0.992" fill="#5ec363" d="M 228.5,358.5 C 235.905,364.196 243.905,369.196 252.5,373.5C 252.5,385.5 252.5,397.5 252.5,409.5C 243.499,405.002 234.832,400.002 226.5,394.5C 227.495,383.012 227.828,371.345 227.5,359.5C 227.5,358.833 227.833,358.5 228.5,358.5 Z"/></g>
<g><path style="opacity:0.988" fill="#d8d9ef" d="M 290.5,395.5 C 290.5,407.5 290.5,419.5 290.5,431.5C 277.927,424.928 265.594,417.928 253.5,410.5C 253.333,398.495 253.5,386.495 254,374.5C 265.949,381.891 278.116,388.891 290.5,395.5 Z"/></g>
</svg>
