<?xml version="1.0" encoding="UTF-8"?>
<!DOCTYPE svg PUBLIC "-//W3C//DTD SVG 1.1//EN" "http://www.w3.org/Graphics/SVG/1.1/DTD/svg11.dtd">
<svg xmlns="http://www.w3.org/2000/svg" version="1.1" width="512px" height="512px" style="shape-rendering:geometricPrecision; text-rendering:geometricPrecision; image-rendering:optimizeQuality; fill-rule:evenodd; clip-rule:evenodd" xmlns:xlink="http://www.w3.org/1999/xlink">
<g><path style="opacity:0.988" fill="#ce8e4e" d="M 306.5,47.5 C 289.67,43.565 274.003,46.3983 259.5,56C 222.961,81.581 200.461,116.414 192,160.5C 188.064,181.686 192.564,200.686 205.5,217.5C 197.005,213.087 188.672,208.42 180.5,203.5C 167.778,185.384 163.945,165.384 169,143.5C 178.354,96.569 203.521,61.069 244.5,37C 257.48,31.0407 270.813,30.0407 284.5,34C 292.064,38.2745 299.398,42.7745 306.5,47.5 Z"/></g>
<g><path style="opacity:0.996" fill="#e7a658" d="M 306.5,47.5 C 319.042,53.2006 326.875,62.8672 330,76.5C 333.967,98.8003 331.633,120.467 323,141.5C 316.612,157.287 308.446,171.953 298.5,185.5C 291.443,192.055 284.443,198.888 277.5,206C 265.092,216.703 250.759,223.369 234.5,226C 223.401,227.623 213.735,224.79 205.5,217.5C 192.564,200.686 188.064,181.686 192,160.5C 200.461,116.414 222.961,81.581 259.5,56C 274.003,46.3983 289.67,43.565 306.5,47.5 Z"/></g>
<g><path style="opacity:1" fill="#fed551" d="M 275.5,66.5 C 297.559,63.436 310.725,72.7693 315,94.5C 315.407,137.045 298.574,170.879 264.5,196C 253.162,203.587 240.828,206.253 227.5,204C 216.97,199.127 210.47,190.96 208,179.5C 205.998,138.495 220.831,104.995 252.5,79C 259.653,73.7592 267.319,69.5926 275.5,66.5 Z"/></g>
<g><path style="opacity:1" fill="#e8a757" d="M 264.5,93.5 C 265.999,94.6782 266.999,96.3449 267.5,98.5C 272.835,95.7497 278.501,94.4163 284.5,94.5C 283.032,98.7061 282.032,103.039 281.5,107.5C 276.364,107.292 271.364,107.959 266.5,109.5C 266.5,116.5 266.5,123.5 266.5,130.5C 269.835,129.148 273.335,128.481 277,128.5C 282.087,127.706 285.42,129.706 287,134.5C 287.444,150.608 280.777,162.942 267,171.5C 267.585,176.946 265.419,180.613 260.5,182.5C 259.833,180.5 259.167,178.5 258.5,176.5C 252.263,179.917 245.596,181.25 238.5,180.5C 238.993,176.524 239.993,172.69 241.5,169C 247.392,168.883 253.059,167.717 258.5,165.5C 259.497,158.866 259.83,152.2 259.5,145.5C 243.588,150.758 237.088,145.091 240,128.5C 244.065,118.436 250.398,110.103 259,103.5C 259.186,101.1 259.686,98.7662 260.5,96.5C 262.261,95.9649 263.594,94.9649 264.5,93.5 Z"/></g>
<g><path style="opacity:1" fill="#fdd351" d="M 258.5,114.5 C 259.817,120.346 259.817,126.346 258.5,132.5C 252.038,134.54 249.538,132.206 251,125.5C 252.518,121.151 255.018,117.484 258.5,114.5 Z"/></g>
<g><path style="opacity:1" fill="#fdd351" d="M 266.5,142.5 C 269.187,142.336 271.854,142.503 274.5,143C 276.487,150.694 273.987,156.527 267,160.5C 266.501,154.509 266.334,148.509 266.5,142.5 Z"/></g>
<g><path style="opacity:0.992" fill="#7cd07d" d="M 443.5,211.5 C 442.358,213.433 440.692,214.933 438.5,216C 409.5,232.833 380.5,249.667 351.5,266.5C 350.833,249.338 350.167,232.338 349.5,215.5C 332.466,205.989 315.799,195.989 299.5,185.5C 316.042,176.31 332.542,166.977 349,157.5C 380.593,175.378 412.093,193.378 443.5,211.5 Z"/></g>
<g><path style="opacity:0.997" fill="#638cfd" d="M 298.5,185.5 C 298.833,185.5 299.167,185.5 299.5,185.5C 315.799,195.989 332.466,205.989 349.5,215.5C 349.5,215.833 349.5,216.167 349.5,216.5C 318.48,234.096 287.647,252.096 257,270.5C 256.831,286.005 256.331,301.339 255.5,316.5C 255.667,301.163 255.5,285.83 255,270.5C 223.852,252.014 192.686,233.681 161.5,215.5C 167.665,211.25 173.998,207.25 180.5,203.5C 188.672,208.42 197.005,213.087 205.5,217.5C 213.735,224.79 223.401,227.623 234.5,226C 250.759,223.369 265.092,216.703 277.5,206C 284.443,198.888 291.443,192.055 298.5,185.5 Z"/></g>
<g><path style="opacity:0.994" fill="#70c370" d="M 443.5,211.5 C 444.167,228.33 444.5,245.33 444.5,262.5C 444.647,280.563 444.147,298.563 443,316.5C 411.888,334.638 380.721,352.638 349.5,370.5C 349.5,319.167 349.5,267.833 349.5,216.5C 349.5,216.167 349.5,215.833 349.5,215.5C 350.167,232.338 350.833,249.338 351.5,266.5C 380.5,249.667 409.5,232.833 438.5,216C 440.692,214.933 442.358,213.433 443.5,211.5 Z"/></g>
<g><path style="opacity:0.994" fill="#4977fd" d="M 161.5,215.5 C 192.686,233.681 223.852,252.014 255,270.5C 255.5,285.83 255.667,301.163 255.5,316.5C 255.5,322.5 255.5,328.5 255.5,334.5C 255.167,334.5 254.833,334.5 254.5,334.5C 223.167,316.5 191.833,298.5 160.5,280.5C 160.169,258.66 160.503,236.994 161.5,215.5 Z"/></g>
<g><path style="opacity:0.998" fill="#3e5dea" d="M 349.5,216.5 C 349.5,267.833 349.5,319.167 349.5,370.5C 318.672,388.749 287.672,406.749 256.5,424.5C 256.825,394.426 256.492,364.426 255.5,334.5C 255.5,328.5 255.5,322.5 255.5,316.5C 256.331,301.339 256.831,286.005 257,270.5C 287.647,252.096 318.48,234.096 349.5,216.5 Z"/></g>
<g><path style="opacity:1" fill="#f9fcf9" d="M 400.5,262.5 C 409.827,262.019 412.994,266.352 410,275.5C 408.753,278.329 407.253,280.995 405.5,283.5C 411.868,285.568 414.035,289.902 412,296.5C 406.678,310.656 396.511,318.656 381.5,320.5C 380.875,317.03 381.875,314.196 384.5,312C 392.511,310.641 399.011,306.807 404,300.5C 404.769,297.901 404.602,295.401 403.5,293C 401.833,292.333 400.167,292.333 398.5,293C 395.439,295.035 392.105,296.201 388.5,296.5C 388.34,294.801 388.506,293.134 389,291.5C 393.796,287.947 398.13,283.947 402,279.5C 405.148,271.981 402.981,269.815 395.5,273C 391.318,275.926 387.318,279.093 383.5,282.5C 381.616,281.307 381.116,279.641 382,277.5C 387.17,271.153 393.337,266.153 400.5,262.5 Z"/></g>
<g><path style="opacity:0.997" fill="#fe5230" d="M 160.5,280.5 C 191.833,298.5 223.167,316.5 254.5,334.5C 254.5,335.167 254.5,335.833 254.5,336.5C 224.063,353.22 194.063,370.72 164.5,389C 163.552,389.483 162.552,389.649 161.5,389.5C 130.167,371.5 98.8333,353.5 67.5,335.5C 98.2996,316.929 129.3,298.596 160.5,280.5 Z"/></g>
<g><path style="opacity:1" fill="#f6f7fe" d="M 299.5,336.5 C 300.823,325.993 300.823,315.326 299.5,304.5C 298.893,304.624 298.56,304.957 298.5,305.5C 296.998,307.175 295.665,309.008 294.5,311C 293.207,311.49 291.873,311.657 290.5,311.5C 290.338,309.473 290.505,307.473 291,305.5C 294.465,301.033 298.298,296.867 302.5,293C 304.112,292.28 305.612,292.446 307,293.5C 307.333,306.167 307.667,318.833 308,331.5C 309.753,330.373 311.587,329.373 313.5,328.5C 316.075,331.451 315.742,334.284 312.5,337C 305.962,341.033 299.296,344.866 292.5,348.5C 290.059,346.472 289.892,344.138 292,341.5C 294.382,339.611 296.882,337.945 299.5,336.5 Z"/></g>
<g><path style="opacity:1" fill="#b3bff6" d="M 298.5,305.5 C 298.56,304.957 298.893,304.624 299.5,304.5C 300.823,315.326 300.823,325.993 299.5,336.5C 299.828,325.986 299.494,315.653 298.5,305.5 Z"/></g>
<g><path style="opacity:0.996" fill="#e5392c" d="M 67.5,335.5 C 98.8333,353.5 130.167,371.5 161.5,389.5C 162.492,419.426 162.825,449.426 162.5,479.5C 130.726,461.777 99.0588,443.777 67.5,425.5C 66.1703,395.336 66.1703,365.336 67.5,335.5 Z"/></g>
<g><path style="opacity:0.996" fill="#f3462f" d="M 254.5,336.5 C 255.498,365.995 255.831,395.662 255.5,425.5C 224.5,443.5 193.5,461.5 162.5,479.5C 162.825,449.426 162.492,419.426 161.5,389.5C 162.552,389.649 163.552,389.483 164.5,389C 194.063,370.72 224.063,353.22 254.5,336.5 Z"/></g>
<g><path style="opacity:1" fill="#fff6f4" d="M 212.5,377.5 C 221.108,376.276 224.941,379.943 224,388.5C 223.121,393.136 221.455,397.469 219,401.5C 213.377,409.246 207.877,417.079 202.5,425C 208.462,422.849 214.129,419.849 219.5,416C 220.793,415.51 222.127,415.343 223.5,415.5C 223.78,418.272 223.113,420.772 221.5,423C 214.167,427.333 206.833,431.667 199.5,436C 197.956,437.187 196.289,437.52 194.5,437C 193.398,434.599 193.231,432.099 194,429.5C 199.09,418.978 205.423,409.312 213,400.5C 216.255,396.365 217.088,391.865 215.5,387C 213.833,386.333 212.167,386.333 210.5,387C 206.044,389.626 202.044,392.793 198.5,396.5C 197.264,397.246 195.93,397.579 194.5,397.5C 194.298,395.011 194.798,392.677 196,390.5C 201.112,385.541 206.612,381.207 212.5,377.5 Z"/></g>
<g><path style="opacity:0.875" fill="#7956b0" d="M 254.5,334.5 C 254.833,334.5 255.167,334.5 255.5,334.5C 256.492,364.426 256.825,394.426 256.5,424.5C 256.5,425.167 256.167,425.5 255.5,425.5C 255.831,395.662 255.498,365.995 254.5,336.5C 254.5,335.833 254.5,335.167 254.5,334.5 Z"/></g>
</svg>
