<?xml version="1.0" encoding="UTF-8"?>
<!DOCTYPE svg PUBLIC "-//W3C//DTD SVG 1.1//EN" "http://www.w3.org/Graphics/SVG/1.1/DTD/svg11.dtd">
<svg xmlns="http://www.w3.org/2000/svg" version="1.1" width="512px" height="512px" style="shape-rendering:geometricPrecision; text-rendering:geometricPrecision; image-rendering:optimizeQuality; fill-rule:evenodd; clip-rule:evenodd" xmlns:xlink="http://www.w3.org/1999/xlink">
<g><path style="opacity:0.989" fill="#fe512f" d="M 431.5,221.5 C 440.944,210.249 444.444,197.249 442,182.5C 436.913,148.776 420.413,122.276 392.5,103C 382.307,96.5332 371.307,94.3665 359.5,96.5C 371.475,88.8414 383.808,81.6748 396.5,75C 408.663,72.8707 419.997,75.204 430.5,82C 460.29,103.23 476.623,132.23 479.5,169C 480.21,181.536 476.21,192.203 467.5,201C 455.608,208.11 443.608,214.943 431.5,221.5 Z"/></g>
<g><path style="opacity:0.976" fill="#f44831" d="M 431.5,221.5 C 424.085,227.26 415.751,228.927 406.5,226.5C 414.028,222.48 421.195,217.813 428,212.5C 435.444,200.064 437.444,186.731 434,172.5C 427.505,145.982 413.005,125.148 390.5,110C 382.153,104.908 373.153,103.242 363.5,105C 355.987,108.589 348.654,112.422 341.5,116.5C 344.366,106.97 350.366,100.303 359.5,96.5C 371.307,94.3665 382.307,96.5332 392.5,103C 420.413,122.276 436.913,148.776 442,182.5C 444.444,197.249 440.944,210.249 431.5,221.5 Z"/></g>
<g><path style="opacity:0.999" fill="#eaeeed" d="M 406.5,226.5 C 402.37,229.403 398.037,232.07 393.5,234.5C 397.064,230.389 399.898,225.722 402,220.5C 405.53,182.726 392.03,152.559 361.5,130C 351.295,122.859 340.295,121.026 328.5,124.5C 332.63,121.597 336.963,118.93 341.5,116.5C 348.654,112.422 355.987,108.589 363.5,105C 373.153,103.242 382.153,104.908 390.5,110C 413.005,125.148 427.505,145.982 434,172.5C 437.444,186.731 435.444,200.064 428,212.5C 421.195,217.813 414.028,222.48 406.5,226.5 Z"/></g>
<g><path style="opacity:0.991" fill="#cdcdcb" d="M 393.5,234.5 C 384.933,238.63 375.933,239.63 366.5,237.5C 367.203,235.284 368.536,233.451 370.5,232C 375.95,229.853 381.284,227.52 386.5,225C 394.127,213.023 395.627,200.19 391,186.5C 384.849,166.34 373.015,150.507 355.5,139C 348.609,135.145 341.276,133.812 333.5,135C 326.958,140.382 320.291,145.548 313.5,150.5C 313.311,143.591 315.144,137.257 319,131.5C 321.501,128.152 324.668,125.818 328.5,124.5C 340.295,121.026 351.295,122.859 361.5,130C 392.03,152.559 405.53,182.726 402,220.5C 399.898,225.722 397.064,230.389 393.5,234.5 Z"/></g>
<g><path style="opacity:0.998" fill="#fed551" d="M 366.5,237.5 C 366.167,238.167 365.833,238.833 365.5,239.5C 362.203,242.652 359.37,246.319 357,250.5C 353.96,256.082 350.793,261.582 347.5,267C 348.056,267.383 348.389,267.883 348.5,268.5C 336.044,265.23 328.377,269.897 325.5,282.5C 325.768,285.703 327.102,288.37 329.5,290.5C 317.913,287.315 310.913,291.815 308.5,304C 308.801,307.097 309.801,309.93 311.5,312.5C 297.984,308.171 291.484,313.171 292,327.5C 293.707,329.037 295.207,330.704 296.5,332.5C 285.217,344.626 271.217,349.292 254.5,346.5C 250.037,346.54 245.703,345.873 241.5,344.5C 258.231,333.608 269.397,318.608 275,299.5C 267.806,313.706 258.306,326.206 246.5,337C 238.761,343.204 230.095,345.037 220.5,342.5C 219.5,342.5 218.5,342.5 217.5,342.5C 231.715,329.468 242.548,314.135 250,296.5C 242.699,309.14 233.865,320.64 223.5,331C 219.613,334.111 215.28,336.444 210.5,338C 208.101,338.711 205.768,338.544 203.5,337.5C 202.537,337.97 202.537,338.637 203.5,339.5C 201.57,339.229 200.236,338.229 199.5,336.5C 199.325,334.379 199.659,332.379 200.5,330.5C 211.768,323.733 220.934,314.733 228,303.5C 236.357,289.098 242.357,273.765 246,257.5C 253.561,238.962 267.395,230.462 287.5,232C 297.322,239.206 308.322,242.206 320.5,241C 326.275,239.96 330.275,236.793 332.5,231.5C 334.776,225.508 333.109,220.675 327.5,217C 322.167,213.667 316.833,210.333 311.5,207C 306.724,202.137 301.724,197.47 296.5,193C 292.11,190.091 287.277,188.924 282,189.5C 275.315,190.005 268.648,190.672 262,191.5C 255.449,190.816 248.949,189.816 242.5,188.5C 239.408,188.507 236.408,189.007 233.5,190C 215.751,200.53 198.751,212.03 182.5,224.5C 190.263,215.234 198.596,206.401 207.5,198C 218.167,190 228.833,182 239.5,174C 244.261,171.413 249.261,169.413 254.5,168C 269.5,164.333 284.5,160.667 299.5,157C 304.313,155.093 308.98,152.926 313.5,150.5C 320.291,145.548 326.958,140.382 333.5,135C 341.276,133.812 348.609,135.145 355.5,139C 373.015,150.507 384.849,166.34 391,186.5C 395.627,200.19 394.127,213.023 386.5,225C 381.284,227.52 375.95,229.853 370.5,232C 368.536,233.451 367.203,235.284 366.5,237.5 Z"/></g>
<g><path style="opacity:0.999" fill="#eec348" d="M 332.5,231.5 C 332.631,230.761 332.464,230.094 332,229.5C 324.292,235.953 315.459,238.119 305.5,236C 301.888,234.861 298.554,233.194 295.5,231C 291.985,227.318 288.318,223.818 284.5,220.5C 275.143,231.173 263.477,234.84 249.5,231.5C 249.737,235.273 249.237,238.94 248,242.5C 245.079,247.341 242.412,252.341 240,257.5C 235.261,272.716 229.928,287.716 224,302.5C 221.394,307.435 218.394,312.102 215,316.5C 210.399,320.213 205.565,323.547 200.5,326.5C 198.013,293.176 183.346,266.843 156.5,247.5C 164.75,239.373 173.417,231.706 182.5,224.5C 198.751,212.03 215.751,200.53 233.5,190C 236.408,189.007 239.408,188.507 242.5,188.5C 248.949,189.816 255.449,190.816 262,191.5C 268.648,190.672 275.315,190.005 282,189.5C 287.277,188.924 292.11,190.091 296.5,193C 301.724,197.47 306.724,202.137 311.5,207C 316.833,210.333 322.167,213.667 327.5,217C 333.109,220.675 334.776,225.508 332.5,231.5 Z"/></g>
<g><path style="opacity:1" fill="#deb140" d="M 332.5,231.5 C 330.275,236.793 326.275,239.96 320.5,241C 308.322,242.206 297.322,239.206 287.5,232C 267.395,230.462 253.561,238.962 246,257.5C 242.357,273.765 236.357,289.098 228,303.5C 220.934,314.733 211.768,323.733 200.5,330.5C 200.5,329.167 200.5,327.833 200.5,326.5C 205.565,323.547 210.399,320.213 215,316.5C 218.394,312.102 221.394,307.435 224,302.5C 229.928,287.716 235.261,272.716 240,257.5C 242.412,252.341 245.079,247.341 248,242.5C 249.237,238.94 249.737,235.273 249.5,231.5C 263.477,234.84 275.143,231.173 284.5,220.5C 288.318,223.818 291.985,227.318 295.5,231C 298.554,233.194 301.888,234.861 305.5,236C 315.459,238.119 324.292,235.953 332,229.5C 332.464,230.094 332.631,230.761 332.5,231.5 Z"/></g>
<g><path style="opacity:0.992" fill="#eaeeed" d="M 156.5,247.5 C 183.346,266.843 198.013,293.176 200.5,326.5C 200.5,327.833 200.5,329.167 200.5,330.5C 199.659,332.379 199.325,334.379 199.5,336.5C 198.808,342.412 196.474,347.578 192.5,352C 185.107,357.028 177.44,361.528 169.5,365.5C 172.45,323.571 157.117,290.071 123.5,265C 116.416,260.95 109.083,257.784 101.5,255.5C 110.712,250.394 120.046,245.561 129.5,241C 139.326,239.93 148.326,242.097 156.5,247.5 Z"/></g>
<g><path style="opacity:0.959" fill="#ebbf46" d="M 365.5,239.5 C 369.545,243.38 373.045,247.713 376,252.5C 380.302,264.152 376.469,271.152 364.5,273.5C 360.045,272.877 355.712,271.877 351.5,270.5C 351.158,269.662 350.492,269.328 349.5,269.5C 349.5,268.833 349.167,268.5 348.5,268.5C 348.389,267.883 348.056,267.383 347.5,267C 350.793,261.582 353.96,256.082 357,250.5C 359.37,246.319 362.203,242.652 365.5,239.5 Z"/></g>
<g><path style="opacity:0.995" fill="#fe5230" d="M 101.5,255.5 C 109.083,257.784 116.416,260.95 123.5,265C 157.117,290.071 172.45,323.571 169.5,365.5C 167.698,372.476 164.031,378.31 158.5,383C 146.806,389.845 135.139,396.678 123.5,403.5C 129.704,396.411 133.204,388.077 134,378.5C 134.479,350.604 125.813,325.938 108,304.5C 101.054,296.548 93.2209,289.714 84.5,284C 73.8556,277.795 62.5223,275.961 50.5,278.5C 61.6038,271.441 72.9371,264.608 84.5,258C 89.9648,255.881 95.6315,255.048 101.5,255.5 Z"/></g>
<g><path style="opacity:0.994" fill="#f4462f" d="M 123.5,403.5 C 114.091,409.391 104.091,410.557 93.5,407C 72.5832,398.084 56.7498,383.584 46,363.5C 34.2303,343.983 29.8969,322.983 33,300.5C 34.8076,289.848 40.641,282.515 50.5,278.5C 62.5223,275.961 73.8556,277.795 84.5,284C 93.2209,289.714 101.054,296.548 108,304.5C 125.813,325.938 134.479,350.604 134,378.5C 133.204,388.077 129.704,396.411 123.5,403.5 Z"/></g>
<g><path style="opacity:0.977" fill="#dfb140" d="M 348.5,268.5 C 349.167,268.5 349.5,268.833 349.5,269.5C 349.842,270.338 350.508,270.672 351.5,270.5C 351.833,271.167 352.167,271.833 352.5,272.5C 339.786,268.195 332.12,272.695 329.5,286C 330.452,288.74 331.786,291.24 333.5,293.5C 333.5,293.833 333.5,294.167 333.5,294.5C 322.842,289.912 316.009,293.245 313,304.5C 312.202,307.711 312.702,310.711 314.5,313.5C 313.635,313.564 312.635,313.897 311.5,314.5C 310.537,314.03 310.537,313.363 311.5,312.5C 309.801,309.93 308.801,307.097 308.5,304C 310.913,291.815 317.913,287.315 329.5,290.5C 327.102,288.37 325.768,285.703 325.5,282.5C 328.377,269.897 336.044,265.23 348.5,268.5 Z"/></g>
<g><path style="opacity:1" fill="#edc147" d="M 352.5,272.5 C 354.173,273.343 355.34,274.676 356,276.5C 357.637,284.725 354.804,290.892 347.5,295C 343.822,296.453 340.156,296.953 336.5,296.5C 340.064,305.974 337.397,313.14 328.5,318C 323.978,318.679 319.644,318.346 315.5,317C 317.884,332.498 311.551,337.665 296.5,332.5C 295.207,330.704 293.707,329.037 292,327.5C 291.484,313.171 297.984,308.171 311.5,312.5C 310.537,313.363 310.537,314.03 311.5,314.5C 312.635,313.897 313.635,313.564 314.5,313.5C 312.702,310.711 312.202,307.711 313,304.5C 316.009,293.245 322.842,289.912 333.5,294.5C 334.833,294.167 334.833,293.833 333.5,293.5C 331.786,291.24 330.452,288.74 329.5,286C 332.12,272.695 339.786,268.195 352.5,272.5 Z"/></g>
<g><path style="opacity:0.981" fill="#e8a657" d="M 468.5,344.5 C 464.947,354.23 458.614,361.73 449.5,367C 418.18,382.852 386.513,383.519 354.5,369C 342.629,363.641 334.962,354.808 331.5,342.5C 331.456,328.754 337.456,318.587 349.5,312C 378.282,297.718 407.949,295.718 438.5,306C 450.058,310.237 459.224,317.404 466,327.5C 468.119,332.965 468.952,338.631 468.5,344.5 Z"/></g>
<g><path style="opacity:1" fill="#f0c448" d="M 217.5,342.5 C 212.36,343.09 207.693,342.09 203.5,339.5C 202.537,338.637 202.537,337.97 203.5,337.5C 205.768,338.544 208.101,338.711 210.5,338C 215.28,336.444 219.613,334.111 223.5,331C 233.865,320.64 242.699,309.14 250,296.5C 242.548,314.135 231.715,329.468 217.5,342.5 Z"/></g>
<g><path style="opacity:1" fill="#f1c549" d="M 241.5,344.5 C 236.204,345.509 230.871,345.676 225.5,345C 223.509,344.626 221.842,343.793 220.5,342.5C 230.095,345.037 238.761,343.204 246.5,337C 258.306,326.206 267.806,313.706 275,299.5C 269.397,318.608 258.231,333.608 241.5,344.5 Z"/></g>
<g><path style="opacity:1" fill="#fed551" d="M 387.5,307.5 C 407.565,305.595 426.565,309.095 444.5,318C 461.361,328.094 463.694,340.761 451.5,356C 429.891,370.438 406.224,375.105 380.5,370C 366.75,367.376 354.917,361.209 345,351.5C 339.607,344.033 339.274,336.367 344,328.5C 355.927,316.032 370.427,309.032 387.5,307.5 Z"/></g>
<g><path style="opacity:1" fill="#e8a757" d="M 391.5,318.5 C 396.075,317.343 398.742,319.01 399.5,323.5C 395.002,324.102 390.668,325.269 386.5,327C 390.491,329.578 394.657,331.745 399,333.5C 405.98,330.987 413.147,330.154 420.5,331C 425.872,332.33 429.538,335.497 431.5,340.5C 430.461,344.375 428.128,347.208 424.5,349C 425.833,350 427.167,351 428.5,352C 427.069,352.465 425.903,353.299 425,354.5C 423.323,353.484 421.657,352.484 420,351.5C 412.866,354.782 405.366,356.448 397.5,356.5C 397.5,354.5 397.5,352.5 397.5,350.5C 402.772,350.281 407.772,349.114 412.5,347C 409.167,345 405.833,343 402.5,341C 398.844,341.304 395.177,341.971 391.5,343C 383.264,344.995 376.098,343.162 370,337.5C 368.527,332.785 369.86,329.119 374,326.5C 373.737,325.049 373.904,323.716 374.5,322.5C 377.067,322.222 379.733,322.056 382.5,322C 385.571,320.704 388.571,319.538 391.5,318.5 Z"/></g>
<g><path style="opacity:1" fill="#fcd151" d="M 381.5,329.5 C 385.273,331.221 388.939,333.221 392.5,335.5C 388.927,337.874 385.26,338.041 381.5,336C 378.939,333.844 378.939,331.677 381.5,329.5 Z"/></g>
<g><path style="opacity:1" fill="#fdd351" d="M 407.5,337.5 C 411.182,337.335 414.848,337.501 418.5,338C 420.62,339.523 420.953,341.356 419.5,343.5C 418.277,344.614 416.944,344.781 415.5,344C 412.661,342.08 409.661,340.413 406.5,339C 407.056,338.617 407.389,338.117 407.5,337.5 Z"/></g>
<g><path style="opacity:0.992" fill="#e8a657" d="M 330.5,349.5 C 331.245,352.39 331.912,355.39 332.5,358.5C 326.038,361.116 320.871,365.449 317,371.5C 314.584,378.51 315.25,385.176 319,391.5C 329.317,402.076 341.817,408.576 356.5,411C 377.282,413.936 397.282,411.269 416.5,403C 419.672,401.248 422.672,399.248 425.5,397C 427.141,395.871 428.141,394.371 428.5,392.5C 432.692,391.152 436.859,389.486 441,387.5C 438.557,395.307 433.723,401.473 426.5,406C 406.021,417.638 384.021,421.971 360.5,419C 342.196,417.094 326.362,409.928 313,397.5C 309.107,392.718 306.607,387.385 305.5,381.5C 307.591,365.998 315.924,355.331 330.5,349.5 Z"/></g>
<g><path style="opacity:1" fill="#fed551" d="M 332.5,358.5 C 332.898,363.193 334.398,367.526 337,371.5C 346.01,381.76 357.177,388.593 370.5,392C 371.406,393.699 371.739,395.533 371.5,397.5C 385.419,395.85 399.419,395.017 413.5,395C 418.556,394.38 423.556,393.546 428.5,392.5C 428.141,394.371 427.141,395.871 425.5,397C 422.672,399.248 419.672,401.248 416.5,403C 397.282,411.269 377.282,413.936 356.5,411C 341.817,408.576 329.317,402.076 319,391.5C 315.25,385.176 314.584,378.51 317,371.5C 320.871,365.449 326.038,361.116 332.5,358.5 Z"/></g>
<g><path style="opacity:0.981" fill="#db9952" d="M 331.5,342.5 C 334.962,354.808 342.629,363.641 354.5,369C 386.513,383.519 418.18,382.852 449.5,367C 458.614,361.73 464.947,354.23 468.5,344.5C 471.207,365.092 463.04,379.425 444,387.5C 445.257,405.161 438.091,417.994 422.5,426C 391.258,440.33 359.925,440.664 328.5,427C 309.607,417.715 301.94,402.548 305.5,381.5C 306.607,387.385 309.107,392.718 313,397.5C 326.362,409.928 342.196,417.094 360.5,419C 384.021,421.971 406.021,417.638 426.5,406C 433.723,401.473 438.557,395.307 441,387.5C 436.859,389.486 432.692,391.152 428.5,392.5C 423.556,393.546 418.556,394.38 413.5,395C 399.419,395.017 385.419,395.85 371.5,397.5C 371.739,395.533 371.406,393.699 370.5,392C 357.177,388.593 346.01,381.76 337,371.5C 334.398,367.526 332.898,363.193 332.5,358.5C 331.912,355.39 331.245,352.39 330.5,349.5C 331.369,347.283 331.702,344.95 331.5,342.5 Z"/></g>
</svg>
