<?xml version="1.0" encoding="UTF-8"?>
<!DOCTYPE svg PUBLIC "-//W3C//DTD SVG 1.1//EN" "http://www.w3.org/Graphics/SVG/1.1/DTD/svg11.dtd">
<svg xmlns="http://www.w3.org/2000/svg" version="1.1" width="512px" height="512px" style="shape-rendering:geometricPrecision; text-rendering:geometricPrecision; image-rendering:optimizeQuality; fill-rule:evenodd; clip-rule:evenodd" xmlns:xlink="http://www.w3.org/1999/xlink">
<g><path style="opacity:0.986" fill="#c8cde1" d="M 334.5,57.5 C 331.68,57.2475 329.014,57.7475 326.5,59C 293.167,78.3333 259.833,97.6667 226.5,117C 224.833,117.667 223.167,117.667 221.5,117C 216.685,112.419 211.018,110.419 204.5,111C 191.167,116.333 191.167,121.667 204.5,127C 205.833,128 205.833,129 204.5,130C 161.337,154.414 118.337,179.081 75.5,204C 71.8957,206.708 69.3957,210.208 68,214.5C 67.1735,283.541 67.3401,352.541 68.5,421.5C 60.7409,417.591 53.0743,413.424 45.5,409C 43.9512,407.786 42.7845,406.286 42,404.5C 41.3333,336.167 41.3333,267.833 42,199.5C 44.0551,194.112 47.5551,189.946 52.5,187C 86.7391,167.244 121.072,147.744 155.5,128.5C 155.279,131.067 154.612,133.401 153.5,135.5C 149,136.397 145.666,138.73 143.5,142.5C 146.725,147.463 151.392,150.463 157.5,151.5C 163.557,149.304 169.224,146.304 174.5,142.5C 174.376,141.893 174.043,141.56 173.5,141.5C 173.953,140.542 174.619,139.708 175.5,139C 172.778,136.642 169.778,134.809 166.5,133.5C 167.969,128.426 169.636,123.426 171.5,118.5C 172.167,118.5 172.5,118.167 172.5,117.5C 194.816,104.861 217.15,92.1945 239.5,79.5C 241.446,80.0347 242.446,81.368 242.5,83.5C 239.432,84.5673 237.432,86.5673 236.5,89.5C 236.414,90.4959 236.748,91.3292 237.5,92C 241.491,94.578 245.657,96.7447 250,98.5C 255.675,96.0785 261.175,93.2452 266.5,90C 267.774,89.0228 267.774,88.1894 266.5,87.5C 267.881,85.7259 267.548,84.2259 265.5,83C 261.905,81.2866 258.405,79.4533 255,77.5C 253.97,77.8361 253.47,78.5028 253.5,79.5C 252.264,77.351 251.264,75.0177 250.5,72.5C 266.636,63.598 282.636,54.4313 298.5,45C 301.172,43.4426 304.005,42.276 307,41.5C 316.459,46.4745 325.626,51.8079 334.5,57.5 Z"/></g>
<g><path style="opacity:0.951" fill="#c8cde1" d="M 243.5,57.5 C 219.517,71.1388 195.517,84.8055 171.5,98.5C 169.537,97.1798 167.537,95.8465 165.5,94.5C 188.607,80.7742 211.94,67.2742 235.5,54C 238.76,53.7965 241.427,54.9632 243.5,57.5 Z"/></g>
<g><path style="opacity:0.965" fill="#9ea9c9" d="M 243.5,57.5 C 246.07,62.3106 248.403,67.3106 250.5,72.5C 251.264,75.0177 252.264,77.351 253.5,79.5C 254.418,82.5035 255.751,85.3368 257.5,88C 255.922,89.0945 254.255,89.9278 252.5,90.5C 251.624,90.6309 250.957,90.2975 250.5,89.5C 247.248,81.3262 243.248,73.6596 238.5,66.5C 236.787,66.8793 235.787,67.8793 235.5,69.5C 215.896,79.9702 196.563,90.9702 177.5,102.5C 174.841,107.144 173.174,112.144 172.5,117.5C 171.833,117.5 171.5,117.833 171.5,118.5C 169.636,123.426 167.969,128.426 166.5,133.5C 165.774,136.179 164.941,138.846 164,141.5C 163.184,142.823 162.017,143.489 160.5,143.5C 159.903,143.265 159.57,142.765 159.5,142C 163.404,127.458 167.404,112.958 171.5,98.5C 195.517,84.8055 219.517,71.1388 243.5,57.5 Z"/></g>
<g><path style="opacity:0.999" fill="#c8cde1" d="M 366.5,75.5 C 356.908,79.5324 347.575,84.3657 338.5,90C 262.827,134.505 186.827,178.505 110.5,222C 105.884,224.618 102.717,228.451 101,233.5C 100.509,302.745 100.343,371.745 100.5,440.5C 92.3891,436.228 84.3891,431.728 76.5,427C 75.9152,425.698 75.2485,424.531 74.5,423.5C 74.3333,355.499 74.5,287.499 75,219.5C 77.0969,213.443 80.9303,208.943 86.5,206C 129.245,181.879 171.745,157.379 214,132.5C 214.925,133.047 215.758,133.713 216.5,134.5C 209.5,138.667 202.5,142.833 195.5,147C 194.663,148.011 194.33,149.178 194.5,150.5C 194.414,151.496 194.748,152.329 195.5,153C 198.5,154.667 201.5,156.333 204.5,158C 206.833,158.667 209.167,158.667 211.5,158C 231.003,146.414 250.67,135.081 270.5,124C 272.635,123.124 273.969,121.624 274.5,119.5C 274.67,118.178 274.337,117.011 273.5,116C 269.745,113.205 265.578,111.372 261,110.5C 251.86,114.445 243.027,119.112 234.5,124.5C 232.646,123.824 232.313,122.824 233.5,121.5C 268.194,101.488 302.861,81.4883 337.5,61.5C 339.452,60.5919 341.452,60.7586 343.5,62C 351.194,66.5116 358.861,71.0116 366.5,75.5 Z"/></g>
<g><path style="opacity:0.955" fill="#b1b9d0" d="M 252.5,90.5 C 252.265,91.0967 251.765,91.4301 251,91.5C 246.995,89.9926 244.161,87.3259 242.5,83.5C 242.446,81.368 241.446,80.0347 239.5,79.5C 238.686,75.884 237.352,72.5507 235.5,69.5C 235.787,67.8793 236.787,66.8793 238.5,66.5C 243.248,73.6596 247.248,81.3262 250.5,89.5C 250.957,90.2975 251.624,90.6309 252.5,90.5 Z"/></g>
<g><path style="opacity:0.998" fill="#e2e6ef" d="M 366.5,75.5 C 368.173,76.343 369.34,77.6763 370,79.5C 370.667,148.167 370.667,216.833 370,285.5C 369.634,287.452 368.801,289.118 367.5,290.5C 353.468,291.007 343.135,297.34 336.5,309.5C 334.5,311.167 332.5,312.833 330.5,314.5C 327.339,315.913 324.339,317.58 321.5,319.5C 315.989,318.782 310.656,317.782 305.5,316.5C 321.779,307.394 337.945,298.061 354,288.5C 356.977,284.183 358.144,279.349 357.5,274C 357.333,270.833 357.167,267.667 357,264.5C 355.961,263.29 354.794,262.29 353.5,261.5C 351.932,260.527 350.265,260.36 348.5,261C 315.606,279.941 282.939,299.108 250.5,318.5C 235.61,322.607 222.943,330.273 212.5,341.5C 212.44,340.957 212.107,340.624 211.5,340.5C 180.5,358.333 149.5,376.167 118.5,394C 116.622,395.543 115.122,397.376 114,399.5C 113.333,406.167 113.333,412.833 114,419.5C 114.708,420.381 115.542,421.047 116.5,421.5C 117.799,423.099 119.465,423.599 121.5,423C 149.003,406.747 176.67,390.747 204.5,375C 205.149,368.734 205.815,362.567 206.5,356.5C 206.5,359.833 206.5,363.167 206.5,366.5C 206.5,371.5 206.5,376.5 206.5,381.5C 206.634,383.292 206.301,384.958 205.5,386.5C 174.03,404.402 142.697,422.569 111.5,441C 107.606,443.125 103.939,442.958 100.5,440.5C 100.343,371.745 100.509,302.745 101,233.5C 102.717,228.451 105.884,224.618 110.5,222C 186.827,178.505 262.827,134.505 338.5,90C 347.575,84.3657 356.908,79.5324 366.5,75.5 Z"/></g>
<g><path style="opacity:1" fill="#e8effc" d="M 266.5,87.5 C 261.312,90.8662 255.812,93.5329 250,95.5C 245.061,94.4461 240.561,92.4461 236.5,89.5C 237.432,86.5673 239.432,84.5673 242.5,83.5C 244.161,87.3259 246.995,89.9926 251,91.5C 251.765,91.4301 252.265,91.0967 252.5,90.5C 254.255,89.9278 255.922,89.0945 257.5,88C 255.751,85.3368 254.418,82.5035 253.5,79.5C 253.47,78.5028 253.97,77.8361 255,77.5C 258.405,79.4533 261.905,81.2866 265.5,83C 267.548,84.2259 267.881,85.7259 266.5,87.5 Z"/></g>
<g><path style="opacity:0.974" fill="#b0b8cf" d="M 165.5,94.5 C 167.537,95.8465 169.537,97.1798 171.5,98.5C 167.404,112.958 163.404,127.458 159.5,142C 159.57,142.765 159.903,143.265 160.5,143.5C 153.806,144.948 151.473,142.282 153.5,135.5C 154.612,133.401 155.279,131.067 155.5,128.5C 158.637,117.092 161.97,105.758 165.5,94.5 Z"/></g>
<g><path style="opacity:1" fill="#a7b1ce" d="M 266.5,87.5 C 267.774,88.1894 267.774,89.0228 266.5,90C 261.175,93.2452 255.675,96.0785 250,98.5C 245.657,96.7447 241.491,94.578 237.5,92C 236.748,91.3292 236.414,90.4959 236.5,89.5C 240.561,92.4461 245.061,94.4461 250,95.5C 255.812,93.5329 261.312,90.8662 266.5,87.5 Z"/></g>
<g><path style="opacity:1" fill="#a1abca" d="M 353.5,107.5 C 276.669,152.136 199.669,196.636 122.5,241C 120.291,242.873 118.458,245.04 117,247.5C 116.828,254.013 116.328,260.347 115.5,266.5C 114.883,266.389 114.383,266.056 114,265.5C 113.333,258.833 113.333,252.167 114,245.5C 115.25,242.829 117.083,240.663 119.5,239C 196.395,194.596 273.395,150.429 350.5,106.5C 351.584,106.685 352.584,107.018 353.5,107.5 Z"/></g>
<g><path style="opacity:1" fill="#b0b8cf" d="M 353.5,107.5 C 354.721,108.028 355.887,108.695 357,109.5C 357.667,116.167 357.667,122.833 357,129.5C 355.542,131.96 353.709,134.127 351.5,136C 276.337,179.081 201.337,222.414 126.5,266C 124.361,267.404 122.028,268.237 119.5,268.5C 117.645,268.66 116.312,267.993 115.5,266.5C 116.328,260.347 116.828,254.013 117,247.5C 118.458,245.04 120.291,242.873 122.5,241C 199.669,196.636 276.669,152.136 353.5,107.5 Z"/></g>
<g><path style="opacity:0.989" fill="#b0b8cf" d="M 334.5,57.5 C 336.262,58.2623 337.262,59.5956 337.5,61.5C 302.861,81.4883 268.194,101.488 233.5,121.5C 232.313,122.824 232.646,123.824 234.5,124.5C 243.027,119.112 251.86,114.445 261,110.5C 265.578,111.372 269.745,113.205 273.5,116C 274.337,117.011 274.67,118.178 274.5,119.5C 253.527,131.655 232.527,143.822 211.5,156C 209.167,156.667 206.833,156.667 204.5,156C 201.277,153.938 197.943,152.104 194.5,150.5C 194.33,149.178 194.663,148.011 195.5,147C 202.5,142.833 209.5,138.667 216.5,134.5C 215.758,133.713 214.925,133.047 214,132.5C 171.745,157.379 129.245,181.879 86.5,206C 80.9303,208.943 77.0969,213.443 75,219.5C 74.5,287.499 74.3333,355.499 74.5,423.5C 71.9899,423.946 69.9899,423.28 68.5,421.5C 67.3401,352.541 67.1735,283.541 68,214.5C 69.3957,210.208 71.8957,206.708 75.5,204C 118.337,179.081 161.337,154.414 204.5,130C 205.833,129 205.833,128 204.5,127C 191.167,121.667 191.167,116.333 204.5,111C 211.018,110.419 216.685,112.419 221.5,117C 223.167,117.667 224.833,117.667 226.5,117C 259.833,97.6667 293.167,78.3333 326.5,59C 329.014,57.7475 331.68,57.2475 334.5,57.5 Z"/></g>
<g><path style="opacity:1" fill="#545c65" d="M 253.5,116.5 C 258.022,115.62 261.355,117.12 263.5,121C 260.51,124.197 256.843,125.197 252.5,124C 249.709,121.016 250.042,118.516 253.5,116.5 Z"/></g>
<g><path style="opacity:1" fill="#a1accb" d="M 274.5,119.5 C 273.969,121.624 272.635,123.124 270.5,124C 250.67,135.081 231.003,146.414 211.5,158C 209.167,158.667 206.833,158.667 204.5,158C 201.5,156.333 198.5,154.667 195.5,153C 194.748,152.329 194.414,151.496 194.5,150.5C 197.943,152.104 201.277,153.938 204.5,156C 206.833,156.667 209.167,156.667 211.5,156C 232.527,143.822 253.527,131.655 274.5,119.5 Z"/></g>
<g><path style="opacity:1" fill="#e7eefc" d="M 166.5,133.5 C 169.778,134.809 172.778,136.642 175.5,139C 174.619,139.708 173.953,140.542 173.5,141.5C 168.42,144.707 163.086,147.373 157.5,149.5C 152.58,147.707 147.914,145.373 143.5,142.5C 145.666,138.73 149,136.397 153.5,135.5C 151.473,142.282 153.806,144.948 160.5,143.5C 162.017,143.489 163.184,142.823 164,141.5C 164.941,138.846 165.774,136.179 166.5,133.5 Z"/></g>
<g><path style="opacity:1" fill="#545c64" d="M 212.5,140.5 C 215.649,140.211 218.649,140.711 221.5,142C 222.89,144.994 221.89,146.994 218.5,148C 214.181,149.46 211.181,148.126 209.5,144C 210.071,142.401 211.071,141.234 212.5,140.5 Z"/></g>
<g><path style="opacity:1" fill="#a3aecc" d="M 173.5,141.5 C 174.043,141.56 174.376,141.893 174.5,142.5C 169.224,146.304 163.557,149.304 157.5,151.5C 151.392,150.463 146.725,147.463 143.5,142.5C 147.914,145.373 152.58,147.707 157.5,149.5C 163.086,147.373 168.42,144.707 173.5,141.5 Z"/></g>
<g><path style="opacity:1" fill="#43494f" d="M 242.5,218.5 C 243.5,218.5 244.5,218.5 245.5,218.5C 245.183,221.572 245.516,224.572 246.5,227.5C 251.367,224.872 256.2,224.872 261,227.5C 261.63,229.903 260.797,231.737 258.5,233C 246.139,232.595 236.973,237.762 231,248.5C 228.85,253.14 229.016,257.64 231.5,262C 232.333,262.167 233.167,262.333 234,262.5C 239.445,260.796 244.945,259.296 250.5,258C 258.902,255.419 262.902,258.419 262.5,267C 261.328,278.177 256.162,287.011 247,293.5C 246.667,296.833 246.333,300.167 246,303.5C 245.155,306.412 243.488,307.412 241,306.5C 240.667,303.5 240.333,300.5 240,297.5C 234.881,300.488 229.381,301.655 223.5,301C 222.018,298.408 222.352,296.075 224.5,294C 236.434,294.448 245.934,289.948 253,280.5C 256.542,275.846 257.042,271.012 254.5,266C 251.833,265.333 249.167,265.333 246.5,266C 241.306,268.009 235.973,269.509 230.5,270.5C 225.928,270.429 223.428,268.096 223,263.5C 222.85,249.803 228.517,239.136 240,231.5C 239.969,226.877 240.802,222.543 242.5,218.5 Z"/></g>
<g><path style="opacity:1" fill="#a1abca" d="M 353.5,261.5 C 322.167,279.833 290.833,298.167 259.5,316.5C 256.583,317.417 253.583,318.084 250.5,318.5C 282.939,299.108 315.606,279.941 348.5,261C 350.265,260.36 351.932,260.527 353.5,261.5 Z"/></g>
<g><path style="opacity:1" fill="#b0b8cf" d="M 353.5,261.5 C 354.794,262.29 355.961,263.29 357,264.5C 357.167,267.667 357.333,270.833 357.5,274C 358.144,279.349 356.977,284.183 354,288.5C 337.945,298.061 321.779,307.394 305.5,316.5C 290.167,313.833 274.833,313.833 259.5,316.5C 290.833,298.167 322.167,279.833 353.5,261.5 Z"/></g>
<g><path style="opacity:0.99" fill="#fed374" d="M 367.5,290.5 C 407.52,294.025 438.353,312.692 460,346.5C 467.549,358.474 470.549,371.474 469,385.5C 467.685,391.474 464.852,396.474 460.5,400.5C 448.498,407.997 435.498,410.164 421.5,407C 383.868,397.364 356.368,375.198 339,340.5C 335.493,330.384 334.66,320.051 336.5,309.5C 343.135,297.34 353.468,291.007 367.5,290.5 Z"/></g>
<g><path style="opacity:1" fill="#ef7e56" d="M 448.5,386.5 C 451.28,378.456 451.113,370.456 448,362.5C 435.007,335.178 413.84,317.678 384.5,310C 374.444,307.155 364.944,308.322 356,313.5C 355.601,313.272 355.435,312.938 355.5,312.5C 358.626,308.762 362.626,306.262 367.5,305C 406.894,304.954 435.06,322.787 452,358.5C 456.246,368.679 455.08,378.012 448.5,386.5 Z"/></g>
<g><path style="opacity:1" fill="#f3a250" d="M 448.5,386.5 C 445.976,390.447 442.309,392.947 437.5,394C 425.427,396.454 413.76,395.121 402.5,390C 380.116,380.282 363.616,364.449 353,342.5C 349.607,335.032 348.94,327.365 351,319.5C 352.026,316.761 353.526,314.428 355.5,312.5C 355.435,312.938 355.601,313.272 356,313.5C 364.944,308.322 374.444,307.155 384.5,310C 413.84,317.678 435.007,335.178 448,362.5C 451.113,370.456 451.28,378.456 448.5,386.5 Z"/></g>
<g><path style="opacity:0.985" fill="#ef7c56" d="M 336.5,309.5 C 334.66,320.051 335.493,330.384 339,340.5C 356.368,375.198 383.868,397.364 421.5,407C 435.498,410.164 448.498,407.997 460.5,400.5C 450.892,416.889 436.559,423.389 417.5,420C 395.89,416.525 376.89,407.692 360.5,393.5C 360.672,392.508 360.338,391.842 359.5,391.5C 358.5,390.833 357.5,390.167 356.5,389.5C 354.5,386.833 352.167,384.5 349.5,382.5C 346.848,378.518 343.848,374.851 340.5,371.5C 334.234,362.299 329.568,352.299 326.5,341.5C 302.002,329.165 276.669,327.332 250.5,336C 237.779,340.228 228.779,348.394 223.5,360.5C 224.522,348.968 230.189,340.468 240.5,335C 269.124,320.929 297.624,321.096 326,335.5C 326.292,331.118 326.792,326.785 327.5,322.5C 327.957,319.594 328.957,316.928 330.5,314.5C 332.5,312.833 334.5,311.167 336.5,309.5 Z"/></g>
<g><path style="opacity:1" fill="#fed275" d="M 305.5,316.5 C 310.656,317.782 315.989,318.782 321.5,319.5C 323.426,320.486 325.426,321.486 327.5,322.5C 326.792,326.785 326.292,331.118 326,335.5C 297.624,321.096 269.124,320.929 240.5,335C 230.189,340.468 224.522,348.968 223.5,360.5C 225.065,371.241 230.732,379.075 240.5,384C 270.568,398.574 300.235,397.907 329.5,382C 333.695,378.97 337.361,375.47 340.5,371.5C 343.848,374.851 346.848,378.518 349.5,382.5C 334.844,393.987 318.178,400.82 299.5,403C 273.152,406.722 248.486,402.055 225.5,389C 216.446,383.683 210.113,376.183 206.5,366.5C 206.5,363.167 206.5,359.833 206.5,356.5C 206.892,352.658 207.892,348.991 209.5,345.5C 210.488,344.205 211.488,342.872 212.5,341.5C 222.943,330.273 235.61,322.607 250.5,318.5C 253.583,318.084 256.583,317.417 259.5,316.5C 274.833,313.833 290.167,313.833 305.5,316.5 Z"/></g>
<g><path style="opacity:1" fill="#fed072" d="M 388.5,320.5 C 391.888,321.56 393.888,323.893 394.5,327.5C 400.475,329.484 405.809,332.484 410.5,336.5C 409.277,337.614 407.944,337.781 406.5,337C 400.764,332.872 394.431,331.538 387.5,333C 385.653,338.98 387.653,343.313 393.5,346C 401.069,348.058 408.402,350.724 415.5,354C 421.406,357.641 423.573,362.807 422,369.5C 419.314,371.054 416.481,372.388 413.5,373.5C 414.747,375.323 415.414,377.323 415.5,379.5C 413.61,379.703 412.11,379.037 411,377.5C 410.55,375.481 409.717,373.648 408.5,372C 402.594,371.212 397.26,369.046 392.5,365.5C 391.167,364.167 391.167,362.833 392.5,361.5C 399.396,366.52 407.063,368.354 415.5,367C 416.574,366.261 417.241,365.261 417.5,364C 416.624,361.121 414.958,358.787 412.5,357C 406.309,354.27 399.976,351.937 393.5,350C 384.375,346.567 380.209,340.067 381,330.5C 383.305,328.07 386.138,327.07 389.5,327.5C 389.007,325.194 388.674,322.861 388.5,320.5 Z"/></g>
<g><path style="opacity:1" fill="#f3a250" d="M 340.5,371.5 C 337.361,375.47 333.695,378.97 329.5,382C 300.235,397.907 270.568,398.574 240.5,384C 230.732,379.075 225.065,371.241 223.5,360.5C 228.779,348.394 237.779,340.228 250.5,336C 276.669,327.332 302.002,329.165 326.5,341.5C 329.568,352.299 334.234,362.299 340.5,371.5 Z"/></g>
<g><path style="opacity:1" fill="#a0abca" d="M 212.5,341.5 C 211.488,342.872 210.488,344.205 209.5,345.5C 180.058,362.057 150.725,378.89 121.5,396C 119.19,397.637 117.69,399.804 117,402.5C 116.5,408.825 116.334,415.158 116.5,421.5C 115.542,421.047 114.708,420.381 114,419.5C 113.333,412.833 113.333,406.167 114,399.5C 115.122,397.376 116.622,395.543 118.5,394C 149.5,376.167 180.5,358.333 211.5,340.5C 212.107,340.624 212.44,340.957 212.5,341.5 Z"/></g>
<g><path style="opacity:1" fill="#fed172" d="M 255.5,343.5 C 258.801,343.653 261.801,344.653 264.5,346.5C 270.414,343.525 276.414,343.025 282.5,345C 276.685,346.384 271.018,348.384 265.5,351C 260.262,354.529 260.262,357.863 265.5,361C 268.833,361.667 272.167,361.667 275.5,361C 280.788,359.126 286.121,357.459 291.5,356C 296.589,355.174 301.589,355.508 306.5,357C 311.743,361.588 311.743,366.255 306.5,371C 307.665,372.084 308.998,372.917 310.5,373.5C 311.661,375.378 310.994,376.378 308.5,376.5C 306.429,375.382 304.262,374.382 302,373.5C 295.875,377.158 289.375,378.158 282.5,376.5C 289.272,374.178 295.939,371.345 302.5,368C 304.396,366.192 304.896,364.025 304,361.5C 301.583,360.002 298.917,359.335 296,359.5C 288.959,360.513 282.126,362.346 275.5,365C 267.819,367.001 261.319,365.167 256,359.5C 255.333,357.5 255.333,355.5 256,353.5C 257.353,352.315 258.52,350.981 259.5,349.5C 257.874,348.01 256.208,346.51 254.5,345C 255.056,344.617 255.389,344.117 255.5,343.5 Z"/></g>
<g><path style="opacity:1" fill="#b0b8cf" d="M 209.5,345.5 C 207.892,348.991 206.892,352.658 206.5,356.5C 205.815,362.567 205.149,368.734 204.5,375C 176.67,390.747 149.003,406.747 121.5,423C 119.465,423.599 117.799,423.099 116.5,421.5C 116.334,415.158 116.5,408.825 117,402.5C 117.69,399.804 119.19,397.637 121.5,396C 150.725,378.89 180.058,362.057 209.5,345.5 Z"/></g>
<g><path style="opacity:1" fill="#f9a83e" d="M 206.5,366.5 C 210.113,376.183 216.446,383.683 225.5,389C 248.486,402.055 273.152,406.722 299.5,403C 318.178,400.82 334.844,393.987 349.5,382.5C 352.167,384.5 354.5,386.833 356.5,389.5C 344.212,403.986 328.546,412.819 309.5,416C 283.761,421.658 258.761,419.325 234.5,409C 221.954,402.952 212.62,393.786 206.5,381.5C 206.5,376.5 206.5,371.5 206.5,366.5 Z"/></g>
<g><path style="opacity:1" fill="#fed273" d="M 206.5,381.5 C 212.62,393.786 221.954,402.952 234.5,409C 258.761,419.325 283.761,421.658 309.5,416C 328.546,412.819 344.212,403.986 356.5,389.5C 357.5,390.167 358.5,390.833 359.5,391.5C 353.619,405.211 343.619,414.711 329.5,420C 305.44,428.933 280.774,430.933 255.5,426C 240.085,422.763 226.585,415.93 215,405.5C 210.195,399.889 207.028,393.556 205.5,386.5C 206.301,384.958 206.634,383.292 206.5,381.5 Z"/></g>
<g><path style="opacity:0.999" fill="#f9a83e" d="M 205.5,386.5 C 207.028,393.556 210.195,399.889 215,405.5C 226.585,415.93 240.085,422.763 255.5,426C 280.774,430.933 305.44,428.933 329.5,420C 343.619,414.711 353.619,405.211 359.5,391.5C 360.338,391.842 360.672,392.508 360.5,393.5C 360.5,397.167 360.5,400.833 360.5,404.5C 356.313,416.198 348.646,425.032 337.5,431C 300.649,449.317 263.982,448.984 227.5,430C 217.262,423.951 210.262,415.451 206.5,404.5C 205.545,398.591 205.211,392.591 205.5,386.5 Z"/></g>
<g><path style="opacity:0.994" fill="#fed273" d="M 206.5,404.5 C 210.262,415.451 217.262,423.951 227.5,430C 263.982,448.984 300.649,449.317 337.5,431C 348.646,425.032 356.313,416.198 360.5,404.5C 360.5,407.5 360.5,410.5 360.5,413.5C 356.754,425.763 349.087,434.929 337.5,441C 311.681,453.462 284.681,456.795 256.5,451C 238.937,447.638 224.104,439.472 212,426.5C 209.335,421.978 207.169,417.311 205.5,412.5C 205.279,409.721 205.612,407.054 206.5,404.5 Z"/></g>
<g><path style="opacity:0.982" fill="#f9a83d" d="M 205.5,412.5 C 207.169,417.311 209.335,421.978 212,426.5C 224.104,439.472 238.937,447.638 256.5,451C 284.681,456.795 311.681,453.462 337.5,441C 349.087,434.929 356.754,425.763 360.5,413.5C 363.26,429.801 357.927,442.634 344.5,452C 325.806,463.879 305.306,469.712 283,469.5C 260.237,469.576 239.404,463.41 220.5,451C 208.145,441.111 203.145,428.278 205.5,412.5 Z"/></g>
</svg>
