<?xml version="1.0" encoding="UTF-8"?>
<!DOCTYPE svg PUBLIC "-//W3C//DTD SVG 1.1//EN" "http://www.w3.org/Graphics/SVG/1.1/DTD/svg11.dtd">
<svg xmlns="http://www.w3.org/2000/svg" version="1.1" width="512px" height="512px" style="shape-rendering:geometricPrecision; text-rendering:geometricPrecision; image-rendering:optimizeQuality; fill-rule:evenodd; clip-rule:evenodd" xmlns:xlink="http://www.w3.org/1999/xlink">
<g><path style="opacity:0.991" fill="#546e79" d="M 471.5,327.5 C 470.609,326.89 469.609,326.557 468.5,326.5C 468.768,324.901 468.434,323.568 467.5,322.5C 467.5,322.167 467.5,321.833 467.5,321.5C 439.838,291.67 412.338,261.67 385,231.5C 382.564,228.553 379.731,226.22 376.5,224.5C 372.975,220.817 368.975,217.65 364.5,215C 353.72,208.612 342.72,202.779 331.5,197.5C 337.499,190.665 343.332,183.665 349,176.5C 349.773,174.648 349.273,173.314 347.5,172.5C 343.184,169.339 338.518,166.672 333.5,164.5C 326.47,171.528 319.804,178.862 313.5,186.5C 273.061,162.441 232.394,138.608 191.5,115C 181.387,108.946 171.054,103.446 160.5,98.5C 165.849,91.1615 171.682,84.1615 178,77.5C 178.773,75.6476 178.273,74.3143 176.5,73.5C 171.815,70.3998 166.981,67.3998 162,64.5C 155.302,72.6917 148.469,80.6917 141.5,88.5C 140.972,87.2794 140.305,86.1127 139.5,85C 124.766,76.3004 109.766,68.1337 94.5,60.5C 104.169,47.3239 113.669,33.9906 123,20.5C 124.049,19.4829 125.216,19.3162 126.5,20C 219.092,72.9339 311.425,126.267 403.5,180C 406.052,182.853 408.885,185.353 412,187.5C 441.299,219.801 470.966,251.801 501,283.5C 501.738,286.212 501.071,288.545 499,290.5C 489.97,303.016 480.803,315.35 471.5,327.5 Z"/></g>
<g><path style="opacity:1" fill="#dbe2e5" d="M 176.5,73.5 C 168.544,83.2939 160.377,92.9606 152,102.5C 147.26,99.5763 142.426,96.9096 137.5,94.5C 138.441,92.2279 139.774,90.2279 141.5,88.5C 148.469,80.6917 155.302,72.6917 162,64.5C 166.981,67.3998 171.815,70.3998 176.5,73.5 Z"/></g>
<g><path style="opacity:0.999" fill="#3f535c" d="M 94.5,60.5 C 109.766,68.1337 124.766,76.3004 139.5,85C 140.305,86.1127 140.972,87.2794 141.5,88.5C 139.774,90.2279 138.441,92.2279 137.5,94.5C 137.414,95.4959 137.748,96.3292 138.5,97C 143.5,99.8333 148.5,102.667 153.5,105.5C 156.215,103.452 158.548,101.118 160.5,98.5C 171.054,103.446 181.387,108.946 191.5,115C 232.394,138.608 273.061,162.441 313.5,186.5C 312.079,189.009 310.412,191.343 308.5,193.5C 313.289,198.103 318.789,201.77 325,204.5C 327.35,202.318 329.516,199.985 331.5,197.5C 342.72,202.779 353.72,208.612 364.5,215C 368.975,217.65 372.975,220.817 376.5,224.5C 405.167,255.833 433.833,287.167 462.5,318.5C 375.221,268.524 287.888,218.524 200.5,168.5C 199.583,169.127 198.583,169.461 197.5,169.5C 196.609,168.89 195.609,168.557 194.5,168.5C 187.895,162.397 181.395,156.063 175,149.5C 148.899,120.976 122.566,92.643 96,64.5C 95.2086,63.255 94.7086,61.9217 94.5,60.5 Z"/></g>
<g><path style="opacity:1" fill="#aeb7bc" d="M 176.5,73.5 C 178.273,74.3143 178.773,75.6476 178,77.5C 171.682,84.1615 165.849,91.1615 160.5,98.5C 158.548,101.118 156.215,103.452 153.5,105.5C 148.5,102.667 143.5,99.8333 138.5,97C 137.748,96.3292 137.414,95.4959 137.5,94.5C 142.426,96.9096 147.26,99.5763 152,102.5C 160.377,92.9606 168.544,83.2939 176.5,73.5 Z"/></g>
<g><path style="opacity:1" fill="#dbe2e5" d="M 347.5,172.5 C 340.201,182.244 332.535,191.744 324.5,201C 319.137,198.822 313.804,196.322 308.5,193.5C 310.412,191.343 312.079,189.009 313.5,186.5C 319.804,178.862 326.47,171.528 333.5,164.5C 338.518,166.672 343.184,169.339 347.5,172.5 Z"/></g>
<g><path style="opacity:1" fill="#738990" d="M 194.5,168.5 C 195.609,168.557 196.609,168.89 197.5,169.5C 186.167,176.5 174.833,183.5 163.5,190.5C 149.714,196.557 136.714,203.89 124.5,212.5C 89.5952,231.404 54.9286,250.738 20.5,270.5C 18.4635,275.501 19.7969,279.334 24.5,282C 111.959,331.962 199.293,382.129 286.5,432.5C 287.721,433.465 289.054,433.298 290.5,432C 349.5,398.333 408.5,364.667 467.5,331C 468.38,329.644 468.714,328.144 468.5,326.5C 469.609,326.557 470.609,326.89 471.5,327.5C 471.5,329.167 471.5,330.833 471.5,332.5C 414.857,366.493 357.857,399.993 300.5,433C 294.672,435.227 288.672,435.893 282.5,435C 194.67,384.919 107.004,334.586 19.5,284C 15.7238,282.053 12.3904,279.553 9.5,276.5C 9.14286,272.336 10.8095,269.169 14.5,267C 68.5,235.667 122.5,204.333 176.5,173C 181.964,169.345 187.964,167.845 194.5,168.5 Z"/></g>
<g><path style="opacity:1" fill="#aeb8bc" d="M 347.5,172.5 C 349.273,173.314 349.773,174.648 349,176.5C 343.332,183.665 337.499,190.665 331.5,197.5C 329.516,199.985 327.35,202.318 325,204.5C 318.789,201.77 313.289,198.103 308.5,193.5C 313.804,196.322 319.137,198.822 324.5,201C 332.535,191.744 340.201,182.244 347.5,172.5 Z"/></g>
<g><path style="opacity:1" fill="#7db344" d="M 222.5,257.5 C 220.402,258.963 218.402,258.796 216.5,257C 220.241,254.268 224.241,251.934 228.5,250C 226.876,248.883 225.876,247.383 225.5,245.5C 226.388,243.845 226.888,242.178 227,240.5C 215.894,233.871 204.727,227.705 193.5,222C 196.295,223.793 198.795,225.96 201,228.5C 202.764,235.64 200.264,240.64 193.5,243.5C 189.771,241.977 186.438,239.977 183.5,237.5C 183.123,235.742 182.456,234.075 181.5,232.5C 183.709,229.038 186.043,228.871 188.5,232C 189.793,232.49 191.127,232.657 192.5,232.5C 192.415,230.071 191.415,228.071 189.5,226.5C 186.417,225.458 183.25,224.792 180,224.5C 173.615,224.653 171.781,227.32 174.5,232.5C 172.844,231.854 171.177,231.187 169.5,230.5C 164.458,232.438 159.624,234.771 155,237.5C 151.746,233.942 151.746,230.276 155,226.5C 160.919,221.042 167.919,218.376 176,218.5C 181.216,219.015 186.383,219.515 191.5,220C 182.335,214.919 173.335,209.585 164.5,204C 158.989,204.6 153.489,204.433 148,203.5C 140.584,207.251 133.418,211.418 126.5,216C 129.167,218.667 129.167,221.333 126.5,224C 134.869,229.181 143.203,234.347 151.5,239.5C 150.833,239.833 150.167,240.167 149.5,240.5C 137.375,233.936 125.375,227.103 113.5,220C 117.345,217.637 121.011,215.137 124.5,212.5C 134.854,207.238 145.021,201.571 155,195.5C 183.085,211.793 211.252,227.96 239.5,244C 240.833,245 240.833,246 239.5,247C 233.434,250.024 227.768,253.524 222.5,257.5 Z"/></g>
<g><path style="opacity:1" fill="#91bc65" d="M 462.5,318.5 C 463.899,319.89 465.566,320.89 467.5,321.5C 467.5,321.833 467.5,322.167 467.5,322.5C 454.334,331.253 440.667,339.253 426.5,346.5C 439.104,338.19 452.104,330.356 465.5,323C 438.833,307.333 412.167,291.667 385.5,276C 383.086,274.115 380.419,273.448 377.5,274C 364.274,281.777 350.941,289.277 337.5,296.5C 336.167,296.833 334.833,297.167 333.5,297.5C 304.502,279.998 275.169,262.998 245.5,246.5C 245.44,245.957 245.107,245.624 244.5,245.5C 237.386,249.958 230.052,253.958 222.5,257.5C 227.768,253.524 233.434,250.024 239.5,247C 240.833,246 240.833,245 239.5,244C 211.252,227.96 183.085,211.793 155,195.5C 145.021,201.571 134.854,207.238 124.5,212.5C 136.714,203.89 149.714,196.557 163.5,190.5C 174.833,183.5 186.167,176.5 197.5,169.5C 198.583,169.461 199.583,169.127 200.5,168.5C 287.888,218.524 375.221,268.524 462.5,318.5 Z"/></g>
<g><path style="opacity:1" fill="#7eb344" d="M 163.5,190.5 C 175.823,183.851 188.156,177.185 200.5,170.5C 229.619,186.226 258.286,202.726 286.5,220C 272.749,228.293 258.916,236.459 245,244.5C 216.167,227.667 187.333,210.833 158.5,194C 160.584,193.303 162.251,192.136 163.5,190.5 Z"/></g>
<g><path style="opacity:1" fill="#95c167" d="M 238.5,195.5 C 250.275,201.89 261.941,208.557 273.5,215.5C 270.887,218.371 270.887,221.205 273.5,224C 266.833,228 260.167,232 253.5,236C 248.165,235.281 242.832,235.447 237.5,236.5C 227.167,230.667 216.833,224.833 206.5,219C 205.304,218.346 205.304,217.846 206.5,217.5C 219.273,223.385 231.607,222.551 243.5,215C 246.544,212.088 247.711,208.588 247,204.5C 244.638,200.973 241.804,197.973 238.5,195.5 Z"/></g>
<g><path style="opacity:1" fill="#7cb044" d="M 248.5,218.5 C 253.118,217.924 257.285,218.924 261,221.5C 261.667,223.167 261.667,224.833 261,226.5C 256.403,229.488 251.57,229.988 246.5,228C 242.192,223.735 242.859,220.568 248.5,218.5 Z"/></g>
<g><path style="opacity:1" fill="#6e9c3c" d="M 222.5,198.5 C 226.842,198.739 231.176,199.073 235.5,199.5C 235.585,201.929 236.585,203.929 238.5,205.5C 235.493,207.1 233.159,206.433 231.5,203.5C 229.483,204.174 227.817,205.341 226.5,207C 229.462,210.488 228.795,213.155 224.5,215C 219.55,215.453 214.883,215.12 210.5,214C 210.957,213.586 211.291,213.086 211.5,212.5C 209.585,210.929 208.585,208.929 208.5,206.5C 211.55,205.923 213.55,207.09 214.5,210C 216.631,209.602 218.631,208.602 220.5,207C 217.614,203.374 218.281,200.541 222.5,198.5 Z"/></g>
<g><path style="opacity:1" fill="#95c167" d="M 238.5,195.5 C 227.766,191.388 217.1,191.554 206.5,196C 197.186,201.53 196.186,208.197 203.5,216C 203.167,216.167 202.833,216.333 202.5,216.5C 192.5,210.5 182.5,204.5 172.5,198.5C 175.335,195.329 175.002,192.496 171.5,190C 178.671,185.58 186.004,181.414 193.5,177.5C 198.137,180.079 202.804,180.079 207.5,177.5C 218.06,183.274 228.393,189.274 238.5,195.5 Z"/></g>
<g><path style="opacity:1" fill="#7bae44" d="M 188.5,184.5 C 191.85,184.335 195.183,184.502 198.5,185C 204.008,187.155 204.675,190.155 200.5,194C 195.134,196.445 190.134,195.945 185.5,192.5C 183.763,188.77 184.763,186.103 188.5,184.5 Z"/></g>
<g><path style="opacity:1" fill="#7db344" d="M 288.5,221.5 C 289.552,221.351 290.552,221.517 291.5,222C 319.67,238.586 348.003,254.919 376.5,271C 362.664,279.419 348.664,287.586 334.5,295.5C 305.67,279.253 277.003,262.753 248.5,246C 262.005,237.97 275.338,229.803 288.5,221.5 Z"/></g>
<g><path style="opacity:1" fill="#95c166" d="M 280.5,229.5 C 286.832,230.597 293.165,230.764 299.5,230C 309.167,235.667 318.833,241.333 328.5,247C 320.066,244.698 311.399,244.031 302.5,245C 294.738,246.603 289.738,251.103 287.5,258.5C 287.743,262.151 289.41,264.984 292.5,267C 281.866,262.177 271.533,256.51 261.5,250C 264.113,247.205 264.113,244.371 261.5,241.5C 268.067,237.725 274.4,233.725 280.5,229.5 Z"/></g>
<g><path style="opacity:1" fill="#7aae43" d="M 279.5,235.5 C 284.39,234.784 288.556,236.117 292,239.5C 293.042,242.804 291.875,244.971 288.5,246C 283.97,246.947 279.636,246.447 275.5,244.5C 273.876,243.131 273.376,241.464 274,239.5C 275.5,237.531 277.333,236.198 279.5,235.5 Z"/></g>
<g><path style="opacity:1" fill="#608834" d="M 245.5,246.5 C 245.5,248.5 245.5,250.5 245.5,252.5C 239.002,255.667 232.502,259 226,262.5C 222.845,261.797 221.678,260.13 222.5,257.5C 230.052,253.958 237.386,249.958 244.5,245.5C 245.107,245.624 245.44,245.957 245.5,246.5 Z"/></g>
<g><path style="opacity:1" fill="#6b983a" d="M 245.5,246.5 C 275.169,262.998 304.502,279.998 333.5,297.5C 331.574,298.242 329.741,299.242 328,300.5C 300.612,284.273 273.112,268.273 245.5,252.5C 245.5,250.5 245.5,248.5 245.5,246.5 Z"/></g>
<g><path style="opacity:1" fill="#6e9d3c" d="M 310.5,250.5 C 315.552,250.45 320.552,250.95 325.5,252C 325.167,252.333 324.833,252.667 324.5,253C 326.607,254.264 327.607,256.097 327.5,258.5C 324.579,258.854 322.246,257.854 320.5,255.5C 318.833,256.333 317.167,257.167 315.5,258C 319.835,261.307 319.502,263.974 314.5,266C 310.056,266.273 305.723,266.44 301.5,266.5C 298.972,265.502 298.972,264.669 301.5,264C 299.077,262.429 297.744,260.263 297.5,257.5C 299.167,257.5 300.833,257.5 302.5,257.5C 302.914,261.7 304.914,262.533 308.5,260C 308.957,259.586 309.291,259.086 309.5,258.5C 306.821,255.514 307.154,252.848 310.5,250.5 Z"/></g>
<g><path style="opacity:1" fill="#95c167" d="M 330.5,249.5 C 331.721,248.535 333.054,248.702 334.5,250C 343.335,255.585 352.335,260.919 361.5,266C 361.957,266.414 362.291,266.914 362.5,267.5C 359.833,270.167 359.833,272.833 362.5,275.5C 356.298,279.532 349.965,283.365 343.5,287C 338.161,286.391 332.828,286.558 327.5,287.5C 317.376,282.271 307.376,276.771 297.5,271C 307.202,273.285 316.869,272.952 326.5,270C 334.137,267.557 337.304,262.39 336,254.5C 334.296,252.627 332.463,250.96 330.5,249.5 Z"/></g>
<g><path style="opacity:1" fill="#7caf44" d="M 338.5,269.5 C 342.41,269.263 346.077,270.096 349.5,272C 352.277,275.814 351.277,278.481 346.5,280C 342.705,280.837 339.039,280.504 335.5,279C 334.101,277.938 333.101,276.605 332.5,275C 333.904,272.473 335.904,270.64 338.5,269.5 Z"/></g>
<g><path style="opacity:0.993" fill="#475e68" d="M 9.5,276.5 C 12.3904,279.553 15.7238,282.053 19.5,284C 107.004,334.586 194.67,384.919 282.5,435C 288.672,435.893 294.672,435.227 300.5,433C 357.857,399.993 414.857,366.493 471.5,332.5C 471.667,351.17 471.5,369.836 471,388.5C 413.741,423.216 355.908,457.05 297.5,490C 290.725,492.1 284.059,491.767 277.5,489C 244.473,469.822 211.473,450.655 178.5,431.5C 184.222,426.969 190.389,422.969 197,419.5C 197.815,414.648 197.648,409.981 196.5,405.5C 195.166,404.348 193.666,403.348 192,402.5C 185.103,406.032 178.27,409.699 171.5,413.5C 147.969,399.569 124.303,385.902 100.5,372.5C 102.508,370.732 104.674,369.066 107,367.5C 107.815,362.648 107.648,357.981 106.5,353.5C 104.979,351.471 102.979,350.638 100.5,351C 92.8058,355.512 85.1391,360.012 77.5,364.5C 76.8826,364.611 76.3826,364.944 76,365.5C 75.5045,367.473 75.3379,369.473 75.5,371.5C 53.6476,359.822 32.1476,347.488 11,334.5C 9.52492,315.259 9.02492,295.926 9.5,276.5 Z"/></g>
<g><path style="opacity:1" fill="#475e68" d="M 376.5,224.5 C 379.731,226.22 382.564,228.553 385,231.5C 412.338,261.67 439.838,291.67 467.5,321.5C 465.566,320.89 463.899,319.89 462.5,318.5C 433.833,287.167 405.167,255.833 376.5,224.5 Z"/></g>
<g><path style="opacity:1" fill="#93bf65" d="M 174.5,232.5 C 177.262,234.596 180.262,236.262 183.5,237.5C 186.438,239.977 189.771,241.977 193.5,243.5C 200.264,240.64 202.764,235.64 201,228.5C 198.795,225.96 196.295,223.793 193.5,222C 204.727,227.705 215.894,233.871 227,240.5C 226.888,242.178 226.388,243.845 225.5,245.5C 225.876,247.383 226.876,248.883 228.5,250C 224.241,251.934 220.241,254.268 216.5,257C 218.402,258.796 220.402,258.963 222.5,257.5C 221.678,260.13 222.845,261.797 226,262.5C 232.502,259 239.002,255.667 245.5,252.5C 273.112,268.273 300.612,284.273 328,300.5C 329.741,299.242 331.574,298.242 333.5,297.5C 334.833,297.167 336.167,296.833 337.5,296.5C 366.164,313.637 394.997,330.637 424,347.5C 424.671,346.748 425.504,346.414 426.5,346.5C 421.698,349.403 416.698,352.07 411.5,354.5C 414.099,352.521 416.765,350.521 419.5,348.5C 391.282,331.47 362.782,314.803 334,298.5C 320.582,306.46 307.082,314.293 293.5,322C 292.167,322.667 292.167,323.333 293.5,324C 321.33,339.747 348.997,355.747 376.5,372C 377.793,372.49 379.127,372.657 380.5,372.5C 371.78,377.86 362.78,382.86 353.5,387.5C 359.934,383.108 366.601,378.941 373.5,375C 374.833,374.333 374.833,373.667 373.5,373C 345.295,356.633 316.962,340.467 288.5,324.5C 275.705,331.467 263.038,338.633 250.5,346C 248.745,346.72 247.911,347.887 248,349.5C 276.645,366.237 305.478,382.57 334.5,398.5C 328.194,402.656 321.527,406.323 314.5,409.5C 319.097,405.858 324.097,402.692 329.5,400C 300.959,383.231 272.292,366.731 243.5,350.5C 229.376,358.063 215.376,365.897 201.5,374C 224.395,387.274 247.062,400.774 269.5,414.5C 227.336,391.255 185.669,367.255 144.5,342.5C 162.376,352.356 180.209,362.356 198,372.5C 212.063,364.886 225.896,356.886 239.5,348.5C 211.161,331.328 182.494,314.662 153.5,298.5C 139.502,306.163 125.836,314.33 112.5,323C 114.747,324.277 116.747,325.777 118.5,327.5C 108.507,323.175 99.174,317.841 90.5,311.5C 70.393,300.611 50.393,289.444 30.5,278C 26.657,275.965 23.3237,273.465 20.5,270.5C 54.9286,250.738 89.5952,231.404 124.5,212.5C 121.011,215.137 117.345,217.637 113.5,220C 125.375,227.103 137.375,233.936 149.5,240.5C 150.167,240.167 150.833,239.833 151.5,239.5C 143.203,234.347 134.869,229.181 126.5,224C 129.167,221.333 129.167,218.667 126.5,216C 133.418,211.418 140.584,207.251 148,203.5C 153.489,204.433 158.989,204.6 164.5,204C 173.335,209.585 182.335,214.919 191.5,220C 186.383,219.515 181.216,219.015 176,218.5C 167.919,218.376 160.919,221.042 155,226.5C 151.746,230.276 151.746,233.942 155,237.5C 159.624,234.771 164.458,232.438 169.5,230.5C 171.177,231.187 172.844,231.854 174.5,232.5 Z"/></g>
<g><path style="opacity:1" fill="#608933" d="M 257.5,281.5 C 258.833,284.167 258.833,286.833 257.5,289.5C 255.668,290.248 254.001,291.248 252.5,292.5C 248.628,294.597 244.961,296.931 241.5,299.5C 240.508,299.328 239.842,299.662 239.5,300.5C 237.83,300.751 236.33,301.418 235,302.5C 235.14,304.851 235.64,307.184 236.5,309.5C 235.127,309.657 233.793,309.49 232.5,309C 230.326,305.879 227.993,305.712 225.5,308.5C 221.867,310.443 218.201,312.443 214.5,314.5C 213.526,312.257 213.192,309.924 213.5,307.5C 228.532,299.323 243.199,290.656 257.5,281.5 Z"/></g>
<g><path style="opacity:1" fill="#7eb344" d="M 169.5,289.5 C 170.71,289.932 171.71,290.599 172.5,291.5C 171.711,291.783 171.044,292.283 170.5,293C 173.167,295.667 173.167,298.333 170.5,301C 180.768,307.987 191.435,313.987 202.5,319C 197.27,315.723 195.603,311.223 197.5,305.5C 202.513,307.679 206.846,310.846 210.5,315C 209.398,317.391 210.064,317.891 212.5,316.5C 217.544,319.328 222.377,318.994 227,315.5C 227.135,313.078 226.635,310.745 225.5,308.5C 227.993,305.712 230.326,305.879 232.5,309C 233.793,309.49 235.127,309.657 236.5,309.5C 235.64,307.184 235.14,304.851 235,302.5C 236.33,301.418 237.83,300.751 239.5,300.5C 247.139,306.15 247.472,312.317 240.5,319C 228.722,325.468 216.722,326.135 204.5,321C 215.003,327.419 225.67,333.586 236.5,339.5C 238.454,338.149 240.621,337.482 243,337.5C 245.92,338.043 248.753,338.543 251.5,339C 258.663,335.253 265.663,331.253 272.5,327C 268.998,324.504 268.665,321.671 271.5,318.5C 261.472,312.156 251.472,305.823 241.5,299.5C 244.961,296.931 248.628,294.597 252.5,292.5C 253.29,293.794 254.29,294.961 255.5,296C 254.289,296.893 254.289,297.726 255.5,298.5C 256.293,298.069 257.127,297.735 258,297.5C 262.969,300.453 267.636,300.12 272,296.5C 272.756,294.191 272.256,292.191 270.5,290.5C 272.001,289.248 273.668,288.248 275.5,287.5C 276.613,289.031 278.113,290.031 280,290.5C 280.833,290.167 281.667,289.833 282.5,289.5C 280.585,287.929 279.585,285.929 279.5,283.5C 276.492,283.299 273.492,282.966 270.5,282.5C 266.473,282.172 263.806,283.839 262.5,287.5C 262.529,289.029 263.196,290.196 264.5,291C 262.543,293.089 260.376,293.923 258,293.5C 257.51,292.207 257.343,290.873 257.5,289.5C 258.833,286.833 258.833,284.167 257.5,281.5C 256.942,280.21 255.942,279.377 254.5,279C 255.949,277.883 257.616,277.216 259.5,277C 263.833,276.333 268.167,276.333 272.5,277C 275.82,278.116 279.153,278.783 282.5,279C 272.833,273.333 263.167,267.667 253.5,262C 247.998,262.679 242.498,262.513 237,261.5C 235.039,262.897 232.872,263.897 230.5,264.5C 229.833,264.167 229.167,263.833 228.5,263.5C 233.833,260.167 239.167,256.833 244.5,253.5C 271.67,269.586 299.003,285.419 326.5,301C 323.048,303.393 319.381,305.226 315.5,306.5C 315.162,303.843 315.829,301.51 317.5,299.5C 306.642,292.746 295.642,286.58 284.5,281C 293.833,287.667 293.833,294.333 284.5,301C 273.196,306.611 261.862,306.944 250.5,302C 262.332,308.748 273.999,315.748 285.5,323C 271.624,331.103 257.624,338.937 243.5,346.5C 215.061,330.571 186.728,314.405 158.5,298C 157.167,297.333 157.167,296.667 158.5,296C 162.56,294.311 166.227,292.144 169.5,289.5 Z"/></g>
<g><path style="opacity:1" fill="#95c167" d="M 172.5,291.5 C 180.968,295.901 189.301,300.568 197.5,305.5C 195.603,311.223 197.27,315.723 202.5,319C 191.435,313.987 180.768,307.987 170.5,301C 173.167,298.333 173.167,295.667 170.5,293C 171.044,292.283 171.711,291.783 172.5,291.5 Z"/></g>
<g><path style="opacity:1" fill="#6e9d3c" d="M 252.5,292.5 C 254.001,291.248 255.668,290.248 257.5,289.5C 257.343,290.873 257.51,292.207 258,293.5C 260.376,293.923 262.543,293.089 264.5,291C 263.196,290.196 262.529,289.029 262.5,287.5C 263.806,283.839 266.473,282.172 270.5,282.5C 273.492,282.966 276.492,283.299 279.5,283.5C 279.585,285.929 280.585,287.929 282.5,289.5C 281.667,289.833 280.833,290.167 280,290.5C 278.113,290.031 276.613,289.031 275.5,287.5C 273.668,288.248 272.001,289.248 270.5,290.5C 272.256,292.191 272.756,294.191 272,296.5C 267.636,300.12 262.969,300.453 258,297.5C 257.127,297.735 256.293,298.069 255.5,298.5C 254.289,297.726 254.289,296.893 255.5,296C 254.29,294.961 253.29,293.794 252.5,292.5 Z"/></g>
<g><path style="opacity:1" fill="#95c167" d="M 117.5,270.5 C 124.702,272.243 132.035,272.909 139.5,272.5C 147.836,276.665 155.836,281.332 163.5,286.5C 157.653,286.446 151.653,286.613 145.5,287C 135.939,281.726 126.606,276.226 117.5,270.5 Z"/></g>
<g><path style="opacity:1" fill="#6b993a" d="M 124.5,256.5 C 154.302,273.235 183.969,290.235 213.5,307.5C 213.192,309.924 213.526,312.257 214.5,314.5C 218.201,312.443 221.867,310.443 225.5,308.5C 226.635,310.745 227.135,313.078 227,315.5C 222.377,318.994 217.544,319.328 212.5,316.5C 210.064,317.891 209.398,317.391 210.5,315C 206.846,310.846 202.513,307.679 197.5,305.5C 189.301,300.568 180.968,295.901 172.5,291.5C 171.71,290.599 170.71,289.932 169.5,289.5C 168.833,289.167 168.167,288.833 167.5,288.5C 166.486,287.326 165.153,286.66 163.5,286.5C 155.836,281.332 147.836,276.665 139.5,272.5C 133.856,267.594 127.189,265.094 119.5,265C 119.957,264.586 120.291,264.086 120.5,263.5C 118.585,261.929 117.585,259.929 117.5,257.5C 119.167,257.5 120.833,257.5 122.5,257.5C 123.961,262.787 124.628,262.453 124.5,256.5 Z"/></g>
<g><path style="opacity:1" fill="#7db344" d="M 168.5,231.5 C 196.928,247.411 225.261,263.578 253.5,280C 254.451,280.718 254.617,281.551 254,282.5C 240.814,290.426 227.48,298.093 214,305.5C 184.938,289.386 156.105,272.886 127.5,256C 141.23,247.807 154.897,239.641 168.5,231.5 Z"/></g>
<g><path style="opacity:1" fill="#95c066" d="M 209.5,258.5 C 220.446,264.643 231.446,270.809 242.5,277C 240.876,278.117 239.876,279.617 239.5,281.5C 240.388,283.155 240.888,284.822 241,286.5C 234.085,290.374 227.251,294.374 220.5,298.5C 216.064,296.192 211.397,295.859 206.5,297.5C 196.376,292.271 186.376,286.771 176.5,281C 184.038,282.423 191.705,282.756 199.5,282C 206.219,281.23 211.386,278.063 215,272.5C 215.667,269.833 215.667,267.167 215,264.5C 213.231,262.383 211.398,260.383 209.5,258.5 Z"/></g>
<g><path style="opacity:1" fill="#7baf44" d="M 215.5,280.5 C 219.182,280.335 222.848,280.501 226.5,281C 232.015,284.612 231.682,287.612 225.5,290C 220.848,291.193 216.681,290.36 213,287.5C 211.916,284.341 212.75,282.008 215.5,280.5 Z"/></g>
<g><path style="opacity:1" fill="#6e9d3c" d="M 190.5,260.5 C 195.215,260.506 199.882,261.006 204.5,262C 204.167,262.333 203.833,262.667 203.5,263C 205.019,264.351 206.352,265.851 207.5,267.5C 204.397,269.047 201.897,268.38 200,265.5C 198.775,265.862 197.609,266.362 196.5,267C 197.244,269.483 197.244,272.149 196.5,275C 191.171,276.425 185.838,276.925 180.5,276.5C 180.716,274.101 179.549,272.101 177,270.5C 176.517,269.552 176.351,268.552 176.5,267.5C 178.288,267.215 179.955,267.548 181.5,268.5C 182.385,271.323 184.052,271.99 186.5,270.5C 187.5,270 188.5,269.5 189.5,269C 185.312,265.565 185.645,262.732 190.5,260.5 Z"/></g>
<g><path style="opacity:1" fill="#7eb345" d="M 90.5,311.5 C 68.0619,297.774 45.3953,284.274 22.5,271C 36.3756,262.897 50.3756,255.063 64.5,247.5C 93.2925,263.731 121.959,280.231 150.5,297C 136.749,305.293 122.916,313.459 109,321.5C 103.019,317.76 96.8519,314.427 90.5,311.5 Z"/></g>
<g><path style="opacity:1" fill="#95c166" d="M 105.5,274.5 C 116.275,280.391 126.942,286.557 137.5,293C 133.5,295.667 133.5,298.333 137.5,301C 130.833,305 124.167,309 117.5,313C 112.165,312.281 106.832,312.447 101.5,313.5C 89.7744,307.311 78.4411,300.644 67.5,293.5C 81.394,300.55 94.894,299.883 108,291.5C 111.516,287.925 112.183,283.925 110,279.5C 108.293,277.963 106.793,276.296 105.5,274.5 Z"/></g>
<g><path style="opacity:1" fill="#7db344" d="M 105.5,274.5 C 106.793,276.296 108.293,277.963 110,279.5C 112.183,283.925 111.516,287.925 108,291.5C 94.894,299.883 81.394,300.55 67.5,293.5C 60.0728,285.527 61.0728,278.694 70.5,273C 82.3943,268.096 94.061,268.596 105.5,274.5 Z"/></g>
<g><path style="opacity:1" fill="#6e9c3c" d="M 86.5,275.5 C 90.0543,275.15 93.3876,275.816 96.5,277.5C 97.086,277.291 97.586,276.957 98,276.5C 99.5,278.667 101,280.833 102.5,283C 99.3637,284.041 96.8637,283.207 95,280.5C 93.2287,281.304 91.7287,282.471 90.5,284C 93.3227,289.726 91.3227,292.559 84.5,292.5C 81.9534,292.558 79.6201,291.891 77.5,290.5C 76.8333,290.833 76.1667,291.167 75.5,291.5C 74.8585,289.017 73.8585,286.351 72.5,283.5C 75.5497,282.923 77.5497,284.09 78.5,287C 80.6313,286.602 82.6313,285.602 84.5,284C 81.6144,280.374 82.2811,277.541 86.5,275.5 Z"/></g>
<g><path style="opacity:1" fill="#95c166" d="M 105.5,274.5 C 94.061,268.596 82.3943,268.096 70.5,273C 61.0728,278.694 60.0728,285.527 67.5,293.5C 56.6949,288.266 46.3616,282.266 36.5,275.5C 39.4644,272.241 39.1311,269.407 35.5,267C 42.5847,262.707 49.7514,258.54 57,254.5C 61.8001,257.128 66.6335,257.128 71.5,254.5C 83.1329,260.831 94.4663,267.497 105.5,274.5 Z"/></g>
<g><path style="opacity:1" fill="#74a243" d="M 51.5,270.5 C 49.2776,270.441 48.2776,269.275 48.5,267C 48.7,264.463 50.0333,262.796 52.5,262C 55.8333,261.333 59.1667,261.333 62.5,262C 66.8721,264.195 67.5388,267.195 64.5,271C 59.92,273.137 55.5867,272.971 51.5,270.5 Z"/></g>
<g><path style="opacity:1" fill="#7db243" d="M 51.5,270.5 C 48.5489,267.172 49.2156,264.672 53.5,263C 56.1667,262.333 58.8333,262.333 61.5,263C 65.674,264.508 66.3407,266.841 63.5,270C 61.5,270.5 59.5,271 57.5,271.5C 55.5466,270.844 53.5466,270.511 51.5,270.5 Z"/></g>
<g><path style="opacity:1" fill="#7cb044" d="M 202.5,244.5 C 206.637,244.146 210.637,244.646 214.5,246C 217.589,249.813 216.755,252.313 212,253.5C 207.374,252.205 203.207,250.038 199.5,247C 200.571,246.148 201.571,245.315 202.5,244.5 Z"/></g>
<g><path style="opacity:1" fill="#7db243" d="M 124.5,256.5 C 124.628,262.453 123.961,262.787 122.5,257.5C 120.833,257.5 119.167,257.5 117.5,257.5C 117.585,259.929 118.585,261.929 120.5,263.5C 120.291,264.086 119.957,264.586 119.5,265C 127.189,265.094 133.856,267.594 139.5,272.5C 132.035,272.909 124.702,272.243 117.5,270.5C 114.461,268.544 111.628,266.21 109,263.5C 106.033,257.226 107.533,252.392 113.5,249C 122.401,244.276 131.734,243.276 141.5,246C 135.434,249.024 129.768,252.524 124.5,256.5 Z"/></g>
<g><path style="opacity:1" fill="#95c166" d="M 209.5,258.5 C 196.505,252.682 183.839,253.182 171.5,260C 164.941,265.586 164.941,271.252 171.5,277C 160.866,272.177 150.533,266.51 140.5,260C 144.5,257.333 144.5,254.667 140.5,252C 146.835,247.497 153.502,243.497 160.5,240C 165.645,240.791 170.812,240.624 176,239.5C 187.553,245.235 198.719,251.568 209.5,258.5 Z"/></g>
<g><path style="opacity:1" fill="#7aae43" d="M 158.5,245.5 C 162.702,245.384 166.702,246.217 170.5,248C 172.354,251.726 171.354,254.392 167.5,256C 163.833,256.667 160.167,256.667 156.5,256C 150.96,251.434 151.627,247.934 158.5,245.5 Z"/></g>
<g><path style="opacity:1" fill="#7aae44" d="M 98.5,235.5 C 103.715,234.702 108.215,236.036 112,239.5C 112.926,243.253 111.426,245.42 107.5,246C 104.167,246.667 100.833,246.667 97.5,246C 92.1506,242.171 92.4839,238.671 98.5,235.5 Z"/></g>
<g><path style="opacity:1" fill="#6e9c3c" d="M 183.5,237.5 C 180.262,236.262 177.262,234.596 174.5,232.5C 171.781,227.32 173.615,224.653 180,224.5C 183.25,224.792 186.417,225.458 189.5,226.5C 191.415,228.071 192.415,230.071 192.5,232.5C 191.127,232.657 189.793,232.49 188.5,232C 186.043,228.871 183.709,229.038 181.5,232.5C 182.456,234.075 183.123,235.742 183.5,237.5 Z"/></g>
<g><path style="opacity:1" fill="#7eb345" d="M 117.5,270.5 C 126.606,276.226 135.939,281.726 145.5,287C 151.653,286.613 157.653,286.446 163.5,286.5C 165.153,286.66 166.486,287.326 167.5,288.5C 163.061,290.554 158.728,292.887 154.5,295.5C 125.919,279.293 97.4185,262.96 69,246.5C 68.3123,245.668 68.479,245.002 69.5,244.5C 82.5,237 95.5,229.5 108.5,222C 109.5,221.333 110.5,221.333 111.5,222C 123.332,228.748 134.999,235.748 146.5,243C 145.584,243.374 144.75,243.874 144,244.5C 135,239.167 126,233.833 117,228.5C 112.506,230.727 107.839,231.06 103,229.5C 95.3291,232.586 88.1624,236.586 81.5,241.5C 84.1667,244.167 84.1667,246.833 81.5,249.5C 93.1915,257.013 105.191,264.013 117.5,270.5 Z"/></g>
<g><path style="opacity:1" fill="#77a547" d="M 155.5,218.5 C 157.058,215.756 156.391,213.59 153.5,212C 149.1,211.022 144.933,211.522 141,213.5C 140.28,215.112 140.446,216.612 141.5,218C 145.363,219.354 149.363,219.854 153.5,219.5C 149.227,222.102 144.893,221.935 140.5,219C 138.006,216.577 138.006,214.244 140.5,212C 144.956,209.037 149.623,208.704 154.5,211C 157.889,213.322 158.223,215.822 155.5,218.5 Z"/></g>
<g><path style="opacity:1" fill="#7cb243" d="M 155.5,218.5 C 155.158,219.338 154.492,219.672 153.5,219.5C 149.363,219.854 145.363,219.354 141.5,218C 140.446,216.612 140.28,215.112 141,213.5C 144.933,211.522 149.1,211.022 153.5,212C 156.391,213.59 157.058,215.756 155.5,218.5 Z"/></g>
<g><path style="opacity:1" fill="#7baf44" d="M 112.5,295.5 C 116.792,295.035 120.792,295.868 124.5,298C 125.576,299.726 125.743,301.559 125,303.5C 119.568,307.048 114.068,307.215 108.5,304C 106.485,299.539 107.819,296.706 112.5,295.5 Z"/></g>
<g><path style="opacity:1" fill="#7db344" d="M 426.5,346.5 C 425.504,346.414 424.671,346.748 424,347.5C 394.997,330.637 366.164,313.637 337.5,296.5C 350.941,289.277 364.274,281.777 377.5,274C 380.419,273.448 383.086,274.115 385.5,276C 412.167,291.667 438.833,307.333 465.5,323C 452.104,330.356 439.104,338.19 426.5,346.5 Z"/></g>
<g><path style="opacity:1" fill="#95c066" d="M 417.5,298.5 C 405.938,294.019 394.604,294.519 383.5,300C 375.882,305.945 375.549,312.278 382.5,319C 382.167,319.167 381.833,319.333 381.5,319.5C 371.5,313.5 361.5,307.5 351.5,301.5C 354.464,298.241 354.131,295.407 350.5,293C 357.167,289 363.833,285 370.5,281C 375.815,281.765 381.149,281.599 386.5,280.5C 397.022,286.258 407.356,292.258 417.5,298.5 Z"/></g>
<g><path style="opacity:1" fill="#7aae43" d="M 367.5,287.5 C 371.637,287.146 375.637,287.646 379.5,289C 381.396,290.808 381.896,292.975 381,295.5C 375.591,299.179 370.091,299.346 364.5,296C 362.702,292.142 363.702,289.309 367.5,287.5 Z"/></g>
<g><path style="opacity:1" fill="#6e9d3c" d="M 401.5,301.5 C 405.007,301.307 408.34,301.973 411.5,303.5C 412.167,303.167 412.833,302.833 413.5,302.5C 414.432,304.766 415.766,306.766 417.5,308.5C 414.493,310.1 412.159,309.433 410.5,306.5C 408.668,307.248 407.001,308.248 405.5,309.5C 408.597,315.451 406.597,318.451 399.5,318.5C 397.055,318.597 394.889,317.93 393,316.5C 392.127,316.735 391.293,317.069 390.5,317.5C 389.816,314.996 388.816,312.329 387.5,309.5C 389.167,309.5 390.833,309.5 392.5,309.5C 392.312,311.103 392.812,312.437 394,313.5C 395.918,312.458 397.751,311.292 399.5,310C 396.631,306.337 397.298,303.504 401.5,301.5 Z"/></g>
<g><path style="opacity:1" fill="#95c166" d="M 239.5,300.5 C 239.842,299.662 240.508,299.328 241.5,299.5C 251.472,305.823 261.472,312.156 271.5,318.5C 268.665,321.671 268.998,324.504 272.5,327C 265.663,331.253 258.663,335.253 251.5,339C 248.753,338.543 245.92,338.043 243,337.5C 240.621,337.482 238.454,338.149 236.5,339.5C 225.67,333.586 215.003,327.419 204.5,321C 216.722,326.135 228.722,325.468 240.5,319C 247.472,312.317 247.139,306.15 239.5,300.5 Z"/></g>
<g><path style="opacity:1" fill="#7cb044" d="M 291.5,302.5 C 295.637,302.146 299.637,302.646 303.5,304C 305.396,305.808 305.896,307.975 305,310.5C 299.94,312.958 294.773,313.125 289.5,311C 286.614,307.374 287.281,304.541 291.5,302.5 Z"/></g>
<g><path style="opacity:1" fill="#95c167" d="M 417.5,298.5 C 429.275,304.89 440.941,311.557 452.5,318.5C 448.587,321.382 448.587,324.215 452.5,327C 445.833,331 439.167,335 432.5,339C 429.51,338.848 426.51,338.348 423.5,337.5C 421.05,337.761 418.717,338.428 416.5,339.5C 406.295,333.466 395.961,327.633 385.5,322C 384.304,321.346 384.304,320.846 385.5,320.5C 396.885,325.886 408.218,325.72 419.5,320C 423.059,317.455 425.392,314.121 426.5,310C 426.375,308.373 425.875,306.873 425,305.5C 422.604,302.933 420.104,300.6 417.5,298.5 Z"/></g>
<g><path style="opacity:1" fill="#748992" d="M 60.5,350.5 C 64.0863,337.819 60.4196,327.652 49.5,320C 46.9865,318.748 44.3198,318.248 41.5,318.5C 45.7796,315.835 50.113,316.001 54.5,319C 62.9129,325.908 66.4129,334.742 65,345.5C 64.0041,347.66 62.5041,349.327 60.5,350.5 Z"/></g>
<g><path style="opacity:1" fill="#aeb6ba" d="M 41.5,318.5 C 44.3198,318.248 46.9865,318.748 49.5,320C 60.4196,327.652 64.0863,337.819 60.5,350.5C 56.4438,353.197 52.4438,353.03 48.5,350C 38.6071,342.316 35.1071,332.482 38,320.5C 38.8159,319.177 39.9826,318.511 41.5,318.5 Z"/></g>
<g><path style="opacity:1" fill="#7db344" d="M 144.5,342.5 C 141.669,341.921 139.336,340.588 137.5,338.5C 131.666,334.079 125.332,330.412 118.5,327.5C 116.747,325.777 114.747,324.277 112.5,323C 125.836,314.33 139.502,306.163 153.5,298.5C 182.494,314.662 211.161,331.328 239.5,348.5C 225.896,356.886 212.063,364.886 198,372.5C 180.209,362.356 162.376,352.356 144.5,342.5 Z"/></g>
<g><path style="opacity:1" fill="#95c166" d="M 144.5,306.5 C 150.507,307.662 156.507,307.828 162.5,307C 171.833,312.333 181.167,317.667 190.5,323C 183.251,321.803 175.918,321.469 168.5,322C 159.677,322.722 154.01,327.222 151.5,335.5C 152.032,339.544 154.032,342.711 157.5,345C 146.691,339.587 136.024,333.587 125.5,327C 128.1,324.127 128.1,321.294 125.5,318.5C 132.067,314.725 138.4,310.725 144.5,306.5 Z"/></g>
<g><path style="opacity:1" fill="#76a445" d="M 152.5,314.5 C 157.815,317.145 157.815,319.978 152.5,323C 148.833,323.667 145.167,323.667 141.5,323C 136.632,320.523 136.299,317.523 140.5,314C 144.721,311.883 148.721,312.05 152.5,314.5 Z"/></g>
<g><path style="opacity:1" fill="#7db243" d="M 152.5,314.5 C 155.453,317.506 155.12,320.006 151.5,322C 147.428,322.956 143.595,322.456 140,320.5C 139.175,318.299 139.675,316.466 141.5,315C 145.152,314.501 148.818,314.335 152.5,314.5 Z"/></g>
<g><path style="opacity:1" fill="#7eb344" d="M 411.5,354.5 C 408.024,357.623 404.024,359.957 399.5,361.5C 392.668,364.412 386.334,368.079 380.5,372.5C 379.127,372.657 377.793,372.49 376.5,372C 348.997,355.747 321.33,339.747 293.5,324C 292.167,323.333 292.167,322.667 293.5,322C 307.082,314.293 320.582,306.46 334,298.5C 362.782,314.803 391.282,331.47 419.5,348.5C 416.765,350.521 414.099,352.521 411.5,354.5 Z"/></g>
<g><path style="opacity:1" fill="#95c166" d="M 324.5,306.5 C 330.832,307.597 337.165,307.764 343.5,307C 352.335,312.585 361.335,317.919 370.5,323C 365.543,322.58 360.543,322.08 355.5,321.5C 346.618,321.252 339.118,324.252 333,330.5C 330.268,336.559 331.768,341.392 337.5,345C 326.691,339.587 316.024,333.587 305.5,327C 308.167,324.333 308.167,321.667 305.5,319C 311.899,314.81 318.232,310.643 324.5,306.5 Z"/></g>
<g><path style="opacity:1" fill="#7cb044" d="M 246.5,321.5 C 250.637,321.146 254.637,321.646 258.5,323C 261.462,326.488 260.795,329.155 256.5,331C 252.044,331.867 247.711,331.534 243.5,330C 242.707,328.915 242.04,327.748 241.5,326.5C 242.882,324.451 244.548,322.785 246.5,321.5 Z"/></g>
<g><path style="opacity:1" fill="#76a545" d="M 321.5,314.5 C 326.675,311.72 331.508,312.387 336,316.5C 337.042,319.804 335.875,321.971 332.5,323C 327.771,323.996 323.271,323.496 319,321.5C 316.577,317.932 317.411,315.598 321.5,314.5 Z"/></g>
<g><path style="opacity:1" fill="#7db243" d="M 321.5,314.5 C 325.182,314.335 328.848,314.501 332.5,315C 335.371,317.84 335.037,320.174 331.5,322C 328.5,322.667 325.5,322.667 322.5,322C 318.88,320.006 318.547,317.506 321.5,314.5 Z"/></g>
<g><path style="opacity:1" fill="#7cb045" d="M 426.5,321.5 C 430.605,321.234 434.605,321.734 438.5,323C 440.396,324.808 440.896,326.975 440,329.5C 435.005,332.801 429.838,333.135 424.5,330.5C 421.54,326.674 422.207,323.674 426.5,321.5 Z"/></g>
<g><path style="opacity:1" fill="#6a973b" d="M 20.5,270.5 C 23.3237,273.465 26.657,275.965 30.5,278C 50.393,289.444 70.393,300.611 90.5,311.5C 99.174,317.841 108.507,323.175 118.5,327.5C 124.334,331.921 130.668,335.588 137.5,338.5C 139.336,340.588 141.669,341.921 144.5,342.5C 185.669,367.255 227.336,391.255 269.5,414.5C 275.13,418.654 281.13,422.321 287.5,425.5C 287.802,428.059 287.468,430.393 286.5,432.5C 199.293,382.129 111.959,331.962 24.5,282C 19.7969,279.334 18.4635,275.501 20.5,270.5 Z"/></g>
<g><path style="opacity:1" fill="#6e9c3c" d="M 174.5,327.5 C 179.566,327.34 184.566,327.84 189.5,329C 189.167,329.333 188.833,329.667 188.5,330C 191.495,332.217 191.662,334.05 189,335.5C 187.113,335.031 185.613,334.031 184.5,332.5C 182.833,333.333 181.167,334.167 179.5,335C 180.376,336.586 181.376,338.086 182.5,339.5C 182.023,340.478 181.357,341.311 180.5,342C 175.333,343.384 170.167,343.884 165,343.5C 164.351,340.551 163.184,337.551 161.5,334.5C 163.167,334.5 164.833,334.5 166.5,334.5C 166.914,338.7 168.914,339.533 172.5,337C 172.957,336.586 173.291,336.086 173.5,335.5C 170.821,332.514 171.154,329.848 174.5,327.5 Z"/></g>
<g><path style="opacity:1" fill="#6e9d3c" d="M 354.5,327.5 C 359.566,327.34 364.566,327.84 369.5,329C 369.167,329.333 368.833,329.667 368.5,330C 370.607,331.264 371.607,333.097 371.5,335.5C 368.579,335.854 366.246,334.854 364.5,332.5C 359.898,333.883 359.232,336.383 362.5,340C 361.728,341.221 360.728,342.221 359.5,343C 354.722,343.293 350.055,343.46 345.5,343.5C 345.716,341.101 344.549,339.101 342,337.5C 341.517,336.552 341.351,335.552 341.5,334.5C 343.167,334.5 344.833,334.5 346.5,334.5C 346.147,336.635 346.98,337.968 349,338.5C 350.893,337.804 352.726,336.97 354.5,336C 350.605,333.178 350.605,330.345 354.5,327.5 Z"/></g>
<g><path style="opacity:1" fill="#95c167" d="M 192.5,325.5 C 193.721,324.535 195.054,324.702 196.5,326C 206.002,331.919 215.669,337.586 225.5,343C 225.957,343.414 226.291,343.914 226.5,344.5C 223.833,347.167 223.833,349.833 226.5,352.5C 220.298,356.532 213.965,360.365 207.5,364C 204.343,364.24 201.176,364.073 198,363.5C 195.41,363.376 193.077,364.042 191,365.5C 181.091,359.267 170.924,353.434 160.5,348C 159.304,347.346 159.304,346.846 160.5,346.5C 162.385,347.609 164.385,348.443 166.5,349C 176.336,350.664 185.669,349.331 194.5,345C 202.947,337.521 202.28,331.021 192.5,325.5 Z"/></g>
<g><path style="opacity:1" fill="#95c167" d="M 372.5,325.5 C 373.721,324.535 375.054,324.702 376.5,326C 386.703,331.93 396.703,338.097 406.5,344.5C 405.389,345.611 404.722,346.945 404.5,348.5C 405.388,350.155 405.888,351.822 406,353.5C 399.085,357.374 392.251,361.374 385.5,365.5C 380.835,363.224 376.002,362.89 371,364.5C 360.871,359.063 350.705,353.563 340.5,348C 339.304,347.346 339.304,346.846 340.5,346.5C 342.385,347.609 344.385,348.443 346.5,349C 357.201,350.921 367.201,349.255 376.5,344C 382.834,336.168 381.501,330.001 372.5,325.5 Z"/></g>
<g><path style="opacity:1" fill="#91bc65" d="M 118.5,327.5 C 125.332,330.412 131.666,334.079 137.5,338.5C 130.668,335.588 124.334,331.921 118.5,327.5 Z"/></g>
<g><path style="opacity:1" fill="#7eb344" d="M 353.5,387.5 C 347.666,391.921 341.332,395.588 334.5,398.5C 305.478,382.57 276.645,366.237 248,349.5C 247.911,347.887 248.745,346.72 250.5,346C 263.038,338.633 275.705,331.467 288.5,324.5C 316.962,340.467 345.295,356.633 373.5,373C 374.833,373.667 374.833,374.333 373.5,375C 366.601,378.941 359.934,383.108 353.5,387.5 Z"/></g>
<g><path style="opacity:1" fill="#95c166" d="M 280.5,331.5 C 285.503,334.084 290.503,334.084 295.5,331.5C 306.037,337.866 316.704,344.033 327.5,350C 322.125,348.069 316.458,347.236 310.5,347.5C 301.81,346.896 294.31,349.563 288,355.5C 284.975,362.962 287.142,368.462 294.5,372C 294.167,372.167 293.833,372.333 293.5,372.5C 282.298,366.07 271.298,359.403 260.5,352.5C 261.611,351.389 262.278,350.055 262.5,348.5C 261.612,346.845 261.112,345.178 261,343.5C 267.815,339.851 274.315,335.851 280.5,331.5 Z"/></g>
<g><path style="opacity:1" fill="#7aad43" d="M 277.5,338.5 C 282.715,337.702 287.215,339.036 291,342.5C 290.494,347.626 287.494,349.959 282,349.5C 278.871,349.671 276.037,348.838 273.5,347C 272.424,345.274 272.257,343.441 273,341.5C 274.652,340.601 276.152,339.601 277.5,338.5 Z"/></g>
<g><path style="opacity:1" fill="#7cb044" d="M 202.5,346.5 C 206.346,346.545 210.013,347.378 213.5,349C 215.787,351.048 215.954,353.215 214,355.5C 208.838,358.129 203.671,358.129 198.5,355.5C 196.876,354.131 196.376,352.464 197,350.5C 198.812,349.023 200.645,347.69 202.5,346.5 Z"/></g>
<g><path style="opacity:1" fill="#7cb044" d="M 380.5,347.5 C 384.182,347.335 387.848,347.501 391.5,348C 397.015,351.612 396.682,354.612 390.5,357C 387.5,357.667 384.5,357.667 381.5,357C 375.233,354.335 374.899,351.168 380.5,347.5 Z"/></g>
<g><path style="opacity:1" fill="#5f8635" d="M 467.5,322.5 C 468.434,323.568 468.768,324.901 468.5,326.5C 468.714,328.144 468.38,329.644 467.5,331C 408.5,364.667 349.5,398.333 290.5,432C 289.054,433.298 287.721,433.465 286.5,432.5C 287.468,430.393 287.802,428.059 287.5,425.5C 297.003,420.919 306.003,415.586 314.5,409.5C 321.527,406.323 328.194,402.656 334.5,398.5C 341.332,395.588 347.666,391.921 353.5,387.5C 362.78,382.86 371.78,377.86 380.5,372.5C 387.332,369.588 393.666,365.921 399.5,361.5C 404.024,359.957 408.024,357.623 411.5,354.5C 416.698,352.07 421.698,349.403 426.5,346.5C 440.667,339.253 454.334,331.253 467.5,322.5 Z"/></g>
<g><path style="opacity:1" fill="#7eb345" d="M 314.5,409.5 C 305.316,413.844 296.483,418.844 288,424.5C 282.019,420.76 275.852,417.427 269.5,414.5C 247.062,400.774 224.395,387.274 201.5,374C 215.376,365.897 229.376,358.063 243.5,350.5C 272.292,366.731 300.959,383.231 329.5,400C 324.097,402.692 319.097,405.858 314.5,409.5 Z"/></g>
<g><path style="opacity:1" fill="#d9e0e3" d="M 106.5,353.5 C 100.734,357.559 94.7341,361.392 88.5,365C 92.3599,367.761 96.3599,370.261 100.5,372.5C 124.303,385.902 147.969,399.569 171.5,413.5C 178.27,409.699 185.103,406.032 192,402.5C 193.666,403.348 195.166,404.348 196.5,405.5C 188.764,410.558 180.764,415.224 172.5,419.5C 145.231,404.864 118.231,389.697 91.5,374C 86.5944,371.058 81.9277,367.891 77.5,364.5C 85.1391,360.012 92.8058,355.512 100.5,351C 102.979,350.638 104.979,351.471 106.5,353.5 Z"/></g>
<g><path style="opacity:1" fill="#6d9c3c" d="M 309.5,353.5 C 313.375,353.356 317.208,353.69 321,354.5C 323.271,355.601 325.104,357.267 326.5,359.5C 323.794,360.793 321.294,360.459 319,358.5C 317.775,358.862 316.609,359.362 315.5,360C 316.466,362.401 316.466,365.067 315.5,368C 309.885,369.81 304.218,369.81 298.5,368C 298.957,367.586 299.291,367.086 299.5,366.5C 297.585,364.929 296.585,362.929 296.5,360.5C 298.167,360.5 299.833,360.5 301.5,360.5C 301.976,365.061 303.976,365.728 307.5,362.5C 307.833,362.167 308.167,361.833 308.5,361.5C 305.638,358.313 305.971,355.646 309.5,353.5 Z"/></g>
<g><path style="opacity:1" fill="#afb7bc" d="M 106.5,353.5 C 107.648,357.981 107.815,362.648 107,367.5C 104.674,369.066 102.508,370.732 100.5,372.5C 96.3599,370.261 92.3599,367.761 88.5,365C 94.7341,361.392 100.734,357.559 106.5,353.5 Z"/></g>
<g><path style="opacity:1" fill="#95c166" d="M 329.5,352.5 C 330.721,351.535 332.054,351.702 333.5,353C 342.833,358.667 352.167,364.333 361.5,370C 358.833,372.667 358.833,375.333 361.5,378C 355.165,382.503 348.498,386.503 341.5,390C 336.33,389.336 331.163,389.503 326,390.5C 316.102,385.134 306.269,379.634 296.5,374C 298.553,373.675 300.553,374.009 302.5,375C 312.431,376.346 321.764,374.679 330.5,370C 337.369,363.724 337.035,357.891 329.5,352.5 Z"/></g>
<g><path style="opacity:1" fill="#95c167" d="M 284.5,377.5 C 273.854,372.085 262.854,371.252 251.5,375C 239.324,380.091 237.658,387.257 246.5,396.5C 235.493,391.297 225.159,385.13 215.5,378C 218.383,374.97 218.05,372.303 214.5,370C 221.167,366 227.833,362 234.5,358C 237.1,358.353 239.767,358.853 242.5,359.5C 245.51,358.652 248.51,358.152 251.5,358C 262.67,364.363 273.67,370.863 284.5,377.5 Z"/></g>
<g><path style="opacity:1" fill="#7bae43" d="M 231.5,364.5 C 235.637,364.146 239.637,364.646 243.5,366C 245.396,367.808 245.896,369.975 245,372.5C 239.623,376.275 234.123,376.442 228.5,373C 226.702,369.142 227.702,366.309 231.5,364.5 Z"/></g>
<g><path style="opacity:0.975" fill="#cdd6db" d="M 77.5,364.5 C 81.9277,367.891 86.5944,371.058 91.5,374C 118.231,389.697 145.231,404.864 172.5,419.5C 171.555,424.405 171.221,429.405 171.5,434.5C 139.612,416.305 107.779,397.971 76,379.5C 75.5026,376.854 75.3359,374.187 75.5,371.5C 75.3379,369.473 75.5045,367.473 76,365.5C 76.3826,364.944 76.8826,364.611 77.5,364.5 Z"/></g>
<g><path style="opacity:1" fill="#92bd65" d="M 399.5,361.5 C 393.666,365.921 387.332,369.588 380.5,372.5C 386.334,368.079 392.668,364.412 399.5,361.5 Z"/></g>
<g><path style="opacity:1" fill="#7db344" d="M 284.5,377.5 C 291.431,384.311 291.097,390.811 283.5,397C 271.043,403.098 258.71,402.932 246.5,396.5C 237.658,387.257 239.324,380.091 251.5,375C 262.854,371.252 273.854,372.085 284.5,377.5 Z"/></g>
<g><path style="opacity:1" fill="#7baf44" d="M 336.5,372.5 C 340.747,372.178 344.747,373.011 348.5,375C 349.576,376.726 349.743,378.559 349,380.5C 343.661,384.268 338.161,384.434 332.5,381C 331.446,379.612 331.28,378.112 332,376.5C 333.397,374.93 334.897,373.596 336.5,372.5 Z"/></g>
<g><path style="opacity:1" fill="#6e9d3c" d="M 265.5,378.5 C 269.054,378.15 272.388,378.816 275.5,380.5C 276.167,380.167 276.833,379.833 277.5,379.5C 278.626,381.793 279.959,383.96 281.5,386C 278.364,387.041 275.864,386.207 274,383.5C 272.414,384.376 270.914,385.376 269.5,386.5C 272.484,392.726 270.317,395.726 263,395.5C 260.621,395.518 258.454,394.851 256.5,393.5C 255.833,393.833 255.167,394.167 254.5,394.5C 252.929,392.029 251.929,389.363 251.5,386.5C 254.509,386.423 256.676,387.756 258,390.5C 259.918,389.458 261.751,388.292 263.5,387C 259.293,383.11 259.96,380.276 265.5,378.5 Z"/></g>
<g><path style="opacity:1" fill="#95c166" d="M 284.5,377.5 C 294.942,383.224 305.275,389.224 315.5,395.5C 312.536,398.759 312.869,401.593 316.5,404C 309.833,408 303.167,412 296.5,416C 291.165,415.281 285.832,415.447 280.5,416.5C 268.774,410.311 257.441,403.644 246.5,396.5C 258.71,402.932 271.043,403.098 283.5,397C 291.097,390.811 291.431,384.311 284.5,377.5 Z"/></g>
<g><path style="opacity:1" fill="#7cb044" d="M 290.5,398.5 C 295.121,397.993 299.454,398.826 303.5,401C 305.028,403.881 304.362,406.214 301.5,408C 296.623,410.296 291.956,409.963 287.5,407C 285.702,403.142 286.702,400.309 290.5,398.5 Z"/></g>
<g><path style="opacity:0.996" fill="#aeb7bb" d="M 196.5,405.5 C 197.648,409.981 197.815,414.648 197,419.5C 190.389,422.969 184.222,426.969 178.5,431.5C 176.287,432.773 173.954,433.773 171.5,434.5C 171.221,429.405 171.555,424.405 172.5,419.5C 180.764,415.224 188.764,410.558 196.5,405.5 Z"/></g>
<g><path style="opacity:1" fill="#91bc65" d="M 314.5,409.5 C 306.003,415.586 297.003,420.919 287.5,425.5C 281.13,422.321 275.13,418.654 269.5,414.5C 275.852,417.427 282.019,420.76 288,424.5C 296.483,418.844 305.316,413.844 314.5,409.5 Z"/></g>
<g><path style="opacity:1" fill="#758a93" d="M 241.5,454.5 C 244.187,442.363 240.521,432.529 230.5,425C 227.607,423.851 224.607,423.351 221.5,423.5C 221.918,422.778 222.584,422.278 223.5,422C 228.975,420.598 233.642,421.931 237.5,426C 242.553,431.553 245.553,438.053 246.5,445.5C 246.623,449.595 244.956,452.595 241.5,454.5 Z"/></g>
<g><path style="opacity:1" fill="#aeb6ba" d="M 221.5,423.5 C 224.607,423.351 227.607,423.851 230.5,425C 240.521,432.529 244.187,442.363 241.5,454.5C 236.26,457.389 231.26,456.889 226.5,453C 217.817,444.976 215.317,435.476 219,424.5C 219.671,423.748 220.504,423.414 221.5,423.5 Z"/></g>
</svg>
