<?xml version="1.0" encoding="UTF-8"?>
<!DOCTYPE svg PUBLIC "-//W3C//DTD SVG 1.1//EN" "http://www.w3.org/Graphics/SVG/1.1/DTD/svg11.dtd">
<svg xmlns="http://www.w3.org/2000/svg" version="1.1" width="740px" height="740px" style="shape-rendering:geometricPrecision; text-rendering:geometricPrecision; image-rendering:optimizeQuality; fill-rule:evenodd; clip-rule:evenodd" xmlns:xlink="http://www.w3.org/1999/xlink">
<g><path style="opacity:0.946" fill="#005aa0" d="M 120.5,274.5 C 124.226,274.177 127.893,274.511 131.5,275.5C 138.22,286.439 144.553,297.606 150.5,309C 148.785,311.602 146.951,314.102 145,316.5C 117.806,313.219 90.6394,309.719 63.5,306C 78.7242,288.72 97.7242,278.22 120.5,274.5 Z"/></g>
<g><path style="opacity:0.93" fill="#005aa0" d="M 141.5,275.5 C 167.783,275.635 189.783,285.635 207.5,305.5C 195.046,309.423 182.38,312.257 169.5,314C 166.001,308.481 161.167,305.981 155,306.5C 150.449,296.077 145.949,285.744 141.5,275.5 Z"/></g>
<g><path style="opacity:0.945" fill="#005aa0" d="M 212.5,313.5 C 213.675,313.281 214.675,313.614 215.5,314.5C 230.297,335.647 235.464,358.98 231,384.5C 210.167,365 189.333,345.5 168.5,326C 170.016,324.103 170.683,321.936 170.5,319.5C 184.653,317.65 198.653,315.65 212.5,313.5 Z"/></g>
<g><path style="opacity:0.958" fill="#005aa0" d="M 55.5,315.5 C 85.1744,316.778 114.841,318.278 144.5,320C 145.939,320.991 146.939,322.324 147.5,324C 112.296,344.7 76.9628,365.2 41.5,385.5C 36.3209,360.214 40.9875,336.88 55.5,315.5 Z"/></g>
<g><path style="opacity:0.958" fill="#005aa0" d="M 147.5,327.5 C 149.346,327.222 150.68,327.889 151.5,329.5C 130.667,370.5 109.833,411.5 89,452.5C 66.4532,439.778 50.9532,421.111 42.5,396.5C 77.3573,373.241 112.357,350.241 147.5,327.5 Z"/></g>
<g><path style="opacity:0.928" fill="#005aa0" d="M 417.5,328.5 C 433.401,326.438 443.734,332.938 448.5,348C 443.351,351.104 437.685,352.938 431.5,353.5C 429.618,346.559 425.285,344.392 418.5,347C 417.667,347.833 416.833,348.667 416,349.5C 415.833,355.667 415.667,361.833 415.5,368C 415.388,375.242 415.888,382.409 417,389.5C 421.258,393.393 425.591,393.393 430,389.5C 431.009,387.975 431.509,386.308 431.5,384.5C 437.201,385.675 442.868,387.009 448.5,388.5C 446.024,402.264 437.691,409.264 423.5,409.5C 409.469,409.598 400.969,402.931 398,389.5C 397.333,375.5 397.333,361.5 398,347.5C 401.147,337.517 407.647,331.184 417.5,328.5 Z"/></g>
<g><path style="opacity:0.927" fill="#005aa0" d="M 481.5,328.5 C 496.077,326.533 506.243,332.199 512,345.5C 512.781,346.944 512.614,348.277 511.5,349.5C 506.313,351.452 500.98,352.785 495.5,353.5C 495.018,348.484 492.184,345.818 487,345.5C 483.599,345.698 481.266,347.365 480,350.5C 479.833,356.5 479.667,362.5 479.5,368.5C 479.39,375.576 479.89,382.576 481,389.5C 485.954,393.677 490.62,393.343 495,388.5C 495.49,387.207 495.657,385.873 495.5,384.5C 501.201,385.675 506.868,387.009 512.5,388.5C 510.063,402.252 501.73,409.252 487.5,409.5C 473.508,409.611 465.008,402.944 462,389.5C 461.333,375.833 461.333,362.167 462,348.5C 464.682,337.986 471.182,331.319 481.5,328.5 Z"/></g>
<g><path style="opacity:0.957" fill="#005aa0" d="M 164.5,329.5 C 170.075,333.567 175.241,338.234 180,343.5C 194.3,359.468 208.967,375.135 224,390.5C 225.515,392.677 227.015,394.844 228.5,397C 220.442,422.203 204.775,440.703 181.5,452.5C 175.157,412.11 168.491,371.777 161.5,331.5C 162.602,330.824 163.602,330.158 164.5,329.5 Z"/></g>
<g><path style="opacity:0.948" fill="#005aa0" d="M 269.5,329.5 C 281.221,329.113 292.887,329.613 304.5,331C 311.573,333.072 316.406,337.572 319,344.5C 323.872,370.467 313.039,382.467 286.5,380.5C 286.5,389.833 286.5,399.167 286.5,408.5C 280.833,408.5 275.167,408.5 269.5,408.5C 269.5,382.167 269.5,355.833 269.5,329.5 Z M 286.5,345.5 C 290.182,345.335 293.848,345.501 297.5,346C 305.14,351.176 305.473,356.843 298.5,363C 294.514,363.499 290.514,363.666 286.5,363.5C 286.5,357.5 286.5,351.5 286.5,345.5 Z"/></g>
<g><path style="opacity:0.933" fill="#005aa0" d="M 349.5,329.5 C 360.637,327.653 370.137,330.653 378,338.5C 379.927,341.948 381.261,345.615 382,349.5C 382.932,364.222 382.599,378.888 381,393.5C 376.162,403.823 367.996,409.157 356.5,409.5C 342.392,409.219 333.892,402.219 331,388.5C 330.07,374.111 330.403,359.778 332,345.5C 335.536,337.456 341.369,332.123 349.5,329.5 Z M 354.5,345.5 C 358.585,345.459 361.752,347.125 364,350.5C 364.187,362.213 364.687,373.879 365.5,385.5C 362.953,391.778 358.62,393.611 352.5,391C 350.513,389.681 349.346,387.848 349,385.5C 348.333,374.167 348.333,362.833 349,351.5C 350.021,348.65 351.854,346.65 354.5,345.5 Z"/></g>
<g><path style="opacity:0.949" fill="#005aa0" d="M 527.5,329.5 C 542.833,329.5 558.167,329.5 573.5,329.5C 573.5,334.833 573.5,340.167 573.5,345.5C 563.833,345.5 554.167,345.5 544.5,345.5C 544.5,350.5 544.5,355.5 544.5,360.5C 552.833,360.5 561.167,360.5 569.5,360.5C 569.5,365.833 569.5,371.167 569.5,376.5C 561.167,376.5 552.833,376.5 544.5,376.5C 544.5,381.833 544.5,387.167 544.5,392.5C 554.167,392.5 563.833,392.5 573.5,392.5C 573.5,397.833 573.5,403.167 573.5,408.5C 558.167,408.5 542.833,408.5 527.5,408.5C 527.5,382.167 527.5,355.833 527.5,329.5 Z"/></g>
<g><path style="opacity:0.94" fill="#005aa0" d="M 581.5,329.5 C 598.5,329.5 615.5,329.5 632.5,329.5C 632.5,334.833 632.5,340.167 632.5,345.5C 626.833,345.5 621.167,345.5 615.5,345.5C 615.5,366.5 615.5,387.5 615.5,408.5C 609.833,408.5 604.167,408.5 598.5,408.5C 598.5,387.5 598.5,366.5 598.5,345.5C 592.833,345.5 587.167,345.5 581.5,345.5C 581.5,340.167 581.5,334.833 581.5,329.5 Z"/></g>
<g><path style="opacity:0.957" fill="#005aa0" d="M 645.5,329.5 C 651.167,329.5 656.833,329.5 662.5,329.5C 662.333,343.837 662.5,358.171 663,372.5C 670,358.5 677,344.5 684,330.5C 689.072,329.529 694.238,329.195 699.5,329.5C 699.5,355.833 699.5,382.167 699.5,408.5C 693.833,408.5 688.167,408.5 682.5,408.5C 682.667,395.163 682.5,381.829 682,368.5C 675.589,381.656 668.922,394.656 662,407.5C 656.593,408.473 651.093,408.807 645.5,408.5C 645.5,382.167 645.5,355.833 645.5,329.5 Z"/></g>
<g><path style="opacity:0.962" fill="#005aa0" d="M 154.5,330.5 C 157.43,330.981 158.763,332.814 158.5,336C 162.953,376.409 167.619,416.743 172.5,457C 149.481,466.183 126.147,466.85 102.5,459C 100.998,458.417 99.6651,457.584 98.5,456.5C 117.366,414.559 136.033,372.559 154.5,330.5 Z"/></g>
</svg>
