<svg xmlns:xlink="http://www.w3.org/1999/xlink" xmlns="http://www.w3.org/2000/svg" width="267" height="27" viewBox="0 0 267 27" fill="none" class="svg replaced-svg">
<path fill-rule="evenodd" clip-rule="evenodd" d="M28.8283 0H30.0736C30.5717 0.0622642 31.0698 0.124528 31.5679 0.186792C30.3226 2.11698 29.0151 3.98491 27.7698 5.91509C28.5792 4.48302 29.4509 3.05094 30.2604 1.61887C28.4547 1.43208 26.5245 1.80566 24.9679 2.86415C24.1585 3.42453 23.5981 4.23396 23.0377 4.98113C21.4811 7.22264 20.1736 9.65094 18.6792 11.9547C17.6207 13.5736 16.5 15.2547 15.1302 16.6868C14.4453 17.3717 13.6981 18.0566 12.7641 18.3679C11.9547 18.617 11.083 18.617 10.2113 18.6792C11.0207 18.5547 11.8924 18.5547 12.6396 18.1811C13.8226 17.5585 14.6321 16.5 15.4415 15.5038C18.2434 11.7057 20.1113 7.34717 22.6641 3.36226C19.8 1.36981 15.9396 0.622642 12.4528 1.43208C9.52639 2.05472 6.9113 3.73585 5.04337 5.97736C4.10941 5.85283 3.11318 5.97736 2.24149 6.35094C3.48677 4.60755 5.04337 3.11321 6.9113 2.05472C9.40186 0.622642 12.4528 0 15.317 0.249057C18.0566 0.498113 20.6717 1.5566 22.7887 3.23774C24.0339 1.24528 26.4622 0.186792 28.8283 0Z" fill="#005A9C"></path>
<path fill-rule="evenodd" clip-rule="evenodd" d="M1.05852 8.40581C2.94943e-05 10.8341 -0.249027 13.5737 0.249086 16.1266C0.809463 18.7417 2.17927 21.17 4.10946 23.0379C7.72078 26.7115 13.6981 27.9567 18.617 26.2134C20.983 25.3417 23.2246 23.9718 24.7812 21.9794C22.3529 23.0379 19.6132 23.3492 16.9981 22.9134C12.2661 22.2284 7.78305 19.4888 5.41701 15.3794C4.48305 13.6983 3.73588 11.6435 4.35852 9.71335C4.7321 8.77939 5.16795 7.65864 6.28871 7.34732C5.35475 6.97373 4.29626 6.78694 3.30003 6.91147C2.36607 7.03599 1.4321 7.59637 1.05852 8.40581Z" fill="#005A9C"></path>
<path fill-rule="evenodd" clip-rule="evenodd" d="M27.5208 9.02864C26.7114 9.09091 25.9642 9.2777 25.2793 9.77581C24.2208 10.5852 23.2868 11.5815 22.4774 12.5777C21.0453 14.2588 19.551 15.94 18.1189 17.5588C17.434 18.306 16.6246 19.0532 15.5661 19.4268C14.1963 19.8626 12.7642 19.8626 11.3944 19.5513C12.2661 20.1117 13.2 20.672 14.134 21.1079C15.8774 21.2947 17.6208 20.7966 19.0529 19.8626C21.2944 18.5551 22.9132 16.4381 25.217 15.1928C25.9642 14.7569 26.7736 14.3211 27.6453 14.1966C29.0151 12.5777 30.2604 10.8966 31.568 9.21543C30.2604 9.02864 28.8906 8.90411 27.5208 9.02864Z" fill="#005A9C"></path>
<path fill-rule="evenodd" clip-rule="evenodd" d="M27.7076 14.2586C29.0151 14.0718 30.3849 14.3209 31.568 14.8812C30.0736 16.8114 28.5793 18.7416 26.8359 20.485C25.4038 21.9793 23.2246 22.4775 21.1698 22.5397C18.8038 22.602 16.3755 22.1039 14.1963 21.1699C15.9397 21.3567 17.6831 20.8586 19.1151 19.9246C21.3566 18.6171 22.9755 16.5001 25.2793 15.2548C26.0264 14.7567 26.8359 14.3831 27.7076 14.2586Z" fill="#FD4236"></path>
<path fill-rule="evenodd" clip-rule="evenodd" d="M41.3499 3.16773C47.3674 3.16016 53.3889 3.16394 59.4064 3.16394C59.1625 4.98063 58.9187 6.80111 58.6748 8.62158C56.6374 8.62158 54.5957 8.62158 52.5582 8.62158C51.8432 13.6667 51.1283 18.7118 50.4133 23.7569C47.9377 23.7569 45.458 23.7569 42.9783 23.7569C43.6933 18.7118 44.4082 13.6667 45.1232 8.62158C42.6104 8.6178 40.0977 8.62537 37.5849 8.6178C38.8248 6.79732 40.1018 4.99199 41.3499 3.16773ZM61.6588 3.18286C61.0223 8.52696 60.39 13.8748 59.7577 19.2189C59.5923 20.7366 59.3196 22.2468 59.1005 23.7569C61.6092 23.7569 64.1137 23.7569 66.6223 23.7569C66.8124 22.4663 66.9943 21.1719 67.1844 19.8813C69.598 19.8775 72.0116 19.8889 74.4251 19.8737C76.6114 19.8434 78.7936 18.3371 79.0746 16.2933C79.5086 13.0725 79.9466 9.85164 80.3723 6.62701C80.5666 5.37425 79.7648 4.08364 78.5043 3.5727C77.8099 3.25478 77.0206 3.17908 76.2477 3.19422C71.3875 3.19043 66.5231 3.18665 61.6588 3.18286ZM68.7714 8.62537C70.0774 8.62537 71.3834 8.62537 72.6893 8.62537C72.4248 10.3437 72.1686 12.0619 71.9041 13.7764C71.8876 14.1133 71.5941 14.4312 71.2098 14.4161C70.1104 14.4388 69.0152 14.4161 67.9159 14.4199C68.2052 12.4896 68.4738 10.5556 68.7714 8.62537ZM85.9641 4.28802C86.2162 3.56134 87.051 3.13745 87.861 3.16394C91.4318 3.16773 95.0067 3.16016 98.5775 3.16773C99.2636 3.12988 100.003 3.54999 100.016 4.23125C100.809 10.7411 101.595 17.2509 102.384 23.7569C99.8422 23.7569 97.3005 23.7569 94.7588 23.7569C94.6224 22.5647 94.4901 21.3725 94.3538 20.1765C91.9402 20.1954 89.5225 20.2295 87.1047 20.2522C86.6667 21.4065 86.2699 22.5798 85.8111 23.7304C84.9722 23.6509 84.1249 23.7153 83.286 23.6963C81.5998 23.7115 79.9177 23.6661 78.2356 23.719C80.7815 17.2319 83.3934 10.7638 85.9641 4.28802ZM91.56 9.35961C90.7871 11.2482 90.0143 13.1406 89.2456 15.0292C90.7416 15.0292 92.2377 15.0292 93.7338 15.0292C93.5107 13.1406 93.2751 11.252 93.0478 9.35961C92.5518 9.35961 92.0559 9.35961 91.56 9.35961ZM107.207 3.16394C109.711 3.16394 112.212 3.16394 114.716 3.16394C114.344 5.74516 113.981 8.33016 113.613 10.9114C115.026 10.9152 116.44 10.9114 117.853 10.9152C118.229 8.33016 118.589 5.74516 118.961 3.16016C121.602 3.16394 124.247 3.15637 126.888 3.16394C125.925 10.0257 124.974 16.8913 124.011 23.7531C121.37 23.7531 118.733 23.7531 116.093 23.7531C116.436 21.3119 116.787 18.8707 117.13 16.4296C115.716 16.4296 114.299 16.4296 112.885 16.4296C112.538 18.8707 112.191 21.3119 111.848 23.7531C109.348 23.7531 106.843 23.7531 104.339 23.7531C105.293 16.8951 106.252 10.0295 107.207 3.16394ZM150.697 3.16394C153.197 3.16773 155.698 3.16394 158.198 3.16394C157.834 5.74894 157.462 8.33016 157.099 10.9152C158.512 10.9152 159.93 10.9152 161.343 10.9152C161.715 8.33016 162.075 5.74516 162.451 3.16016C165.092 3.16394 167.733 3.16016 170.373 3.16394C169.415 10.0295 168.46 16.8913 167.501 23.7569C164.86 23.7569 162.219 23.7569 159.578 23.7569C159.93 21.3157 160.273 18.8745 160.62 16.4371C159.202 16.4371 157.789 16.4371 156.371 16.4371C156.024 18.8783 155.677 21.3195 155.33 23.7607C152.829 23.7607 150.325 23.7607 147.82 23.7607C148.783 16.8951 149.738 10.0257 150.697 3.16394ZM225.592 3.16394C233.015 3.16394 240.434 3.16016 247.856 3.16394C246.649 4.98442 245.443 6.80489 244.24 8.62158C242.45 8.62158 240.661 8.62158 238.875 8.62158C238.152 13.6667 237.441 18.7118 236.726 23.7569C234.247 23.7607 231.767 23.7569 229.291 23.7569C230.002 18.7118 230.721 13.6667 231.432 8.62158C229.238 8.62158 227.051 8.62158 224.857 8.62158C225.101 6.80489 225.344 4.98442 225.592 3.16394ZM249.046 3.16394C248.083 10.0144 247.116 16.861 246.191 23.7153C247.319 23.6661 248.451 23.7115 249.584 23.6963C253.452 23.719 257.325 23.6547 261.197 23.7304C262.776 23.6169 264.313 22.7993 265.086 21.5163C265.574 20.7442 265.59 19.8283 265.727 18.9654C266.111 16.2933 266.454 13.6137 266.863 10.9454V10.3096C266.752 9.24229 265.995 8.27339 264.937 7.823C263.925 7.34612 262.755 7.44073 261.66 7.43695C259.75 7.43695 257.845 7.43695 255.936 7.43695C256.147 6.01388 256.362 4.5908 256.572 3.16773C254.064 3.16394 251.555 3.16394 249.046 3.16394ZM254.411 18.3182C254.675 16.5128 254.94 14.7075 255.204 12.9022C256.502 12.9022 257.8 12.9022 259.098 12.9022C258.841 14.4918 258.659 16.0927 258.325 17.6672C258.246 17.9094 258.197 18.3409 257.825 18.3068C256.688 18.3333 255.552 18.3106 254.411 18.3182ZM128.599 7.72838C128.057 11.4223 127.557 15.12 127.024 18.8178C126.855 19.7602 126.929 20.7631 127.45 21.6071C128.231 22.9545 129.867 23.7342 131.496 23.8402H140.609C143.113 23.5601 145.518 21.9364 146.105 19.6239C146.353 18.4014 146.44 17.16 146.626 15.93C144.13 15.93 141.638 15.93 139.146 15.93C139.034 16.5999 138.922 17.2698 138.819 17.9397C137.397 17.9473 135.98 17.9359 134.562 17.9473C135.004 14.8513 135.513 11.7629 135.951 8.667C137.393 8.68214 138.836 8.68593 140.278 8.69728C140.171 9.36718 140.067 10.0409 139.96 10.7146C142.448 10.7146 144.932 10.7146 147.424 10.7146C147.577 9.44666 147.783 8.17877 147.92 6.90708C148.015 5.9836 147.655 5.00713 146.878 4.39778C145.75 3.50457 144.196 3.24721 142.745 3.25099C139.997 3.26235 137.244 3.23585 134.496 3.26234C131.756 3.34183 129.037 5.18123 128.599 7.72838ZM172.886 3.25099C171.932 10.1128 170.973 16.9746 170.018 23.8364H188.376C188.62 22.0386 188.864 20.2371 189.104 18.4393C185.483 18.4355 181.863 18.4393 178.242 18.4393C178.371 17.5839 178.503 16.7324 178.635 15.877C182.247 15.8694 185.855 15.8429 189.463 15.8429C189.682 14.2874 189.901 12.7356 190.12 11.1801C186.508 11.1839 182.892 11.2142 179.28 11.2142C179.408 10.3588 179.54 9.50722 179.672 8.65186C183.289 8.65186 186.901 8.65186 190.517 8.65186C190.761 6.85031 191.005 5.05254 191.244 3.25099C185.128 3.25099 179.007 3.25099 172.886 3.25099ZM193.393 5.55592C194.22 4.11013 196.005 3.23207 197.77 3.26234C204.498 3.26613 211.223 3.25856 217.947 3.26613C219.158 3.28127 220.468 3.16016 221.559 3.7468C222.733 4.30694 223.41 5.5597 223.22 6.75191C222.799 9.9349 222.369 13.1141 221.943 16.2933C221.703 18.3522 219.53 19.9002 217.335 19.9456C214.901 19.9608 212.467 19.9456 210.036 19.9494C209.85 21.2438 209.656 22.5382 209.474 23.8326H201.94C202.163 22.5382 202.341 21.2362 202.544 19.9381C200.242 19.9381 197.94 19.9381 195.638 19.9381C194.927 19.9381 194.203 19.8548 193.563 19.5596C192.526 19.113 191.736 18.1706 191.637 17.1146C191.575 16.3879 191.757 15.6688 191.844 14.9459C192.178 12.5199 192.517 10.0939 192.852 7.66782C192.943 6.95628 193.005 6.20311 193.393 5.55592ZM199.378 14.4842C200.671 14.4842 201.965 14.4842 203.259 14.4842C203.593 12.5577 203.874 10.6237 204.093 8.68593C202.787 8.68593 201.481 8.68593 200.18 8.68593C199.911 10.6199 199.642 12.5502 199.378 14.4842ZM210.768 14.4956C211.892 14.488 213.016 14.5107 214.14 14.488C214.5 14.5107 214.744 14.2041 214.748 13.8976C215.012 12.1641 215.273 10.4345 215.537 8.70485C214.227 8.70485 212.921 8.70485 211.615 8.70485C211.33 10.6313 211.049 12.5653 210.768 14.4956Z" fill="#005A9C"></path>
</svg>